<svg width="19" height="19" viewBox="0 0 19 19" fill="none" xmlns="http://www.w3.org/2000/svg">
<path d="M12.0234 0.0232291C11.7488 0.112427 11.5002 0.331704 11.3518 0.621596C11.2775 0.759109 11.2627 0.84459 11.2627 1.10475C11.2627 1.37977 11.2775 1.44667 11.3703 1.62507C11.452 1.7886 12.0271 2.38325 14.3168 4.68008C17.5193 7.89119 17.3449 7.73881 17.8867 7.73881C18.5324 7.7351 19 7.26681 19 6.62385C19 6.17414 18.9332 6.07751 17.9684 5.1112L17.126 4.26383L17.7457 3.64316C18.0834 3.29752 18.3803 2.98161 18.4025 2.93701C18.4545 2.83295 18.4545 2.53563 18.4025 2.43156C18.3432 2.31635 16.6992 0.666194 16.5805 0.599297C16.4617 0.536115 16.1723 0.528682 16.0572 0.588147C16.0127 0.610446 15.6973 0.907771 15.3521 1.24598L14.7324 1.86664L13.8863 1.02298C13.3594 0.495233 12.9809 0.149592 12.877 0.0938439C12.7508 0.0269456 12.6395 0.00836277 12.4131 0.000929832C12.2498 -0.00278664 12.0754 0.0046463 12.0234 0.0232291Z" fill="#BCBCBC"/>
<path d="M8.80608 1.6288C8.56858 1.72171 8.29768 1.97444 8.19006 2.2123C8.07131 2.46874 8.07502 2.91473 8.19748 3.16746C8.26799 3.31612 9.00276 4.07058 11.8899 6.9695C13.8715 8.95786 15.5785 10.6415 15.6787 10.7121C16.2576 11.0986 17.0295 10.883 17.3264 10.2475C17.4043 10.084 17.4229 9.99107 17.4192 9.76436C17.4155 9.24775 17.6567 9.51906 13.5524 5.41226C10.0158 1.87038 9.84143 1.70313 9.63733 1.6288C9.36643 1.53217 9.06213 1.53217 8.80608 1.6288Z" fill="#BCBCBC"/>
<path d="M8.29395 8.31489L6.58691 10.0245L7.78555 11.2212L8.98047 12.4217L10.6949 10.7046L12.4131 8.98387L11.2256 7.79457C10.5725 7.14046 10.0307 6.60527 10.0195 6.60527C10.0084 6.60527 9.23281 7.3746 8.29395 8.31489Z" fill="#BCBCBC"/>
<path d="M2.4381 8.13277C2.09669 8.21453 1.82579 8.43381 1.67364 8.76087C1.59571 8.9244 1.57716 9.01731 1.58087 9.24402C1.58458 9.76062 1.34337 9.48931 5.44767 13.5961C8.98419 17.138 9.1586 17.3052 9.36271 17.3796C9.93048 17.5877 10.565 17.3313 10.81 16.7961C10.9287 16.5396 10.925 16.0936 10.8025 15.8409C10.732 15.6923 9.99728 14.9378 7.11017 12.0389C5.12853 10.0505 3.42521 8.36691 3.3213 8.30001C3.03556 8.11419 2.75353 8.05844 2.4381 8.13277Z" fill="#BCBCBC"/>
<path d="M0.79043 11.303C0.296875 11.4628 0 11.8679 0 12.3845C0 12.8342 0.0667969 12.9309 1.03164 13.8972L1.87402 14.7445L1.2543 15.3652C0.916602 15.7108 0.619727 16.0267 0.597461 16.0713C0.538086 16.1866 0.545508 16.4765 0.608594 16.5954C0.675391 16.718 2.32305 18.3608 2.4418 18.4239C2.53828 18.4722 2.76836 18.4834 2.89824 18.4425C2.94648 18.4276 3.27676 18.1303 3.6293 17.781L4.26758 17.1417L5.11367 17.9854C5.64062 18.5131 6.01914 18.8588 6.12305 18.9145C6.26406 18.9851 6.3457 19 6.64258 19C7.04707 19 7.19551 18.9405 7.42559 18.6952C7.6668 18.4462 7.7373 18.2641 7.7373 17.9036C7.7373 17.6286 7.72246 17.5617 7.62969 17.3833C7.54805 17.2198 6.97285 16.6251 4.6832 14.3283C2.14121 11.7824 1.81465 11.4665 1.61797 11.3773C1.3582 11.2584 1.0168 11.2287 0.79043 11.303Z" fill="#BCBCBC"/>
</svg>
