<svg width="19" height="19" viewBox="0 0 19 19" fill="none" xmlns="http://www.w3.org/2000/svg">
<path d="M8.93144 0.0283711C8.59829 0.0910853 8.18075 0.238912 7.9098 0.391218C7.39009 0.68687 1.22473 4.98279 0.989307 5.21573C0.491814 5.70849 0.140903 6.41178 0.0387395 7.12852C0.00320421 7.38385 -0.0056796 8.75013 0.00320421 11.8545C0.0209718 16.7775 -0.0056796 16.3923 0.380766 17.1852C0.554001 17.5436 0.651723 17.6735 0.989307 18.0184C1.33133 18.3588 1.46015 18.4574 1.8155 18.6321C2.61949 19.0308 1.94876 18.9994 9.5 18.9994C17.0512 18.9994 16.3805 19.0308 17.1845 18.6321C17.5399 18.4574 17.6687 18.3588 18.0107 18.0184C18.3483 17.6735 18.446 17.5436 18.6192 17.1852C19.0057 16.3923 18.979 16.7775 18.9968 11.8545C19.0057 8.75013 18.9968 7.38385 18.9613 7.12852C18.8591 6.41178 18.5082 5.70849 18.0107 5.21125C17.7131 4.9156 11.4589 0.58384 10.9792 0.337463C10.8015 0.247871 10.5216 0.140361 10.3573 0.0955649C10.0019 0.00597313 9.26014 -0.0298636 8.93144 0.0283711ZM12.1696 14.8513C12.3517 15.035 12.3517 15.3038 12.1696 15.4874L12.0408 15.6173H9.5H6.95923L6.83041 15.4874C6.72825 15.3844 6.7016 15.3172 6.7016 15.1694C6.7016 15.0215 6.72825 14.9544 6.83041 14.8513L6.95923 14.7214H9.5H12.0408L12.1696 14.8513Z" fill="#BCBCBC"/>
</svg>
