<svg width="17" height="19" viewBox="0 0 17 19" fill="none" xmlns="http://www.w3.org/2000/svg">
<path d="M7.72422 0.0222416C7.06911 0.126184 6.5001 0.319221 6.06212 0.579079C5.38454 0.980002 4.76687 1.58881 4.36257 2.24959C4.15294 2.59112 3.96576 3.06629 3.86094 3.50433C3.75238 3.96837 3.72618 4.89643 3.80854 5.36417C4.04812 6.73028 4.87543 7.8885 6.12201 8.59754C7.34988 9.29545 8.98578 9.35484 10.3297 8.75346C10.7789 8.553 11.2019 8.24488 11.6399 7.81426C12.6207 6.84165 13.0512 5.7354 12.9913 4.36929C12.9352 3.15538 12.5196 2.20133 11.6661 1.3438C10.9848 0.657037 10.135 0.215279 9.19542 0.051939C8.89968 -3.24249e-05 7.97129 -0.0185938 7.72422 0.0222416Z" fill="#BCBCBC"/>
<path d="M4.20533 9.1878C3.73365 9.25833 3.4192 9.35114 3.03736 9.54046C2.30738 9.89684 1.75709 10.4871 1.32284 11.3743C0.776293 12.4917 0.499275 13.8615 0.499275 15.4801C0.499275 16.4601 0.570401 16.8091 0.884854 17.4253C1.0009 17.6517 1.12069 17.8039 1.37899 18.0601C1.74586 18.4276 2.06405 18.6355 2.50953 18.7914C3.1272 19.0141 2.92131 19.0067 8.6451 18.9956L13.8822 18.9844L14.2004 18.8879C14.6047 18.7617 14.8181 18.6689 15.0876 18.4981C15.7128 18.1046 16.1733 17.481 16.3717 16.7756C16.4915 16.3339 16.5251 15.8067 16.484 14.9938C16.2968 11.3558 14.9042 9.30659 12.5346 9.17666C12.0255 9.15068 12.018 9.15068 11.1458 9.70752C10.4719 10.1344 10.004 10.346 9.38257 10.5056C8.91463 10.6282 8.07609 10.6282 7.6119 10.5094C6.9493 10.3386 6.50383 10.1344 5.83 9.70009C5.58293 9.54046 5.27971 9.35485 5.14869 9.28803C4.93156 9.17666 4.8829 9.16553 4.60588 9.16924C4.43742 9.17295 4.25774 9.18038 4.20533 9.1878Z" fill="#BCBCBC"/>
</svg>
