<svg width="19" height="19" viewBox="0 0 19 19" fill="none" xmlns="http://www.w3.org/2000/svg">
<path d="M2.3583 0.0319963C1.79765 0.129838 1.25034 0.418915 0.83208 0.836965C0.489459 1.17941 0.293675 1.49517 0.12459 1.96659L0 2.32238V4.635V6.94761L0.12459 7.15664C0.302575 7.46351 0.578451 7.61472 0.95667 7.61472C1.27259 7.61027 1.43723 7.54801 1.64191 7.34343C1.92224 7.0588 1.91334 7.15219 1.93559 4.76842C1.95784 2.38019 1.94894 2.46469 2.23371 2.20675C2.49624 1.96214 2.4206 1.96659 4.7611 1.94435C7.1461 1.92212 7.05266 1.93101 7.33743 1.65083C7.54212 1.44625 7.60441 1.2817 7.60886 0.965938C7.60886 0.587914 7.45757 0.312179 7.15055 0.134285L6.94142 0.00975943L4.7611 0.000864506C3.56415 0.000864506 2.48289 0.0142069 2.3583 0.0319963Z" fill="#BCBCBC"/>
<path d="M12.0718 0.0319963C11.836 0.103154 11.6357 0.263258 11.5111 0.467835C11.4132 0.636835 11.391 0.730229 11.391 0.965938C11.391 1.34396 11.5423 1.6197 11.8493 1.79759L12.0584 1.92212L14.2388 1.94435C16.5793 1.96659 16.5036 1.96214 16.7661 2.20675C17.0509 2.46469 17.042 2.38019 17.0643 4.76842L17.0865 6.94761L17.2111 7.15664C17.3891 7.46351 17.665 7.61472 18.0432 7.61472C18.3591 7.61027 18.5237 7.54801 18.7284 7.34343C19.0132 7.0588 18.9999 7.16998 18.9999 4.65723C18.9999 2.11335 19.0043 2.17117 18.6884 1.54854C18.3458 0.876991 17.7896 0.401125 17.042 0.134285L16.686 0.00975943L14.439 0.000864506C13.202 -0.00358248 12.1385 0.00975943 12.0718 0.0319963Z" fill="#BCBCBC"/>
<path d="M5.05921 3.90119C4.93017 3.94566 4.76108 4.02571 4.67654 4.07463C4.43626 4.22584 4.07584 4.63945 3.9468 4.91073L3.82666 5.16868V9.50484V13.841L3.9468 14.0989C4.11589 14.4592 4.50745 14.855 4.86787 15.0329L5.16155 15.1752H9.49993H13.8383L14.132 15.0329C14.4924 14.855 14.884 14.4592 15.0531 14.0989L15.1732 13.841V9.50484V5.16868L15.0308 4.87516C14.8528 4.51492 14.4568 4.12355 14.0964 3.95456L13.8383 3.83448L9.56668 3.82558C5.45967 3.81669 5.28614 3.81669 5.05921 3.90119Z" fill="#BCBCBC"/>
<path d="M0.680793 11.4127C0.444963 11.4883 0.244729 11.6484 0.12014 11.853L0 12.062V14.3747V16.6873L0.12014 17.0253C0.391567 17.7902 0.863227 18.3461 1.53957 18.6886C2.16252 19.0043 2.10467 18.9999 4.64986 18.9999C7.1639 18.9999 7.05266 19.0132 7.33743 18.7286C7.54212 18.524 7.60441 18.3595 7.60886 18.0437C7.60886 17.6657 7.45757 17.39 7.15055 17.2121L6.94142 17.0875L4.7611 17.0653C2.37165 17.0431 2.45619 17.052 2.19812 16.7673C1.95339 16.5049 1.95784 16.5805 1.93559 14.2412L1.91334 12.062L1.78875 11.853C1.63301 11.5862 1.35714 11.4172 1.03676 11.3949C0.907724 11.3816 0.747537 11.3949 0.680793 11.4127Z" fill="#BCBCBC"/>
<path d="M17.7674 11.4127C17.5315 11.4883 17.3313 11.6485 17.2067 11.853L17.0866 12.0621L17.0643 14.2413C17.0421 16.5806 17.0465 16.5049 16.8018 16.7673C16.5437 17.052 16.6283 17.0431 14.2388 17.0653L12.0585 17.0876L11.8494 17.2121C11.5423 17.39 11.391 17.6657 11.391 18.0437C11.391 18.4218 11.5423 18.6975 11.8494 18.8754L12.0585 18.9999H14.35C16.4458 18.9999 16.6638 18.991 16.9041 18.9199C17.7006 18.6708 18.3325 18.1594 18.6884 17.4611C19.0044 16.8385 18.9999 16.8963 18.9999 14.3524V12.0621L18.8753 11.853C18.7196 11.5862 18.4437 11.4172 18.1233 11.395C17.9943 11.3816 17.8341 11.395 17.7674 11.4127Z" fill="#BCBCBC"/>
</svg>
