<svg width="18" height="26" viewBox="0 0 18 26" fill="none" xmlns="http://www.w3.org/2000/svg">
<path d="M5.90664 0.0615525C3.85472 0.539167 2.38344 2.00758 1.86185 4.10095C1.73884 4.58873 1.68963 5.48299 1.76344 6.00125C1.85693 6.66686 2.0636 6.89551 2.58027 6.89551C2.83122 6.89551 2.87059 6.88026 3.0625 6.69735L3.26916 6.49411V5.61509C3.26916 4.92916 3.28885 4.66495 3.35774 4.40581C3.72187 3.05935 4.75521 1.99742 6.04442 1.65699C6.55617 1.5198 7.31888 1.5198 7.83555 1.65699C8.88365 1.93644 9.81366 2.72908 10.2614 3.73004C10.5518 4.37025 10.596 4.59381 10.596 5.54904C10.601 6.29595 10.6157 6.43822 10.6895 6.55508C10.8962 6.88026 11.3587 6.99205 11.7081 6.79897C12.0034 6.63638 12.1018 6.35692 12.1362 5.59477C12.2002 4.02474 11.6934 2.66303 10.6256 1.55537C9.97112 0.869432 9.23794 0.422304 8.33253 0.15301C7.95364 0.0412283 7.7765 0.0209045 7.05808 0.00566149C6.45284 -0.00958157 6.133 0.00566149 5.90664 0.0615525Z" fill="#CF5490"/>
<path d="M6.27105 3.15071C5.48374 3.42 4.88834 4.09578 4.72596 4.90366C4.68659 5.09166 4.67183 6.98179 4.67183 11.1025V17.0269L4.12072 16.4426C3.78119 16.087 3.46627 15.8075 3.31373 15.7262C2.03927 15.025 0.494182 15.65 0.0906871 17.0168C0.00703566 17.3013 -0.012647 17.4639 0.00703566 17.8653C0.0414804 18.7596 -0.0470918 18.6376 3.13658 22.1384C5.98073 25.2683 6.13327 25.4157 6.76804 25.7002C6.90089 25.7561 7.17153 25.8476 7.37328 25.9035C7.71773 25.9949 7.95392 26 11.2901 26C14.6854 26 14.8576 25.9949 15.2267 25.8984C16.4765 25.5681 17.4311 24.623 17.8641 23.2817L17.9822 22.926L17.997 18.4852C18.0068 15.3959 17.9921 13.9631 17.9576 13.7751C17.7264 12.6217 16.6094 11.8189 15.4629 11.9815C15.2906 12.0069 15.079 12.0577 14.9856 12.0984L14.8183 12.1695L14.6903 11.9764C14.4738 11.6411 14.1589 11.3616 13.7751 11.1685C13.4405 11.0059 13.3568 10.9856 12.914 10.9704C12.5252 10.9551 12.3628 10.9704 12.1414 11.0466L11.8659 11.1431L11.6592 10.8535C11.4131 10.5029 10.9998 10.193 10.5865 10.0507C10.2568 9.93386 9.60234 9.90337 9.3071 9.98975L9.14964 10.0406V7.53054C9.14964 5.18311 9.14472 5.00528 9.05123 4.7055C8.86424 4.07545 8.47059 3.608 7.87519 3.29806C7.53074 3.12022 7.47661 3.11006 6.98947 3.0999C6.65978 3.08974 6.39407 3.11006 6.27105 3.15071ZM7.36344 4.82236C7.639 5.08657 7.62423 4.83252 7.62423 9.95418C7.62423 15.2435 7.60455 14.9132 7.96376 15.1622C8.21471 15.335 8.64281 15.3248 8.8544 15.147C9.1398 14.8929 9.14964 14.8472 9.14964 13.4245C9.14964 12.0221 9.1644 11.9104 9.41536 11.6766C9.60726 11.4937 10.0009 11.4683 10.2322 11.6309C10.557 11.8596 10.5766 11.9459 10.5766 13.3991C10.5766 14.5322 10.5865 14.7151 10.6652 14.8726C10.9112 15.3858 11.6789 15.4264 11.9889 14.9386C12.0627 14.8218 12.0824 14.6541 12.102 13.9021C12.1316 12.9062 12.1562 12.8199 12.4908 12.6166C12.786 12.4388 13.1698 12.5404 13.4011 12.8554C13.4946 12.9875 13.5044 13.0892 13.529 13.9021C13.5487 14.6541 13.5684 14.8218 13.6422 14.9386C13.9276 15.3909 14.651 15.3959 14.9363 14.9488C14.9856 14.8675 15.0348 14.6541 15.0544 14.4102C15.0938 13.9631 15.1775 13.7954 15.4432 13.6379C15.7384 13.455 16.1222 13.5566 16.3535 13.8716C16.4568 14.0139 16.4568 14.0241 16.4568 18.3429V22.6719L16.3437 22.9616C16.0927 23.6018 15.6105 24.0845 14.9659 24.3385C14.6854 24.4503 14.6608 24.4503 11.3147 24.4503H7.94408L7.61439 24.3334C7.43725 24.2674 7.17645 24.1302 7.03867 24.0286C6.77788 23.8355 1.7834 18.3683 1.61609 18.099C1.4734 17.8653 1.48816 17.5096 1.65054 17.3115C1.90149 17.0066 2.25086 16.9202 2.53134 17.0981C2.61499 17.1489 3.17595 17.7281 3.78611 18.3836C4.39135 19.039 4.96707 19.6233 5.06548 19.6843C5.40501 19.9079 5.91676 19.7656 6.10375 19.3947C6.19232 19.227 6.19724 18.9374 6.19724 12.2406C6.19724 6.46861 6.20708 5.239 6.26613 5.10182C6.44819 4.64961 7.03375 4.50226 7.36344 4.82236Z" fill="#CF5490"/>
</svg>
