<svg width="64" height="48" viewBox="0 0 64 48" fill="none" xmlns="http://www.w3.org/2000/svg">
<rect width="64" height="48" rx="24" fill="white" fill-opacity="0.05"/>
<path d="M32.02 32.53C29.69 32.53 27.36 32.16 25.15 31.42C24.31 31.13 23.67 30.54 23.39 29.77C23.1 29 23.2 28.15 23.66 27.39L24.81 25.48C25.05 25.08 25.27 24.28 25.27 23.81V20.92C25.27 17.2 28.3 14.17 32.02 14.17C35.74 14.17 38.77 17.2 38.77 20.92V23.81C38.77 24.27 38.99 25.08 39.23 25.49L40.37 27.39C40.8 28.11 40.88 28.98 40.59 29.77C40.3 30.56 39.67 31.16 38.88 31.42C36.68 32.16 34.35 32.53 32.02 32.53ZM32.02 15.67C29.13 15.67 26.77 18.02 26.77 20.92V23.81C26.77 24.54 26.47 25.62 26.1 26.25L24.95 28.16C24.73 28.53 24.67 28.92 24.8 29.25C24.92 29.59 25.22 29.85 25.63 29.99C29.81 31.39 34.24 31.39 38.42 29.99C38.78 29.87 39.06 29.6 39.19 29.24C39.32 28.88 39.29 28.49 39.09 28.16L37.94 26.25C37.56 25.6 37.27 24.53 37.27 23.8V20.92C37.27 18.02 34.92 15.67 32.02 15.67Z" fill="#CF5490"/>
<path d="M33.88 15.94C33.81 15.94 33.74 15.93 33.67 15.91C33.38 15.83 33.1 15.77 32.83 15.73C31.98 15.62 31.16 15.68 30.39 15.91C30.11 16 29.81 15.91 29.62 15.7C29.43 15.49 29.37 15.19 29.48 14.92C29.89 13.87 30.89 13.18 32.03 13.18C33.17 13.18 34.17 13.86 34.58 14.92C34.68 15.19 34.63 15.49 34.44 15.7C34.29 15.86 34.08 15.94 33.88 15.94Z" fill="#CF5490"/>
<path d="M32.02 34.81C31.03 34.81 30.07 34.41 29.37 33.71C28.67 33.01 28.27 32.05 28.27 31.06H29.77C29.77 31.65 30.01 32.23 30.43 32.65C30.85 33.07 31.43 33.31 32.02 33.31C33.26 33.31 34.27 32.3 34.27 31.06H35.77C35.77 33.13 34.09 34.81 32.02 34.81Z" fill="#CF5490"/>
</svg>
