<svg width="148" height="148" viewBox="0 0 148 148" fill="none" xmlns="http://www.w3.org/2000/svg">
<g clip-path="url(#clip0_50_816)">
<circle cx="74.0241" cy="74.024" r="73.36" fill="#0C0C0D"/>
<g filter="url(#filter0_d_50_816)">
<rect x="21.624" y="40.4879" width="104.8" height="162.44" rx="6.288" fill="#1D1E24"/>
</g>
<rect x="27.9121" y="128.52" width="92.224" height="14.672" rx="7.336" fill="#CF5490"/>
<rect x="53.064" y="133.76" width="41.92" height="4.192" rx="2.096" fill="#F17DB5" fill-opacity="0.76"/>
<rect x="41.5359" y="101.272" width="64.976" height="8.384" rx="4.192" fill="#4D5167"/>
<rect x="53.064" y="113.848" width="41.92" height="6.288" rx="3.144" fill="#777C8E"/>
<g clip-path="url(#clip1_50_816)">
<circle cx="74.0241" cy="76.1199" r="16.768" fill="#787D8E"/>
<circle cx="74.024" cy="94.2668" r="14.1204" fill="#CDCDDF"/>
<circle cx="74.0239" cy="73.0863" r="5.29516" fill="#CDCDDF"/>
</g>
<g filter="url(#filter1_bd_50_816)">
<circle cx="74.0241" cy="37.3439" r="16.768" fill="white" fill-opacity="0.16" shape-rendering="crispEdges"/>
<circle cx="74.0241" cy="37.3439" r="17.1173" stroke="url(#paint0_linear_50_816)" stroke-width="0.698667" shape-rendering="crispEdges"/>
</g>
<g filter="url(#filter2_b_50_816)">
<circle cx="74.024" cy="37.3439" r="12.576" fill="#27B73E"/>
</g>
<path d="M81.36 37.3438C81.36 38.3071 81.1702 39.2611 80.8016 40.1511C80.4329 41.0412 79.8925 41.8499 79.2113 42.5311C78.5301 43.2123 77.7214 43.7527 76.8314 44.1213C75.9413 44.49 74.9874 44.6798 74.024 44.6798C73.0606 44.6798 72.1067 44.49 71.2166 44.1213C70.3266 43.7527 69.5179 43.2123 68.8367 42.5311C68.1554 41.8499 67.6151 41.0412 67.2464 40.1511C66.8777 39.2611 66.688 38.3071 66.688 37.3438C66.688 35.3981 67.4609 33.5322 68.8367 32.1564C70.2124 30.7806 72.0784 30.0078 74.024 30.0078C75.9696 30.0078 77.8356 30.7806 79.2113 32.1564C80.5871 33.5322 81.36 35.3981 81.36 37.3438Z" fill="#27B73E" stroke="#27B73E" stroke-width="2.096" stroke-linecap="round" stroke-linejoin="round"/>
<path d="M71.5789 37.9551L73.4129 39.7891L76.4695 35.5098" stroke="white" stroke-width="2.096" stroke-linecap="round" stroke-linejoin="round"/>
</g>
<defs>
<filter id="filter0_d_50_816" x="0.664024" y="23.7199" width="146.72" height="204.36" filterUnits="userSpaceOnUse" color-interpolation-filters="sRGB">
<feFlood flood-opacity="0" result="BackgroundImageFix"/>
<feColorMatrix in="SourceAlpha" type="matrix" values="0 0 0 0 0 0 0 0 0 0 0 0 0 0 0 0 0 0 127 0" result="hardAlpha"/>
<feOffset dy="4.192"/>
<feGaussianBlur stdDeviation="10.48"/>
<feComposite in2="hardAlpha" operator="out"/>
<feColorMatrix type="matrix" values="0 0 0 0 0.0855729 0 0 0 0 0.0855729 0 0 0 0 0.129167 0 0 0 0.25 0"/>
<feBlend mode="normal" in2="BackgroundImageFix" result="effect1_dropShadow_50_816"/>
<feBlend mode="normal" in="SourceGraphic" in2="effect1_dropShadow_50_816" result="shape"/>
</filter>
<filter id="filter1_bd_50_816" x="14.6374" y="-16.4534" width="118.773" height="118.773" filterUnits="userSpaceOnUse" color-interpolation-filters="sRGB">
<feFlood flood-opacity="0" result="BackgroundImageFix"/>
<feGaussianBlur in="BackgroundImageFix" stdDeviation="6.98667"/>
<feComposite in2="SourceAlpha" operator="in" result="effect1_backgroundBlur_50_816"/>
<feColorMatrix in="SourceAlpha" type="matrix" values="0 0 0 0 0 0 0 0 0 0 0 0 0 0 0 0 0 0 127 0" result="hardAlpha"/>
<feOffset dy="5.58933"/>
<feGaussianBlur stdDeviation="20.96"/>
<feComposite in2="hardAlpha" operator="out"/>
<feColorMatrix type="matrix" values="0 0 0 0 0.316667 0 0 0 0 0.316667 0 0 0 0 0.316667 0 0 0 0.15 0"/>
<feBlend mode="normal" in2="effect1_backgroundBlur_50_816" result="effect2_dropShadow_50_816"/>
<feBlend mode="normal" in="SourceGraphic" in2="effect2_dropShadow_50_816" result="shape"/>
</filter>
<filter id="filter2_b_50_816" x="47.4747" y="10.7945" width="53.0988" height="53.0986" filterUnits="userSpaceOnUse" color-interpolation-filters="sRGB">
<feFlood flood-opacity="0" result="BackgroundImageFix"/>
<feGaussianBlur in="BackgroundImageFix" stdDeviation="6.98667"/>
<feComposite in2="SourceAlpha" operator="in" result="effect1_backgroundBlur_50_816"/>
<feBlend mode="normal" in="SourceGraphic" in2="effect1_backgroundBlur_50_816" result="shape"/>
</filter>
<linearGradient id="paint0_linear_50_816" x1="74.0241" y1="-5.27474" x2="74.0241" y2="54.1119" gradientUnits="userSpaceOnUse">
<stop stop-color="white"/>
<stop offset="1" stop-color="white" stop-opacity="0"/>
</linearGradient>
<clipPath id="clip0_50_816">
<rect x="0.664062" y="0.664001" width="146.72" height="146.72" rx="73.36" fill="white"/>
</clipPath>
<clipPath id="clip1_50_816">
<rect x="57.2561" y="59.3519" width="33.536" height="33.536" rx="16.768" fill="white"/>
</clipPath>
</defs>
</svg>
