<svg width="22" height="22" viewBox="0 0 22 22" fill="none" xmlns="http://www.w3.org/2000/svg">
<path d="M9.56363 0.0634346C5.54566 0.579109 2.08204 3.33368 0.668229 7.13248C0.363121 7.95756 0.135365 8.91586 0.0451216 9.75813C-0.0150405 10.2953 -0.0150405 11.6962 0.0451216 12.2334C0.513527 16.565 3.59469 20.2693 7.78455 21.5413C8.85458 21.8636 9.78279 21.9968 10.9989 21.9968C12.2365 21.9968 13.1218 21.8722 14.2219 21.537C15.4595 21.1632 16.5338 20.6174 17.5953 19.8224C20.0104 18.0175 21.566 15.3446 21.9355 12.3709C22.0215 11.6747 22.0215 10.3168 21.9355 9.62062C21.523 6.29451 19.615 3.34657 16.7315 1.57608C15.438 0.781082 13.9125 0.248219 12.3741 0.0591373C11.708 -0.0225124 10.2168 -0.0182152 9.56363 0.0634346ZM12.2451 1.82533C12.8382 1.90268 13.732 2.13043 14.2477 2.32811C15.5584 2.83519 16.551 3.47978 17.5308 4.46386C18.9017 5.8304 19.7439 7.44189 20.1221 9.40146C20.2037 9.83548 20.2166 10.0418 20.2166 10.9958C20.2166 11.9498 20.2037 12.156 20.1221 12.59C19.8342 14.0855 19.2669 15.3833 18.3731 16.5822C17.9863 17.1065 17.1097 17.9832 16.5854 18.3699C13.8781 20.3896 10.3844 20.8108 7.32904 19.4872C6.25471 19.0231 5.3222 18.3871 4.46704 17.5276C3.0962 16.1611 2.24963 14.5453 1.87577 12.59C1.79412 12.156 1.78123 11.9498 1.78123 10.9958C1.78123 10.0418 1.79412 9.83548 1.87577 9.40146C2.39574 6.70275 3.91269 4.48965 6.22893 3.06724C7.97363 1.99292 10.1438 1.546 12.2451 1.82533Z" fill="white"/>
<path d="M10.8055 5.53389C10.5133 5.60694 10.3371 5.74446 10.2082 5.998C10.1481 6.12262 10.1395 6.45351 10.1395 9.14362C10.1395 11.1633 10.1524 12.1904 10.1867 12.272C10.2942 12.5643 10.6594 12.8006 10.9989 12.8006C11.3384 12.8006 11.7037 12.5643 11.8111 12.272C11.8455 12.1904 11.8584 11.1633 11.8584 9.14362C11.8584 6.27732 11.8541 6.12691 11.7767 5.97651C11.7338 5.89056 11.6607 5.78743 11.6177 5.74875C11.4115 5.56827 11.0505 5.47373 10.8055 5.53389Z" fill="white"/>
<path d="M10.5047 13.9351C10.234 14.0597 9.95469 14.3691 9.88164 14.6227C9.85155 14.7301 9.83436 14.9493 9.84726 15.1126C9.86015 15.3489 9.89023 15.452 9.99336 15.6196C10.3414 16.1869 11.1107 16.3459 11.6736 15.9677C11.9744 15.7657 12.1334 15.4821 12.1506 15.1126C12.1764 14.7215 12.099 14.4766 11.8885 14.2316C11.5404 13.8406 10.9731 13.7159 10.5047 13.9351Z" fill="white"/>
</svg>
