<svg width="22" height="22" viewBox="0 0 22 22" fill="none" xmlns="http://www.w3.org/2000/svg">
<path d="M18.4776 0.639669C18.2295 0.696556 3.07192 6.43405 2.7122 6.60471C1.82326 7.03136 1.31056 7.94156 1.38085 8.96147C1.4222 9.58316 1.6496 10.0626 2.10855 10.5137C2.59643 10.9891 2.67086 11.0175 5.46173 11.7489C8.99684 12.6795 8.88107 12.647 9.02992 12.7567C9.10434 12.8135 9.19531 12.9192 9.23665 12.9923C9.278 13.0695 9.65425 14.4023 10.076 15.9545C10.9525 19.1931 10.9567 19.2093 11.4611 19.705C11.9572 20.1926 12.532 20.4243 13.2514 20.4243C14.1569 20.4202 15.0251 19.9041 15.4262 19.128C15.5792 18.8273 21.4462 3.82942 21.5 3.59781C21.562 3.33369 21.5537 2.67542 21.4834 2.4113C21.2602 1.57018 20.5531 0.875345 19.6973 0.655924C19.4409 0.59091 18.7298 0.578718 18.4776 0.639669ZM19.4285 2.33816C19.6022 2.42756 19.689 2.51289 19.7841 2.69574C19.9453 3.00862 20.0528 2.70387 16.9725 10.5746C15.389 14.6177 14.0576 18.0228 14.0122 18.1406C13.9088 18.4129 13.7558 18.5876 13.5449 18.6811C13.1976 18.8395 12.78 18.7217 12.565 18.4129C12.4823 18.2869 12.2797 17.6043 11.6844 15.406C10.7995 12.1472 10.7954 12.1268 10.3034 11.6433C9.84031 11.1923 9.67492 11.1232 7.71511 10.6112C6.80549 10.3715 5.49068 10.0261 4.79192 9.84322C3.40269 9.47752 3.28692 9.42469 3.14221 9.11181C2.99336 8.79487 3.08019 8.40478 3.3448 8.18536C3.41509 8.12441 3.63009 8.02283 3.81615 7.94969C4.00634 7.88061 7.4629 6.5722 11.4983 5.04437C19.4492 2.03747 19.0771 2.16344 19.4285 2.33816Z" fill="#CF5490"/>
<path d="M15.3607 5.6741C15.2863 5.69036 15.1664 5.73912 15.092 5.78788C15.0134 5.83664 14.1369 6.67369 13.1446 7.65297C11.9124 8.86792 11.3171 9.48149 11.2716 9.58307C11.1475 9.8797 11.2178 10.2779 11.4287 10.5055C11.6437 10.733 12.0861 10.8183 12.4003 10.6924C12.5864 10.6152 16.1256 7.1613 16.2745 6.91343C16.4027 6.69401 16.4316 6.49084 16.3737 6.25923C16.3076 5.99917 16.0512 5.74724 15.7907 5.68223C15.5757 5.6294 15.5468 5.6294 15.3607 5.6741Z" fill="#CF5490"/>
<path d="M3.18821 12.9313C2.99802 13.0126 0.566854 15.3897 0.451084 15.605C0.335315 15.8285 0.355988 16.247 0.496565 16.4502C0.653681 16.6737 0.843874 16.7794 1.12089 16.7997C1.55917 16.8322 1.5633 16.8281 2.93186 15.4913C4.27562 14.1788 4.38725 14.0406 4.38725 13.6831C4.38725 13.4677 4.27562 13.2117 4.13504 13.0817C3.9035 12.8744 3.48177 12.8054 3.18821 12.9313Z" fill="#CF5490"/>
<path d="M4.34583 16.3853C4.17218 16.4585 0.67428 19.8676 0.496491 20.1358C0.39726 20.2902 0.376587 20.3593 0.376587 20.5828C0.376587 21.0867 0.694953 21.3995 1.20765 21.3995C1.43505 21.3995 1.50534 21.3792 1.66246 21.2817C1.95188 21.0948 5.4043 17.6694 5.48286 17.4906C5.55314 17.3158 5.56555 16.9867 5.49939 16.8201C5.44151 16.6657 5.22237 16.4463 5.06112 16.3772C4.88747 16.3041 4.52776 16.3081 4.34583 16.3853Z" fill="#CF5490"/>
<path d="M7.8353 17.5595C7.68232 17.6327 7.30607 17.9821 6.38818 18.8883C5.02788 20.2333 5.02375 20.2373 5.05683 20.668C5.0775 20.9403 5.185 21.1272 5.4124 21.2816C5.61914 21.4198 6.045 21.4401 6.27241 21.3263C6.50395 21.2085 8.91444 18.8192 8.99713 18.6282C9.03021 18.5429 9.05915 18.3885 9.05915 18.2828C9.05501 17.6489 8.42242 17.271 7.8353 17.5595Z" fill="#CF5490"/>
</svg>
