<svg width="14" height="18" viewBox="0 0 14 18" fill="none" xmlns="http://www.w3.org/2000/svg">
<path d="M5.41056 0.0639329C4.92228 0.22923 4.50472 0.675885 4.35992 1.18936C4.32288 1.31949 4.30604 1.52347 4.30604 1.81186V2.24445L2.63242 2.255L0.955429 2.26555L0.753382 2.36754C0.494089 2.50119 0.238163 2.76848 0.1102 3.03928L0.0125435 3.2503L0.00244117 4.11196C-0.00429372 4.92438 -0.000926278 4.98065 0.0630553 5.08967C0.100097 5.15298 0.177549 5.23387 0.238163 5.27256C0.349288 5.3429 0.423372 5.3429 7 5.3429C13.5766 5.3429 13.6507 5.3429 13.7618 5.27256C13.8225 5.23387 13.8999 5.15298 13.9369 5.08967C14.0009 4.98065 14.0043 4.92438 13.9976 4.11196L13.9875 3.2503L13.8898 3.03928C13.7618 2.76848 13.5059 2.50119 13.2466 2.36754L13.0446 2.26555L11.3709 2.255L9.69396 2.24445V1.81186C9.69396 1.48127 9.67712 1.32301 9.62998 1.16123C9.47507 0.644232 9.05078 0.204612 8.55239 0.0533819C8.39749 0.00414467 8.15167 -0.00288916 6.98653 0.000627518C5.74057 0.000627518 5.5823 0.00766182 5.41056 0.0639329ZM8.1584 1.15771C8.47494 1.23156 8.58607 1.42148 8.60964 1.89979L8.62648 2.24797H7H5.37352L5.39036 1.89979C5.41393 1.42851 5.52843 1.23156 5.82476 1.15771C5.98303 1.11902 7.99676 1.11551 8.1584 1.15771Z" fill="#797979"/>
<path d="M0.871449 6.52122C0.837774 6.56343 0.871449 7.53411 1.05329 11.5259C1.17789 14.248 1.29575 16.5622 1.31595 16.6677C1.42708 17.2585 1.83791 17.7368 2.3969 17.9303C2.60905 18.0041 2.61579 18.0041 7.07092 17.9971L11.5328 17.9865L11.7955 17.8494C12.2669 17.6102 12.5935 17.1741 12.6878 16.6677C12.708 16.5622 12.8225 14.248 12.9471 11.5259C13.129 7.53059 13.1626 6.56343 13.129 6.52122C13.0919 6.4755 12.3982 6.46847 7.00021 6.46847C1.60892 6.46847 0.908491 6.4755 0.871449 6.52122ZM4.57564 7.4286C4.63962 7.4708 4.72044 7.56224 4.75749 7.62906C4.8282 7.75216 4.8282 7.78381 4.8282 11.5329C4.8282 15.282 4.8282 15.3136 4.75749 15.4367C4.54534 15.813 4.06716 15.813 3.85501 15.4367C3.78429 15.3136 3.78429 15.282 3.78429 11.5329C3.78429 7.78381 3.78429 7.75216 3.85501 7.62906C3.95603 7.4497 4.11767 7.34771 4.30625 7.34771C4.41401 7.34771 4.50156 7.37233 4.57564 7.4286ZM7.2696 7.4286C7.33358 7.4708 7.4144 7.56224 7.45144 7.62906C7.52216 7.75216 7.52216 7.78381 7.52216 11.5329C7.52216 15.282 7.52216 15.3136 7.45144 15.4367C7.2393 15.813 6.76112 15.813 6.54897 15.4367C6.47825 15.3136 6.47825 15.282 6.47825 11.5329C6.47825 7.78381 6.47825 7.75216 6.54897 7.62906C6.64999 7.4497 6.81163 7.34771 7.00021 7.34771C7.10796 7.34771 7.19552 7.37233 7.2696 7.4286ZM9.96356 7.4286C10.0275 7.4708 10.1084 7.56224 10.1454 7.62906C10.2161 7.75216 10.2161 7.78381 10.2161 11.5329C10.2161 15.282 10.2161 15.3136 10.1454 15.4367C9.93325 15.813 9.45508 15.813 9.24293 15.4367C9.17221 15.3136 9.17221 15.282 9.17221 11.5329C9.17221 7.78381 9.17221 7.75216 9.24293 7.62906C9.34395 7.4497 9.50559 7.34771 9.69417 7.34771C9.80192 7.34771 9.88948 7.37233 9.96356 7.4286Z" fill="#797979"/>
</svg>
