<svg width="20" height="21" viewBox="0 0 20 21" fill="none" xmlns="http://www.w3.org/2000/svg">
<path d="M1.6967 10.8922C1.63919 10.7194 1.63919 10.5326 1.6967 10.3597C2.85253 6.88223 6.13336 4.3739 10 4.3739C13.865 4.3739 17.1442 6.87974 18.3025 10.3556C18.3609 10.5281 18.3609 10.7147 18.3025 10.8881C17.1475 14.3656 13.8667 16.8739 10 16.8739C6.13503 16.8739 2.85503 14.3681 1.6967 10.8922Z" stroke="#797979" stroke-linecap="round" stroke-linejoin="round"/>
<path d="M12.5 10.6239C12.5 11.2869 12.2366 11.9228 11.7678 12.3917C11.2989 12.8605 10.663 13.1239 10 13.1239C9.33696 13.1239 8.70107 12.8605 8.23223 12.3917C7.76339 11.9228 7.5 11.2869 7.5 10.6239C7.5 9.96086 7.76339 9.32498 8.23223 8.85613C8.70107 8.38729 9.33696 8.1239 10 8.1239C10.663 8.1239 11.2989 8.38729 11.7678 8.85613C12.2366 9.32498 12.5 9.96086 12.5 10.6239Z" stroke="#797979" stroke-linecap="round" stroke-linejoin="round"/>
</svg>
