<svg width="26" height="22" viewBox="0 0 26 22" fill="none" xmlns="http://www.w3.org/2000/svg">
<path d="M18.5384 21.3214H7.48C3.75342 21.3214 0.732422 18.2715 0.732422 14.5092V3.30944C0.732422 1.86627 1.89119 0.696411 3.32067 0.696411H22.6978C24.1272 0.696411 25.286 1.86627 25.286 3.30944V14.5093C25.286 18.2715 22.265 21.3214 18.5384 21.3214Z" fill="#E0E0E0"/>
<path d="M22.5058 0.696411H20.9147C22.4502 0.696411 23.6949 1.8656 23.6949 3.30789V14.5132C23.6949 18.2733 20.4498 21.3214 16.4468 21.3214H18.0379C22.041 21.3214 25.2861 18.2733 25.2861 14.5132V3.30789C25.2861 1.8656 24.0413 0.696411 22.5058 0.696411V0.696411Z" fill="#BDBDBD"/>
<path d="M2.69678 15.0096V3.78093C2.69678 3.16218 3.19281 2.66064 3.80466 2.66064H23.196C23.8079 2.66064 24.3039 3.16223 24.3039 3.78093V15.0096C24.3039 17.9531 21.9442 20.3392 19.0333 20.3392H7.96749C5.05654 20.3392 2.69678 17.9531 2.69678 15.0096Z" fill="#FFD54F"/>
<path d="M23.1758 2.66064H21.6666C22.2895 2.66064 22.7945 3.16194 22.7945 3.78029V15.0127C22.7945 17.9545 20.3922 20.3392 17.4287 20.3392H18.9379C21.9013 20.3392 24.3037 17.9545 24.3037 15.0127V3.78029C24.3037 3.16194 23.7987 2.66064 23.1758 2.66064V2.66064Z" fill="#FFC328"/>
<path d="M16.5814 7.57139H9.43679C9.24005 7.57139 9.08057 7.37742 9.08057 7.13815V5.44805C9.08057 4.45108 9.74508 3.64282 10.5649 3.64282H15.4534C16.2731 3.64282 16.9377 4.45103 16.9377 5.44805V7.13815C16.9377 7.37742 16.7782 7.57139 16.5814 7.57139Z" fill="#BBF7FF"/>
<path d="M13.9911 16.4108C13.7199 16.4108 13.5 16.0662 13.5 15.6412V10.3054C13.5 9.88035 13.7198 9.53577 13.9911 9.53577C14.2623 9.53577 14.4821 9.8803 14.4821 10.3054V15.6412C14.4821 16.0662 14.2623 16.4108 13.9911 16.4108Z" fill="#546E7A"/>
<path d="M13.401 6.01009L12.1153 4.72438C11.9828 4.59187 11.768 4.59187 11.6355 4.72438C11.503 4.85689 11.503 5.07173 11.6355 5.20419L12.9212 6.48989C12.9874 6.55613 13.0743 6.58929 13.1611 6.58929C13.2479 6.58929 13.3348 6.55617 13.401 6.48989C13.5336 6.35743 13.5336 6.14259 13.401 6.01009Z" fill="#F74F68"/>
<path d="M13.5002 6.5892H12.5181V6.13086C12.5181 5.84158 12.7379 5.60706 13.0091 5.60706C13.2803 5.60706 13.5002 5.84158 13.5002 6.13086V6.5892Z" fill="#546E7A"/>
<path fill-rule="evenodd" clip-rule="evenodd" d="M10.465 3.64282H15.5531C16.5873 3.64282 17.4286 4.46438 17.4286 5.4742V6.88642C17.4286 7.26411 17.114 7.57139 16.7272 7.57139H9.29087C8.90406 7.57139 8.58936 7.26411 8.58936 6.88642V5.4742C8.58936 4.46438 9.43076 3.64282 10.465 3.64282ZM16.7272 6.92547C16.7493 6.92547 16.7672 6.90794 16.7672 6.88641V5.47419C16.7672 4.82052 16.2226 4.28872 15.5531 4.28872H10.4651C9.79562 4.28872 9.25098 4.82052 9.25098 5.47419V6.88641C9.25098 6.90794 9.26893 6.92547 9.29098 6.92547H16.7272Z" fill="#546E7A"/>
</svg>
