<svg width="24" height="24" viewBox="0 0 24 24" fill="none" xmlns="http://www.w3.org/2000/svg">
<g style="mix-blend-mode:color-dodge">
<path d="M23.1797 2.6973C23.4121 2.95378 23.6611 3.24383 23.9241 3.57062C24.0348 3.70862 24.0227 3.90685 23.8991 4.03053C23.8942 4.03541 23.8893 4.0403 23.8841 4.04485C23.8769 4.05135 23.1511 4.6965 22.006 5.74134L17.1329 10.2895C15.9035 11.4649 14.7379 12.6032 13.6706 13.6705C12.6033 14.7378 11.4647 15.9038 10.287 17.1361L5.73842 22.0087C4.69615 23.1512 4.05104 23.8771 4.04454 23.8843C3.92247 24.0213 3.71383 24.0392 3.57031 23.9243C3.2448 23.6626 2.95512 23.4139 2.69929 23.1821C1.54963 22.1406 1.08056 21.4391 1.0568 21.4036C0.971195 21.2731 0.983213 21.1009 1.08705 20.9841C1.09354 20.9769 1.7387 20.2511 2.78323 19.1063L7.34513 14.219C8.52964 12.9798 9.67114 11.8109 10.7411 10.741C11.8107 9.67146 12.9799 8.5296 14.2161 7.34804L14.2187 7.34542L19.1031 2.7858C20.2511 1.73866 20.977 1.09355 20.9841 1.08701C21.101 0.983177 21.2732 0.971112 21.4034 1.05708C21.4392 1.08052 22.1397 1.54927 23.1797 2.6973Z" fill="#C7CDE0"/>
<path d="M23.1527 2C23.3928 2.26487 23.65 2.56442 23.9216 2.9019C24.0359 3.04442 24.0235 3.24914 23.8957 3.37687C23.8907 3.38191 23.8857 3.38695 23.8803 3.39166C23.8729 3.39837 23.1232 4.06464 21.9405 5.14368L16.9075 9.84075C15.6377 11.0546 14.4338 12.2301 13.3315 13.3324C12.2291 14.4346 11.0531 15.6387 9.83683 16.9114L5.13891 21.9436C4.06242 23.1235 3.39613 23.8731 3.38942 23.8805C3.26334 24.022 3.04786 24.0405 2.89962 23.9218C2.56343 23.6515 2.26423 23.3947 2 23.1554C3.89402 20.9408 11.2827 12.5451 23.1527 2V2Z" fill="#B1ACCC"/>
<path d="M10.8161 22.0571C10.8161 22.1514 10.7783 22.2415 10.712 22.3078C10.7026 22.3172 10.6933 22.3259 10.6826 22.3339C10.256 22.6746 9.81178 22.9575 9.39696 23.1875C8.42777 23.7241 7.61924 23.9708 7.57169 23.9848C7.4602 24.0187 7.33901 23.9952 7.24794 23.9222C2.88241 20.4289 0.0996574 16.7822 0.0718569 16.7457C0.00356332 16.6553 -0.017512 16.5378 0.0149298 16.429C0.0293273 16.3818 0.272712 15.5835 0.802674 14.6224C1.03436 14.2027 1.32061 13.7518 1.6661 13.3186C1.73406 13.2332 1.83854 13.1837 1.94799 13.1854C2.05782 13.1867 2.16059 13.2386 2.22651 13.326C2.25933 13.3689 5.53553 17.6609 10.6828 21.7793C10.7672 21.8468 10.8161 21.9492 10.8161 22.0571Z" fill="#8389AA"/>
<path d="M10.8161 22.0571C10.8161 22.1514 10.7783 22.2415 10.712 22.3078C10.7026 22.3172 10.6933 22.3259 10.6826 22.3339C10.256 22.6746 9.8118 22.9575 9.39697 23.1875C4.4913 19.3282 0.802734 14.6224 0.802734 14.6224C1.03442 14.2027 1.32067 13.7518 1.66616 13.3186C1.73412 13.2332 1.8386 13.1837 1.94805 13.1854C2.05788 13.1867 2.16065 13.2386 2.22657 13.326C2.25939 13.3689 5.53559 17.6609 10.6829 21.7793C10.7672 21.8468 10.8161 21.9492 10.8161 22.0571Z" fill="#646D91"/>
<path d="M14.8719 20.6829C14.955 20.7525 15.0022 20.8553 14.9998 20.9634C14.9978 21.0558 14.9603 21.1428 14.896 21.2071C14.8847 21.2185 14.8729 21.2288 14.8599 21.2386C14.5281 21.4913 14.1836 21.7105 13.8438 21.899C12.7859 22.4881 11.7782 22.7834 11.3674 22.8889C11.2479 22.9193 11.121 22.8942 11.0222 22.8202C10.4464 22.3891 8.32825 20.7559 5.78624 18.2142C3.05004 15.4783 1.57131 13.5238 1.17424 12.9774C1.10259 12.879 1.07881 12.7542 1.10898 12.6364C1.21208 12.2327 1.50236 11.2381 2.08119 10.1887C2.27438 9.8389 2.49934 9.48274 2.76015 9.14028C2.82679 9.05291 2.92956 9.00167 3.03901 9.00001C3.1485 8.99902 3.2526 9.04888 3.32056 9.13426C3.36603 9.19185 7.95998 14.9367 14.8719 20.6829Z" fill="#8389AA"/>
<path d="M14.8718 20.6829C14.9549 20.7525 15.0021 20.8553 14.9997 20.9634C14.9977 21.0558 14.9602 21.1428 14.8959 21.2071C14.8846 21.2185 14.8728 21.2288 14.8598 21.2386C14.528 21.4913 14.1836 21.7105 13.8437 21.899C8.03585 17.1209 3.57854 11.9846 2.08105 10.1887C2.27424 9.8389 2.4992 9.48274 2.76001 9.14028C2.82665 9.05291 2.92942 9.00167 3.03887 9.00001C3.14837 8.99902 3.25246 9.04888 3.32043 9.13426C3.36594 9.19185 7.95989 14.9367 14.8718 20.6829Z" fill="#646D91"/>
<path d="M22.0572 10.8161C22.1516 10.8161 22.2417 10.7783 22.308 10.712C22.3174 10.7026 22.3261 10.6933 22.3341 10.6826C22.6748 10.256 22.9577 9.81178 23.1877 9.39696C23.7242 8.42777 23.971 7.61924 23.985 7.57169C24.0188 7.4602 23.9954 7.33901 23.9224 7.24794C20.429 2.88241 16.7823 0.0996574 16.7459 0.0718569C16.6555 0.00356332 16.538 -0.017512 16.4292 0.0149298C16.382 0.0293273 15.5837 0.272712 14.6226 0.802674C14.2029 1.03436 13.7519 1.32061 13.3188 1.6661C13.2334 1.73406 13.1839 1.83854 13.1856 1.94799C13.1869 2.05782 13.2388 2.16059 13.3262 2.22651C13.369 2.25933 17.6611 5.53553 21.7795 10.6828C21.847 10.7672 21.9494 10.8161 22.0572 10.8161Z" fill="#8389AA"/>
<path d="M22.0572 10.8161C22.1516 10.8161 22.2417 10.7783 22.308 10.712C22.3174 10.7026 22.3261 10.6933 22.3341 10.6826C22.6748 10.256 22.9577 9.8118 23.1877 9.39697C19.3283 4.4913 14.6226 0.802734 14.6226 0.802734C14.2029 1.03442 13.7519 1.32067 13.3188 1.66616C13.2334 1.73412 13.1839 1.8386 13.1856 1.94805C13.1869 2.05788 13.2388 2.16065 13.3262 2.22657C13.369 2.25939 17.6611 5.53559 21.7795 10.6829C21.847 10.7672 21.9494 10.8161 22.0572 10.8161Z" fill="#646D91"/>
<path d="M20.6829 14.8721C20.7525 14.9551 20.8553 15.0023 20.9634 14.9999C21.0558 14.9979 21.1428 14.9604 21.2071 14.8962C21.2185 14.8848 21.2288 14.873 21.2386 14.86C21.4913 14.5283 21.7105 14.1838 21.899 13.844C22.4881 12.786 22.7834 11.7783 22.8889 11.3675C22.9193 11.248 22.8942 11.1211 22.8202 11.0224C22.3891 10.4465 20.7559 8.32837 18.2142 5.78636C15.4783 3.05016 13.5238 1.57143 12.9774 1.17437C12.879 1.10271 12.7542 1.07893 12.6364 1.1091C12.2327 1.21221 11.2381 1.50248 10.1887 2.08132C9.8389 2.2745 9.48274 2.49946 9.14028 2.76027C9.05291 2.82691 9.00167 2.92968 9.00001 3.03913C8.99902 3.14863 9.04888 3.25272 9.13426 3.32069C9.19185 3.36615 14.9367 7.9601 20.6829 14.8721Z" fill="#8389AA"/>
<path d="M20.6829 14.872C20.7525 14.955 20.8553 15.0023 20.9634 14.9999C21.0558 14.9979 21.1428 14.9604 21.2071 14.8961C21.2185 14.8848 21.2288 14.873 21.2386 14.86C21.4913 14.5282 21.7105 14.1837 21.899 13.8439C17.1209 8.03604 11.9846 3.57872 10.1887 2.08124C9.8389 2.27442 9.48274 2.49938 9.14028 2.76019C9.05291 2.82683 9.00167 2.9296 9.00001 3.03905C8.99902 3.14855 9.04888 3.25265 9.13426 3.32061C9.19185 3.36612 14.9367 7.96007 20.6829 14.872Z" fill="#646D91"/>
</g>
</svg>
