<svg width="256" height="256" viewBox="0 0 256 256" fill="none" xmlns="http://www.w3.org/2000/svg">
<g clip-path="url(#clip0_82_5117)">
<path d="M147.753 139.422L145.742 141.433C144.909 142.267 143.558 142.267 142.725 141.433C141.892 140.6 141.892 139.25 142.725 138.416L144.736 136.405L145.742 137.411L143.731 139.422C143.453 139.7 143.453 140.15 143.731 140.428C144.008 140.705 144.459 140.705 144.736 140.428L146.748 138.416L147.753 139.422Z" fill="white"/>
<path d="M169.287 164.149L167.867 165.569C167.033 166.402 165.683 166.402 164.85 165.569C164.016 164.736 164.016 163.385 164.85 162.552L167.638 159.763L168.188 161.225L165.855 163.558C165.577 163.836 165.577 164.286 165.855 164.564C166.133 164.841 166.583 164.841 166.861 164.564L168.737 162.687L169.287 164.149Z" fill="white"/>
<path d="M184.12 203.622L182.951 204.79C182.118 205.623 180.768 205.623 179.934 204.79C179.101 203.957 179.101 202.606 179.934 201.773L182.472 199.236L183.021 200.698L180.94 202.779C180.662 203.057 180.662 203.507 180.94 203.785C181.218 204.062 181.668 204.062 181.946 203.785L183.571 202.16L184.12 203.622Z" fill="white"/>
<path fill-rule="evenodd" clip-rule="evenodd" d="M186.53 117.29C188.652 114.994 191.219 112.319 194.323 109.203L196.837 106.689C197.67 105.856 199.021 105.856 199.854 106.689L202.368 109.203L202.871 108.7C203.704 107.867 205.055 107.867 205.888 108.7L207.899 110.711C208.733 111.544 208.733 112.895 207.899 113.728L207.397 114.231L209.911 116.745C210.744 117.578 210.744 118.929 209.911 119.762L207.397 122.276C198.121 131.521 192.749 135.996 189.643 138.146L189.408 136.57C192.49 134.348 197.694 129.938 206.391 121.27L195.329 110.209C191.842 113.708 189.044 116.642 186.8 119.099L186.53 117.29ZM203.374 110.208L203.877 109.706C204.155 109.428 204.605 109.428 204.883 109.706L206.894 111.717C207.172 111.995 207.172 112.445 206.894 112.723L206.391 113.225L203.374 110.208ZM208.905 117.751C209.183 118.029 209.183 118.479 208.905 118.757L207.397 120.265L196.334 109.203L197.843 107.694C198.121 107.417 198.571 107.417 198.849 107.694L208.905 117.751Z" fill="white"/>
<path d="M187.764 125.558L195.019 118.303C195.853 117.47 197.203 117.47 198.036 118.303C198.87 119.136 198.87 120.487 198.036 121.32L188.548 130.809L188.287 129.059L197.031 120.315C197.309 120.037 197.309 119.587 197.031 119.309C196.753 119.031 196.303 119.031 196.025 119.309L188.026 127.309L187.764 125.558Z" fill="white"/>
<path fill-rule="evenodd" clip-rule="evenodd" d="M185.434 90.6788L140.211 135.902L164.917 160.609L193.592 236.912C194.683 239.815 198.409 240.621 200.603 238.428L205.072 233.958C206.028 233.002 206.475 231.649 206.275 230.312L185.434 90.6788ZM183.454 96.6815L203.462 230.732C203.528 231.177 203.38 231.628 203.061 231.947L198.591 236.417C197.86 237.148 196.618 236.879 196.254 235.911L167.472 159.321C167.401 159.131 167.29 158.958 167.146 158.815L144.233 135.902L183.454 96.6815Z" fill="white"/>
<g opacity="0.25">
<path fill-rule="evenodd" clip-rule="evenodd" d="M176.72 98.8177L200.09 229.89L203.065 226.915L202.059 225.909L201.011 226.957L198.272 211.594L201.556 208.31L200.551 207.304L197.968 209.887L195.229 194.524L199.042 190.711L198.036 189.705L194.925 192.817L192.49 179.161L197.031 174.62L196.025 173.615L192.185 177.454L189.142 160.385L194.014 155.513L193.008 154.507L188.838 158.678L185.49 139.901L190.997 134.394L189.991 133.388L185.186 138.194L183.055 126.245L188.985 120.315L187.98 119.309L182.751 124.538L178.12 98.568L176.72 98.8177Z" fill="white"/>
<path fill-rule="evenodd" clip-rule="evenodd" d="M171.386 154.004L154.29 136.908L148.759 142.439L149.765 143.445L154.29 138.919L169.375 154.004L164.85 158.53L165.855 159.535L171.386 154.004ZM175.72 159.728L168.369 167.078L169.375 168.084L175.098 162.36L185.658 194.039L180.94 198.756L181.946 199.762L187.285 194.423L175.72 159.728ZM188.291 201.463L183.454 206.299L184.46 207.304L187.669 204.095L196.72 231.248L195.019 232.949L196.025 233.955L198.347 231.632L188.291 201.463Z" fill="white"/>
</g>
<path d="M116.578 108.247L114.567 110.258C113.734 111.091 113.734 112.442 114.567 113.275C115.4 114.108 116.751 114.108 117.584 113.275L119.595 111.264L118.589 110.258L116.578 112.269C116.3 112.547 115.85 112.547 115.572 112.269C115.295 111.992 115.295 111.541 115.572 111.264L117.584 109.252L116.578 108.247Z" fill="white"/>
<path d="M91.8508 86.7135L90.4308 88.1335C89.5977 88.9666 89.5977 90.3174 90.4308 91.1505C91.2639 91.9836 92.6147 91.9836 93.4478 91.1505L96.2367 88.3617L94.7747 87.8123L92.4421 90.1449C92.1644 90.4226 91.7142 90.4226 91.4365 90.1449C91.1588 89.8672 91.1588 89.4169 91.4365 89.1392L93.3128 87.2629L91.8508 86.7135Z" fill="white"/>
<path d="M52.3786 71.88L51.21 73.0486C50.3768 73.8817 50.3768 75.2325 51.21 76.0656C52.0431 76.8987 53.3938 76.8987 54.2269 76.0656L56.7644 73.5281L55.3024 72.9788L53.2213 75.0599C52.9436 75.3376 52.4933 75.3376 52.2156 75.0599C51.9379 74.7822 51.9379 74.332 52.2156 74.0543L53.8405 72.4294L52.3786 71.88Z" fill="white"/>
<path fill-rule="evenodd" clip-rule="evenodd" d="M138.71 69.4698C141.007 67.3483 143.682 64.7814 146.797 61.6766L149.311 59.1629C150.145 58.3297 150.145 56.979 149.311 56.1459L146.797 53.6317L147.3 53.1289C148.133 52.2958 148.133 50.945 147.3 50.1119L145.289 48.1006C144.456 47.2674 143.105 47.2674 142.272 48.1006L141.769 48.6034L139.255 46.0892C138.422 45.2561 137.071 45.2561 136.238 46.0892L133.724 48.6034C124.479 57.8792 120.004 63.2515 117.855 66.3571L119.43 66.5922C121.652 63.5096 126.062 58.3065 134.73 49.6095L145.791 60.6709C142.292 64.1582 139.359 66.9562 136.901 69.1998L138.71 69.4698ZM145.792 52.626L146.294 52.1232C146.572 51.8455 146.572 51.3953 146.294 51.1176L144.283 49.1062C144.005 48.8285 143.555 48.8285 143.277 49.1062L142.775 49.6091L145.792 52.626ZM138.249 47.0949C137.971 46.8172 137.521 46.8172 137.244 47.0949L135.735 48.6034L146.797 59.6657L148.306 58.1572C148.584 57.8795 148.584 57.4292 148.306 57.1515L138.249 47.0949Z" fill="white"/>
<path d="M130.442 68.2357L137.697 60.9806C138.53 60.1475 138.53 58.7967 137.697 57.9636C136.864 57.1305 135.513 57.1305 134.68 57.9636L125.191 67.4521L126.941 67.7133L135.686 58.9693C135.963 58.6916 136.413 58.6916 136.691 58.9693C136.969 59.247 136.969 59.6972 136.691 59.9749L128.692 67.9745L130.442 68.2357Z" fill="white"/>
<path fill-rule="evenodd" clip-rule="evenodd" d="M165.321 70.5657L120.098 115.789L95.3911 91.0826L19.0883 62.4083C16.1848 61.3171 15.3789 57.5907 17.5722 55.3973L22.0417 50.9279C22.9979 49.9716 24.351 49.5253 25.6885 49.725L165.321 70.5657ZM159.319 72.5457L25.2686 52.5383C24.8228 52.4717 24.3718 52.6205 24.053 52.9392L19.5836 57.4087C18.8525 58.1398 19.1211 59.3819 20.0889 59.7456L96.6796 88.5281C96.8694 88.5994 97.0417 88.7105 97.185 88.8538L120.098 111.767L159.319 72.5457Z" fill="white"/>
<g opacity="0.25">
<path fill-rule="evenodd" clip-rule="evenodd" d="M157.182 79.2797L26.1102 55.9103L29.0853 52.9353L30.0909 53.9409L29.0433 54.9886L44.4061 57.7277L47.69 54.4438L48.6957 55.4494L46.1131 58.032L61.4759 60.7711L65.2891 56.9579L66.2948 57.9636L63.1829 61.0755L76.8387 63.5102L81.3797 58.9692L82.3854 59.9749L78.5457 63.8146L95.6155 66.858L100.487 61.9862L101.493 62.9919L97.3225 67.1624L116.099 70.5102L121.606 65.0032L122.612 66.0089L117.806 70.8145L129.755 72.9449L135.686 67.0145L136.691 68.0202L131.462 73.2493L157.432 77.8796L157.182 79.2797Z" fill="white"/>
<path fill-rule="evenodd" clip-rule="evenodd" d="M101.996 84.6136L119.092 101.71L113.561 107.241L112.555 106.235L117.081 101.71L101.996 86.625L97.4703 91.1504L96.4647 90.1448L101.996 84.6136ZM96.2726 80.2802L88.9222 87.6306L87.9165 86.625L93.6398 80.9018L61.9614 70.3423L57.2438 75.0598L56.2382 74.0542L61.5772 68.7151L96.2726 80.2802ZM54.5376 67.7094L49.7013 72.5457L48.6957 71.54L51.9047 68.331L24.7518 59.28L23.0513 60.9806L22.0456 59.9749L24.3677 57.6528L54.5376 67.7094Z" fill="white"/>
</g>
<path fill-rule="evenodd" clip-rule="evenodd" d="M100.552 174.506L97.333 231.373L84.3421 237.278L60.8196 198.787L100.552 174.506ZM97.4054 179.762L64.73 199.731L85.4566 233.647L94.5903 229.495L97.4054 179.762Z" fill="white"/>
<path fill-rule="evenodd" clip-rule="evenodd" d="M79.0932 196.098L65.8144 204.041L66.5142 205.279L78.3769 198.136L89.8998 226.944L82.4397 230.674L83.0757 231.946L91.7063 227.63L79.0932 196.098Z" fill="white"/>
<path fill-rule="evenodd" clip-rule="evenodd" d="M81.4351 155.389L24.5678 158.608L18.6629 171.599L57.1542 195.121L81.4351 155.389ZM76.1786 158.536L56.2103 191.211L22.294 170.484L26.4456 161.351L76.1786 158.536Z" fill="white"/>
<path fill-rule="evenodd" clip-rule="evenodd" d="M59.8431 176.848L51.9005 190.127L50.6623 189.427L57.8046 177.564L28.9974 166.041L25.2674 173.501L23.9953 172.865L28.3106 164.235L59.8431 176.848Z" fill="white"/>
<path fill-rule="evenodd" clip-rule="evenodd" d="M217.129 63.0064L116.645 163.491C109.428 170.708 101.391 177.056 92.699 182.405L58.2905 203.579C54.4637 205.934 50.0657 201.536 52.4206 197.709L73.5951 163.301C78.9442 154.609 85.2919 146.572 92.5089 139.355L192.993 38.8705C202.252 29.6119 214.172 23.4776 227.088 21.3251C231.55 20.5813 235.419 24.45 234.675 28.9123C232.522 41.8277 226.388 53.7478 217.129 63.0064ZM227.555 24.1308C215.225 26.1859 203.844 32.0425 195.005 40.8818L94.5202 141.366C87.4602 148.426 81.2504 156.288 76.0176 164.792L54.8431 199.2C54.0581 200.476 55.5241 201.942 56.7998 201.157L91.2082 179.982C99.7115 174.75 107.573 168.54 114.633 161.48L215.118 60.9951C223.957 52.1557 229.814 40.7753 231.869 28.4447C232.292 25.9075 230.092 23.7079 227.555 24.1308Z" fill="white"/>
<path fill-rule="evenodd" clip-rule="evenodd" d="M221.745 26.916C223.614 26.8078 225.636 27.2348 227.201 28.7992C228.765 30.3636 229.192 32.3855 229.084 34.2547C228.976 36.1161 228.338 37.8957 227.676 39.1097C227.299 39.8015 226.496 40.0408 225.82 39.8155C224.964 39.5303 224.55 38.6313 224.742 37.8241C224.982 36.8168 225.135 35.5694 225.065 34.4246C224.994 33.2528 224.698 32.3309 224.184 31.8162C223.669 31.3014 222.747 31.0062 221.575 30.9349C220.43 30.8653 219.183 31.0181 218.176 31.2579C217.369 31.45 216.47 31.0358 216.184 30.1801C215.959 29.5041 216.198 28.7009 216.89 28.3238C218.104 27.6622 219.884 27.0238 221.745 26.916ZM221.827 28.3359C220.214 28.4292 218.637 28.9913 217.571 29.5726C217.554 29.5818 217.541 29.5955 217.532 29.6203C217.522 29.6475 217.519 29.6868 217.534 29.7304C217.563 29.8194 217.685 29.9127 217.846 29.8743C218.959 29.6095 220.349 29.4355 221.662 29.5153C222.947 29.5936 224.303 29.9242 225.189 30.8105C226.076 31.6967 226.406 33.0525 226.485 34.3382C226.564 35.6509 226.39 37.0407 226.126 38.1534C226.087 38.315 226.18 38.4366 226.27 38.4663C226.313 38.4808 226.352 38.4777 226.38 38.4679C226.404 38.459 226.418 38.4458 226.427 38.4291C227.009 37.3625 227.571 35.7859 227.664 34.1725C227.757 32.5668 227.386 30.9953 226.195 29.8048C225.005 28.6143 223.433 28.2429 221.827 28.3359Z" fill="white"/>
<path fill-rule="evenodd" clip-rule="evenodd" d="M202.724 70.3715C203.28 70.927 203.28 71.8275 202.724 72.3829L202.217 72.8908C201.661 73.4462 200.761 73.4462 200.205 72.8908C199.65 72.3354 199.65 71.4349 200.205 70.8795L200.713 70.3716C201.269 69.8161 202.169 69.8161 202.724 70.3715ZM198.153 74.9427C198.709 75.4982 198.709 76.3987 198.153 76.9541L197.645 77.462C197.09 78.0174 196.189 78.0174 195.634 77.462C195.079 76.9066 195.079 76.0061 195.634 75.4507L196.142 74.9427C196.697 74.3873 197.598 74.3873 198.153 74.9427ZM193.582 79.5139C194.138 80.0693 194.138 80.9699 193.582 81.5253L193.074 82.0332C192.519 82.5886 191.618 82.5886 191.063 82.0332C190.507 81.4778 190.507 80.5773 191.063 80.0218L191.571 79.5139C192.126 78.9585 193.027 78.9585 193.582 79.5139ZM189.011 84.0851C189.566 84.6405 189.566 85.541 189.011 86.0965L188.503 86.6044C187.948 87.1598 187.047 87.1598 186.492 86.6044C185.936 86.049 185.936 85.1485 186.492 84.593L187 84.0851C187.555 83.5297 188.455 83.5297 189.011 84.0851ZM184.44 88.6563C184.995 89.2117 184.995 90.1122 184.44 90.6676L183.932 91.1756C183.376 91.731 182.476 91.731 181.92 91.1756C181.365 90.6202 181.365 89.7197 181.92 89.1642L182.428 88.6563C182.984 88.1009 183.884 88.1009 184.44 88.6563ZM179.869 93.2275C180.424 93.7829 180.424 94.6834 179.869 95.2388L179.361 95.7468C178.805 96.3022 177.905 96.3022 177.349 95.7468C176.794 95.1913 176.794 94.2908 177.349 93.7354L177.857 93.2275C178.413 92.6721 179.313 92.6721 179.869 93.2275ZM175.297 97.7987C175.853 98.3541 175.853 99.2546 175.297 99.81L174.789 100.318C174.234 100.873 173.333 100.873 172.778 100.318C172.223 99.7625 172.223 98.862 172.778 98.3066L173.286 97.7987C173.841 97.2433 174.742 97.2433 175.297 97.7987ZM170.726 102.37C171.282 102.925 171.282 103.826 170.726 104.381L170.218 104.889C169.663 105.445 168.762 105.445 168.207 104.889C167.651 104.334 167.651 103.433 168.207 102.878L168.715 102.37C169.27 101.814 170.171 101.814 170.726 102.37ZM166.155 106.941C166.71 107.497 166.71 108.397 166.155 108.952L165.647 109.46C165.092 110.016 164.191 110.016 163.636 109.46C163.08 108.905 163.08 108.004 163.636 107.449L164.144 106.941C164.699 106.386 165.6 106.386 166.155 106.941ZM161.584 111.512C162.139 112.068 162.139 112.968 161.584 113.524L161.076 114.032C160.52 114.587 159.62 114.587 159.064 114.032C158.509 113.476 158.509 112.576 159.064 112.02L159.572 111.512C160.128 110.957 161.028 110.957 161.584 111.512ZM157.013 116.083C157.568 116.639 157.568 117.539 157.013 118.095L156.505 118.603C155.949 119.158 155.049 119.158 154.493 118.603C153.938 118.047 153.938 117.147 154.493 116.591L155.001 116.083C155.557 115.528 156.457 115.528 157.013 116.083ZM152.441 120.655C152.997 121.21 152.997 122.111 152.441 122.666L151.933 123.174C151.378 123.729 150.478 123.729 149.922 123.174C149.367 122.619 149.367 121.718 149.922 121.163L150.43 120.655C150.985 120.099 151.886 120.099 152.441 120.655ZM147.87 125.226C148.426 125.781 148.426 126.682 147.87 127.237L147.362 127.745C146.807 128.301 145.906 128.301 145.351 127.745C144.795 127.19 144.795 126.289 145.351 125.734L145.859 125.226C146.414 124.67 147.315 124.67 147.87 125.226ZM143.299 129.797C143.854 130.352 143.854 131.253 143.299 131.808L142.791 132.316C142.236 132.872 141.335 132.872 140.78 132.316C140.224 131.761 140.224 130.86 140.78 130.305L141.288 129.797C141.843 129.242 142.744 129.242 143.299 129.797ZM138.728 134.368C139.283 134.924 139.283 135.824 138.728 136.38L138.22 136.888C137.664 137.443 136.764 137.443 136.209 136.888C135.653 136.332 135.653 135.432 136.209 134.876L136.716 134.368C137.272 133.813 138.172 133.813 138.728 134.368ZM134.157 138.939C134.712 139.495 134.712 140.395 134.157 140.951L133.649 141.459C133.093 142.014 132.193 142.014 131.637 141.459C131.082 140.903 131.082 140.003 131.637 139.447L132.145 138.939C132.701 138.384 133.601 138.384 134.157 138.939ZM120.443 152.653C120.998 153.208 120.998 154.109 120.443 154.664L119.935 155.172C119.38 155.728 118.479 155.728 117.924 155.172C117.368 154.617 117.368 153.716 117.924 153.161L118.432 152.653C118.987 152.098 119.888 152.098 120.443 152.653ZM115.872 157.224C116.427 157.78 116.427 158.68 115.872 159.236L115.364 159.743C114.808 160.299 113.908 160.299 113.353 159.743C112.797 159.188 112.797 158.288 113.353 157.732L113.86 157.224C114.416 156.669 115.316 156.669 115.872 157.224Z" fill="white"/>
<path fill-rule="evenodd" clip-rule="evenodd" d="M185.628 53.2753C186.184 53.8307 186.184 54.7312 185.628 55.2866L185.12 55.7945C184.565 56.3499 183.664 56.3499 183.109 55.7945C182.554 55.2391 182.554 54.3386 183.109 53.7832L183.617 53.2753C184.172 52.7199 185.073 52.7199 185.628 53.2753ZM181.057 57.8465C181.612 58.4019 181.612 59.3024 181.057 59.8578L180.549 60.3657C179.994 60.9211 179.093 60.9211 178.538 60.3657C177.982 59.8103 177.982 58.9098 178.538 58.3544L179.046 57.8465C179.601 57.2911 180.502 57.2911 181.057 57.8465ZM176.486 62.4177C177.041 62.9731 177.041 63.8736 176.486 64.429L175.978 64.9369C175.422 65.4923 174.522 65.4923 173.967 64.9369C173.411 64.3815 173.411 63.481 173.967 62.9256L174.474 62.4177C175.03 61.8623 175.93 61.8623 176.486 62.4177ZM171.915 66.9889C172.47 67.5443 172.47 68.4448 171.915 69.0002L171.407 69.5081C170.851 70.0635 169.951 70.0635 169.395 69.5081C168.84 68.9527 168.84 68.0522 169.395 67.4968L169.903 66.9889C170.459 66.4335 171.359 66.4335 171.915 66.9889ZM167.343 71.5601C167.899 72.1155 167.899 73.016 167.343 73.5714L166.836 74.0793C166.28 74.6347 165.38 74.6347 164.824 74.0793C164.269 73.5239 164.269 72.6234 164.824 72.068L165.332 71.5601C165.888 71.0046 166.788 71.0046 167.343 71.5601ZM162.772 76.1313C163.328 76.6867 163.328 77.5872 162.772 78.1426L162.264 78.6505C161.709 79.2059 160.808 79.2059 160.253 78.6505C159.698 78.0951 159.698 77.1946 160.253 76.6392L160.761 76.1313C161.316 75.5758 162.217 75.5758 162.772 76.1313ZM158.201 80.7024C158.756 81.2579 158.756 82.1584 158.201 82.7138L157.693 83.2217C157.138 83.7771 156.237 83.7771 155.682 83.2217C155.126 82.6663 155.126 81.7658 155.682 81.2104L156.19 80.7024C156.745 80.147 157.646 80.147 158.201 80.7024ZM153.63 85.2736C154.185 85.8291 154.185 86.7296 153.63 87.285L153.122 87.7929C152.567 88.3483 151.666 88.3483 151.111 87.7929C150.555 87.2375 150.555 86.337 151.111 85.7816L151.619 85.2736C152.174 84.7182 153.074 84.7182 153.63 85.2736ZM149.059 89.8448C149.614 90.4002 149.614 91.3007 149.059 91.8562L148.551 92.3641C147.995 92.9195 147.095 92.9195 146.539 92.3641C145.984 91.8087 145.984 90.9082 146.539 90.3527L147.047 89.8448C147.603 89.2894 148.503 89.2894 149.059 89.8448ZM144.487 94.416C145.043 94.9714 145.043 95.8719 144.487 96.4274L143.98 96.9353C143.424 97.4907 142.524 97.4907 141.968 96.9353C141.413 96.3799 141.413 95.4794 141.968 94.9239L142.476 94.416C143.032 93.8606 143.932 93.8606 144.487 94.416ZM139.916 98.9872C140.472 99.5426 140.472 100.443 139.916 100.999L139.408 101.506C138.853 102.062 137.952 102.062 137.397 101.506C136.842 100.951 136.842 100.051 137.397 99.4951L137.905 98.9872C138.46 98.4318 139.361 98.4318 139.916 98.9872ZM135.345 103.558C135.9 104.114 135.9 105.014 135.345 105.57L134.837 106.078C134.282 106.633 133.381 106.633 132.826 106.078C132.27 105.522 132.27 104.622 132.826 104.066L133.334 103.558C133.889 103.003 134.79 103.003 135.345 103.558ZM130.774 108.13C131.329 108.685 131.329 109.586 130.774 110.141L130.266 110.649C129.711 111.204 128.81 111.204 128.255 110.649C127.699 110.093 127.699 109.193 128.255 108.638L128.763 108.13C129.318 107.574 130.218 107.574 130.774 108.13ZM126.203 112.701C126.758 113.256 126.758 114.157 126.203 114.712L125.695 115.22C125.139 115.775 124.239 115.775 123.683 115.22C123.128 114.665 123.128 113.764 123.683 113.209L124.191 112.701C124.747 112.145 125.647 112.145 126.203 112.701ZM121.631 117.272C122.187 117.827 122.187 118.728 121.631 119.283L121.124 119.791C120.568 120.347 119.668 120.347 119.112 119.791C118.557 119.236 118.557 118.335 119.112 117.78L119.62 117.272C120.176 116.717 121.076 116.717 121.631 117.272ZM117.06 121.843C117.616 122.399 117.616 123.299 117.06 123.855L116.552 124.362C115.997 124.918 115.096 124.918 114.541 124.362C113.986 123.807 113.986 122.907 114.541 122.351L115.049 121.843C115.604 121.288 116.505 121.288 117.06 121.843ZM103.347 135.557C103.902 136.112 103.902 137.013 103.347 137.568L102.839 138.076C102.283 138.631 101.383 138.631 100.827 138.076C100.272 137.521 100.272 136.62 100.827 136.065L101.335 135.557C101.891 135.001 102.791 135.001 103.347 135.557ZM98.7755 140.128C99.3309 140.683 99.3309 141.584 98.7755 142.139L98.2676 142.647C97.7122 143.203 96.8117 143.203 96.2563 142.647C95.7009 142.092 95.7009 141.191 96.2563 140.636L96.7642 140.128C97.3196 139.573 98.2201 139.573 98.7755 140.128Z" fill="white"/>
<path fill-rule="evenodd" clip-rule="evenodd" d="M89.6877 163.816C88.8206 164.216 88.1158 164.872 87.9919 164.991L87.9884 164.995L87.9788 165.005L58.8128 197.137C58.8002 197.151 58.8007 197.173 58.814 197.186C58.8273 197.199 58.8487 197.2 58.8626 197.187L90.9946 168.021L91.005 168.012L91.0085 168.008C91.1281 167.884 91.7839 167.179 92.1836 166.312C92.5854 165.441 92.6409 164.639 92.0008 163.999C91.3608 163.359 90.5591 163.415 89.6877 163.816ZM89.0922 162.525C90.1762 162.025 91.7371 161.724 93.0065 162.993C94.2759 164.263 93.9749 165.824 93.4752 166.908C92.9735 167.996 92.1828 168.839 92.0319 168.996C92.0012 169.028 91.974 169.053 91.9505 169.074L59.8184 198.24C59.2427 198.763 58.3581 198.741 57.8083 198.192C57.2585 197.642 57.2371 196.757 57.7597 196.182L86.9257 164.049C86.9471 164.026 86.9724 163.999 87.0043 163.968C87.1607 163.817 88.0039 163.026 89.0922 162.525Z" fill="white"/>
<path fill-rule="evenodd" clip-rule="evenodd" d="M129.149 146.964L128.143 145.959C127.587 145.403 126.687 145.403 126.132 145.959L124.12 147.97C123.565 148.526 123.565 149.426 124.12 149.981L125.126 150.987L129.149 146.964ZM129.149 144.953C128.038 143.842 126.237 143.842 125.126 144.953L123.115 146.964C122.004 148.075 122.004 149.876 123.115 150.987L125.126 152.998L131.16 146.964L129.149 144.953Z" fill="white"/>
<path fill-rule="evenodd" clip-rule="evenodd" d="M109.035 126.851L110.041 127.857C110.596 128.412 110.596 129.313 110.041 129.868L108.03 131.88C107.474 132.435 106.574 132.435 106.018 131.88L105.013 130.874L109.035 126.851ZM111.047 126.851C112.157 127.962 112.157 129.763 111.047 130.874L109.035 132.885C107.924 133.996 106.123 133.996 105.013 132.885L103.001 130.874L109.035 124.84L111.047 126.851Z" fill="white"/>
<path fill-rule="evenodd" clip-rule="evenodd" d="M212.619 63.4944L211.613 62.4888C211.058 61.9334 210.157 61.9334 209.602 62.4888L207.59 64.5001C207.035 65.0555 207.035 65.956 207.59 66.5114L208.596 67.5171L212.619 63.4944ZM212.619 61.4831C211.508 60.3723 209.707 60.3723 208.596 61.4831L206.585 63.4944C205.474 64.6053 205.474 66.4063 206.585 67.5171L208.596 69.5284L214.63 63.4944L212.619 61.4831Z" fill="white"/>
<path fill-rule="evenodd" clip-rule="evenodd" d="M192.505 43.3812L193.511 44.3868C194.066 44.9423 194.066 45.8428 193.511 46.3982L191.5 48.4095C190.944 48.9649 190.044 48.9649 189.488 48.4095L188.483 47.4038L192.505 43.3812ZM194.517 43.3812C195.627 44.492 195.627 46.293 194.517 47.4038L192.505 49.4152C191.395 50.526 189.593 50.526 188.483 49.4152L186.471 47.4038L192.505 41.3699L194.517 43.3812Z" fill="white"/>
</g>
<defs>
<clipPath id="clip0_82_5117">
<rect width="256" height="256" fill="white"/>
</clipPath>
</defs>
</svg>
