<svg width="116" height="116" viewBox="0 0 116 116" fill="none" xmlns="http://www.w3.org/2000/svg">
<path d="M34.9949 53.24C33.8483 53.24 32.8803 52.9867 32.0909 52.48C31.3016 51.968 30.7043 51.2613 30.2989 50.36C29.8936 49.4587 29.6909 48.4187 29.6909 47.24C29.6909 46.0613 29.8936 45.0213 30.2989 44.12C30.7043 43.2187 31.3016 42.5147 32.0909 42.008C32.8803 41.496 33.8483 41.24 34.9949 41.24C36.3336 41.24 37.4269 41.584 38.2749 42.272C39.1229 42.9547 39.7043 43.872 40.0189 45.024L38.8189 45.336C38.5736 44.424 38.1336 43.7013 37.4989 43.168C36.8643 42.6347 36.0296 42.368 34.9949 42.368C34.0936 42.368 33.3443 42.5733 32.7469 42.984C32.1496 43.3947 31.6989 43.968 31.3949 44.704C31.0963 45.4347 30.9416 46.28 30.9309 47.24C30.9256 48.2 31.0723 49.0453 31.3709 49.776C31.6749 50.5067 32.1283 51.08 32.7309 51.496C33.3389 51.9067 34.0936 52.112 34.9949 52.112C36.0296 52.112 36.8643 51.8453 37.4989 51.312C38.1336 50.7733 38.5736 50.0507 38.8189 49.144L40.0189 49.456C39.7043 50.608 39.1229 51.528 38.2749 52.216C37.4269 52.8987 36.3336 53.24 34.9949 53.24ZM48.0241 53V48.592C48.0241 48.112 47.9787 47.672 47.8881 47.272C47.7974 46.8667 47.6507 46.5147 47.4481 46.216C47.2507 45.912 46.9921 45.6773 46.6721 45.512C46.3574 45.3467 45.9734 45.264 45.5201 45.264C45.1041 45.264 44.7361 45.336 44.4161 45.48C44.1014 45.624 43.8347 45.832 43.6161 46.104C43.4027 46.3707 43.2401 46.696 43.1281 47.08C43.0161 47.464 42.9601 47.9013 42.9601 48.392L42.1281 48.208C42.1281 47.3227 42.2827 46.5787 42.5921 45.976C42.9014 45.3733 43.3281 44.9173 43.8721 44.608C44.4161 44.2987 45.0401 44.144 45.7441 44.144C46.2614 44.144 46.7121 44.224 47.0961 44.384C47.4854 44.544 47.8134 44.76 48.0801 45.032C48.3521 45.304 48.5707 45.616 48.7361 45.968C48.9014 46.3147 49.0214 46.6853 49.0961 47.08C49.1707 47.4693 49.2081 47.8587 49.2081 48.248V53H48.0241ZM41.7761 53V41.48H42.8401V47.984H42.9601V53H41.7761ZM54.8921 53.24C54.0334 53.24 53.3001 53.0453 52.6921 52.656C52.0841 52.2667 51.6174 51.728 51.2921 51.04C50.9667 50.352 50.8041 49.5627 50.8041 48.672C50.8041 47.7653 50.9694 46.9707 51.3001 46.288C51.6307 45.6053 52.1001 45.0747 52.7081 44.696C53.3214 44.312 54.0494 44.12 54.8921 44.12C55.7561 44.12 56.4921 44.3147 57.1001 44.704C57.7134 45.088 58.1801 45.624 58.5001 46.312C58.8254 46.9947 58.9881 47.7813 58.9881 48.672C58.9881 49.5787 58.8254 50.376 58.5001 51.064C58.1747 51.7467 57.7054 52.28 57.0921 52.664C56.4787 53.048 55.7454 53.24 54.8921 53.24ZM54.8921 52.112C55.8521 52.112 56.5667 51.7947 57.0361 51.16C57.5054 50.52 57.7401 49.6907 57.7401 48.672C57.7401 47.6267 57.5027 46.7947 57.0281 46.176C56.5587 45.5573 55.8467 45.248 54.8921 45.248C54.2467 45.248 53.7134 45.3947 53.2921 45.688C52.8761 45.976 52.5641 46.3787 52.3561 46.896C52.1534 47.408 52.0521 48 52.0521 48.672C52.0521 49.712 52.2921 50.5467 52.7721 51.176C53.2521 51.8 53.9587 52.112 54.8921 52.112ZM64.3608 53.24C63.5021 53.24 62.7688 53.0453 62.1608 52.656C61.5528 52.2667 61.0861 51.728 60.7608 51.04C60.4355 50.352 60.2728 49.5627 60.2728 48.672C60.2728 47.7653 60.4381 46.9707 60.7688 46.288C61.0995 45.6053 61.5688 45.0747 62.1768 44.696C62.7901 44.312 63.5181 44.12 64.3608 44.12C65.2248 44.12 65.9608 44.3147 66.5688 44.704C67.1821 45.088 67.6488 45.624 67.9688 46.312C68.2941 46.9947 68.4568 47.7813 68.4568 48.672C68.4568 49.5787 68.2941 50.376 67.9688 51.064C67.6435 51.7467 67.1741 52.28 66.5608 52.664C65.9475 53.048 65.2141 53.24 64.3608 53.24ZM64.3608 52.112C65.3208 52.112 66.0355 51.7947 66.5048 51.16C66.9741 50.52 67.2088 49.6907 67.2088 48.672C67.2088 47.6267 66.9715 46.7947 66.4968 46.176C66.0275 45.5573 65.3155 45.248 64.3608 45.248C63.7155 45.248 63.1821 45.3947 62.7608 45.688C62.3448 45.976 62.0328 46.3787 61.8248 46.896C61.6221 47.408 61.5208 48 61.5208 48.672C61.5208 49.712 61.7608 50.5467 62.2408 51.176C62.7208 51.8 63.4275 52.112 64.3608 52.112ZM73.3674 53.232C72.3541 53.232 71.5194 53.0133 70.8634 52.576C70.2128 52.1387 69.8128 51.5307 69.6634 50.752L70.8634 50.552C70.9914 51.0427 71.2821 51.4347 71.7354 51.728C72.1941 52.016 72.7594 52.16 73.4314 52.16C74.0874 52.16 74.6048 52.024 74.9834 51.752C75.3621 51.4747 75.5514 51.0987 75.5514 50.624C75.5514 50.3573 75.4901 50.1413 75.3674 49.976C75.2501 49.8053 75.0074 49.648 74.6394 49.504C74.2714 49.36 73.7221 49.1893 72.9914 48.992C72.2074 48.7787 71.5941 48.5653 71.1514 48.352C70.7088 48.1387 70.3941 47.8933 70.2074 47.616C70.0208 47.3333 69.9274 46.9893 69.9274 46.584C69.9274 46.0933 70.0661 45.664 70.3434 45.296C70.6208 44.9227 71.0048 44.6347 71.4954 44.432C71.9861 44.224 72.5568 44.12 73.2074 44.12C73.8581 44.12 74.4394 44.2267 74.9514 44.44C75.4688 44.648 75.8848 44.9413 76.1994 45.32C76.5141 45.6987 76.7008 46.1387 76.7594 46.64L75.5594 46.856C75.4794 46.3493 75.2261 45.9493 74.7994 45.656C74.3781 45.3573 73.8421 45.2027 73.1914 45.192C72.5781 45.176 72.0794 45.2933 71.6954 45.544C71.3114 45.7893 71.1194 46.1173 71.1194 46.528C71.1194 46.7573 71.1888 46.9547 71.3274 47.12C71.4661 47.28 71.7168 47.432 72.0794 47.576C72.4474 47.72 72.9701 47.8773 73.6474 48.048C74.4421 48.2507 75.0661 48.464 75.5194 48.688C75.9728 48.912 76.2954 49.176 76.4874 49.48C76.6794 49.784 76.7754 50.16 76.7754 50.608C76.7754 51.424 76.4714 52.0667 75.8634 52.536C75.2608 53 74.4288 53.232 73.3674 53.232ZM82.2057 53.24C81.363 53.24 80.6324 53.0533 80.0137 52.68C79.4004 52.3067 78.923 51.7813 78.5817 51.104C78.2404 50.4267 78.0697 49.632 78.0697 48.72C78.0697 47.776 78.2377 46.96 78.5737 46.272C78.9097 45.584 79.3817 45.0533 79.9897 44.68C80.603 44.3067 81.3257 44.12 82.1577 44.12C83.011 44.12 83.739 44.3173 84.3417 44.712C84.9444 45.1013 85.4004 45.6613 85.7097 46.392C86.019 47.1227 86.1604 47.9947 86.1337 49.008H84.9337V48.592C84.9124 47.472 84.6697 46.6267 84.2057 46.056C83.747 45.4853 83.075 45.2 82.1897 45.2C81.2617 45.2 80.5497 45.5013 80.0537 46.104C79.563 46.7067 79.3177 47.5653 79.3177 48.68C79.3177 49.768 79.563 50.6133 80.0537 51.216C80.5497 51.8133 81.251 52.112 82.1577 52.112C82.7764 52.112 83.315 51.9707 83.7737 51.688C84.2377 51.4 84.603 50.9867 84.8697 50.448L85.9657 50.872C85.6244 51.624 85.1204 52.208 84.4537 52.624C83.7924 53.0347 83.043 53.24 82.2057 53.24ZM78.9017 49.008V48.024H85.5017V49.008H78.9017ZM41 75.24C40.2053 75.24 39.5333 75.04 38.984 74.64C38.4347 74.2347 38.0187 73.688 37.736 73C37.4533 72.3067 37.312 71.5307 37.312 70.672C37.312 69.7973 37.4533 69.0187 37.736 68.336C38.024 67.648 38.4453 67.1067 39 66.712C39.5547 66.3173 40.2373 66.12 41.048 66.12C41.8373 66.12 42.5147 66.32 43.08 66.72C43.6453 67.12 44.0773 67.664 44.376 68.352C44.68 69.04 44.832 69.8133 44.832 70.672C44.832 71.536 44.68 72.312 44.376 73C44.072 73.688 43.6347 74.2347 43.064 74.64C42.4933 75.04 41.8053 75.24 41 75.24ZM37.112 78.84V66.36H38.168V72.864H38.296V78.84H37.112ZM40.88 74.144C41.4827 74.144 41.984 73.992 42.384 73.688C42.784 73.384 43.0827 72.9707 43.28 72.448C43.4827 71.92 43.584 71.328 43.584 70.672C43.584 70.0213 43.4853 69.4347 43.288 68.912C43.0907 68.3893 42.7893 67.976 42.384 67.672C41.984 67.368 41.4747 67.216 40.856 67.216C40.2533 67.216 39.752 67.3627 39.352 67.656C38.9573 67.9493 38.6613 68.3573 38.464 68.88C38.2667 69.3973 38.168 69.9947 38.168 70.672C38.168 71.3387 38.2667 71.936 38.464 72.464C38.6613 72.9867 38.96 73.3973 39.36 73.696C39.76 73.9947 40.2667 74.144 40.88 74.144ZM52.8288 75V70.592C52.8288 70.112 52.7834 69.672 52.6928 69.272C52.6021 68.8667 52.4554 68.5147 52.2528 68.216C52.0554 67.912 51.7968 67.6773 51.4768 67.512C51.1621 67.3467 50.7781 67.264 50.3248 67.264C49.9088 67.264 49.5408 67.336 49.2208 67.48C48.9061 67.624 48.6394 67.832 48.4208 68.104C48.2074 68.3707 48.0448 68.696 47.9328 69.08C47.8208 69.464 47.7648 69.9013 47.7648 70.392L46.9328 70.208C46.9328 69.3227 47.0874 68.5787 47.3968 67.976C47.7061 67.3733 48.1328 66.9173 48.6768 66.608C49.2208 66.2987 49.8448 66.144 50.5488 66.144C51.0661 66.144 51.5168 66.224 51.9008 66.384C52.2901 66.544 52.6181 66.76 52.8848 67.032C53.1568 67.304 53.3754 67.616 53.5408 67.968C53.7061 68.3147 53.8261 68.6853 53.9008 69.08C53.9754 69.4693 54.0128 69.8587 54.0128 70.248V75H52.8288ZM46.5808 75V63.48H47.6448V69.984H47.7648V75H46.5808ZM59.6968 75.24C58.8381 75.24 58.1048 75.0453 57.4968 74.656C56.8888 74.2667 56.4221 73.728 56.0968 73.04C55.7714 72.352 55.6088 71.5627 55.6088 70.672C55.6088 69.7653 55.7741 68.9707 56.1048 68.288C56.4354 67.6053 56.9048 67.0747 57.5128 66.696C58.1261 66.312 58.8541 66.12 59.6968 66.12C60.5608 66.12 61.2968 66.3147 61.9048 66.704C62.5181 67.088 62.9848 67.624 63.3048 68.312C63.6301 68.9947 63.7928 69.7813 63.7928 70.672C63.7928 71.5787 63.6301 72.376 63.3048 73.064C62.9794 73.7467 62.5101 74.28 61.8968 74.664C61.2834 75.048 60.5501 75.24 59.6968 75.24ZM59.6968 74.112C60.6568 74.112 61.3714 73.7947 61.8408 73.16C62.3101 72.52 62.5448 71.6907 62.5448 70.672C62.5448 69.6267 62.3074 68.7947 61.8328 68.176C61.3634 67.5573 60.6514 67.248 59.6968 67.248C59.0514 67.248 58.5181 67.3947 58.0968 67.688C57.6808 67.976 57.3688 68.3787 57.1608 68.896C56.9581 69.408 56.8568 70 56.8568 70.672C56.8568 71.712 57.0968 72.5467 57.5768 73.176C58.0568 73.8 58.7634 74.112 59.6968 74.112ZM70.2615 75C69.7762 75.1013 69.2962 75.1413 68.8215 75.12C68.3522 75.0987 67.9308 74.9973 67.5575 74.816C67.1895 74.6347 66.9095 74.352 66.7175 73.968C66.5628 73.648 66.4775 73.3253 66.4615 73C66.4508 72.6693 66.4455 72.2933 66.4455 71.872V63.96H67.6135V71.824C67.6135 72.1867 67.6162 72.4907 67.6215 72.736C67.6322 72.976 67.6882 73.1893 67.7895 73.376C67.9815 73.7333 68.2855 73.9467 68.7015 74.016C69.1228 74.0853 69.6428 74.0693 70.2615 73.968V75ZM64.5975 67.368V66.36H70.2615V67.368H64.5975ZM75.2593 75.24C74.4006 75.24 73.6673 75.0453 73.0593 74.656C72.4513 74.2667 71.9846 73.728 71.6593 73.04C71.3339 72.352 71.1713 71.5627 71.1713 70.672C71.1713 69.7653 71.3366 68.9707 71.6673 68.288C71.9979 67.6053 72.4673 67.0747 73.0753 66.696C73.6886 66.312 74.4166 66.12 75.2593 66.12C76.1233 66.12 76.8593 66.3147 77.4673 66.704C78.0806 67.088 78.5473 67.624 78.8673 68.312C79.1926 68.9947 79.3553 69.7813 79.3553 70.672C79.3553 71.5787 79.1926 72.376 78.8673 73.064C78.5419 73.7467 78.0726 74.28 77.4593 74.664C76.8459 75.048 76.1126 75.24 75.2593 75.24ZM75.2593 74.112C76.2193 74.112 76.9339 73.7947 77.4033 73.16C77.8726 72.52 78.1073 71.6907 78.1073 70.672C78.1073 69.6267 77.8699 68.7947 77.3953 68.176C76.9259 67.5573 76.2139 67.248 75.2593 67.248C74.6139 67.248 74.0806 67.3947 73.6593 67.688C73.2433 67.976 72.9313 68.3787 72.7233 68.896C72.5206 69.408 72.4193 70 72.4193 70.672C72.4193 71.712 72.6593 72.5467 73.1393 73.176C73.6193 73.8 74.3259 74.112 75.2593 74.112Z" fill="white"/>
<rect x="0.5" y="0.5" width="115" height="115" rx="19.5" stroke="white" stroke-dasharray="12 12"/>
</svg>
