<svg width="16" height="16" viewBox="0 0 16 16" fill="none" xmlns="http://www.w3.org/2000/svg">
<path fill-rule="evenodd" clip-rule="evenodd" d="M12 3.33281C12.3682 3.33281 12.6667 3.63132 12.6667 3.99956V5.99917L13.3333 5.99984C14.8061 5.99984 16 7.1939 16 8.66686V14.6677C16 15.4042 15.403 16.0012 14.6667 16.0012H1.33333C0.596954 16.0012 0 15.4042 0 14.6677V8.66686C0 7.1939 1.19391 5.99984 2.66667 5.99984L3.33333 5.99917V3.99956C3.33333 3.63132 3.63181 3.33281 4 3.33281C4.36819 3.33281 4.66667 3.63132 4.66667 3.99956V5.99917H6V3.99956C6 3.63132 6.29848 3.33281 6.66667 3.33281C7.03486 3.33281 7.33333 3.63132 7.33333 3.99956V5.99917H8.66667V3.99956C8.66667 3.63132 8.96514 3.33281 9.33333 3.33281C9.70152 3.33281 10 3.63132 10 3.99956V5.99917H11.3333V3.99956C11.3333 3.63132 11.6318 3.33281 12 3.33281ZM14.6667 12.6674H1.33333V14.3343C1.33333 14.5184 1.48257 14.6677 1.66667 14.6677H14.3333C14.5174 14.6677 14.6667 14.5184 14.6667 14.3343V12.6674ZM14.6667 10.0004H1.33333V12.0006H14.6667V10.0004ZM13.3333 7.33335H2.66667C1.93029 7.33335 1.33333 7.93038 1.33333 8.66686V9.33362H14.6667V8.66686C14.6667 7.93038 14.0697 7.33335 13.3333 7.33335ZM12.3333 -0.000976562C12.1333 0.799132 12.2933 1.11917 12.4533 1.39121L12.5165 1.49849C12.5984 1.64085 12.6667 1.78593 12.6667 1.99929C12.6667 2.36753 12.3682 2.66605 12 2.66605C11.6318 2.66605 11.3333 2.36753 11.3333 1.99929L11.3339 1.89531C11.3403 1.47225 11.4167 0.610217 12.3333 -0.000976562ZM9.66667 -0.000976562C9.33333 1.33254 10 1.33254 10 1.99929C10 2.36753 9.70152 2.66605 9.33333 2.66605C8.96514 2.66605 8.66667 2.36753 8.66667 1.99929L8.66725 1.89531C8.67361 1.47225 8.75 0.610217 9.66667 -0.000976562ZM7 -0.000976562C6.66667 1.33254 7.33333 1.33254 7.33333 1.99929C7.33333 2.36753 7.03486 2.66605 6.66667 2.66605C6.29848 2.66605 6 2.36753 6 1.99929L6.00058 1.89531C6.00694 1.47225 6.08333 0.610217 7 -0.000976562ZM4.33333 -0.000976562C4.13333 0.799132 4.29333 1.11917 4.45333 1.39121L4.51648 1.49849C4.5984 1.64085 4.66667 1.78593 4.66667 1.99929C4.66667 2.36753 4.36819 2.66605 4 2.66605C3.63181 2.66605 3.33333 2.36753 3.33333 1.99929L3.33391 1.89531C3.34028 1.47225 3.41667 0.610217 4.33333 -0.000976562Z" fill="#010B13"/>
</svg>
