<svg width="128" height="73" viewBox="0 0 128 73" fill="none" xmlns="http://www.w3.org/2000/svg">
<path d="M98.9042 7.67161C99.5485 7.04548 98.8251 6.38896 97.2345 6.52472C95.6459 6.66049 93.2386 7.16909 93.2386 7.16909L90.9752 4.86517C91.7148 4.75981 91.8546 4.48017 91.7857 4.11341C91.7168 3.74665 91.0178 3.5582 90.7726 3.60481C90.5274 3.64939 90.0694 3.73449 90.0694 3.73449L86.3066 0L84.5315 0.328261L89.4089 8.03635C87.9114 8.1559 85.1779 8.94616 85.1779 8.94616L81.8771 6.17012L80.0716 6.50446L82.4809 10.1113C82.4809 10.1113 81.8395 10.3834 81.5265 10.7394C81.2226 11.1447 81.2753 11.4407 81.2753 11.475C64.3616 16.1193 55.5209 20.9014 50.7388 24.9824C50.7388 24.9824 50.6415 25.0634 50.4753 25.2093C49.7945 25.8111 47.91 27.574 46.3133 29.9428C46.1411 30.1981 45.9729 30.4615 45.8087 30.731C45.4096 31.3876 45.0428 32.0826 44.7328 32.806C44.8158 32.9681 44.901 33.1282 44.9901 33.2882C45.5534 34.3014 46.2079 35.2578 46.9435 36.1453L48.0539 33.2254C48.0721 33.2518 48.0904 33.2781 48.1086 33.3044C48.5301 32.3764 48.8563 31.7401 48.907 31.6429C48.909 31.6388 48.9131 31.6348 48.9151 31.6307C55.7721 20.5387 78.6451 12.4537 81.2753 11.475C81.4394 12.3625 82.9389 12.0849 82.9389 12.0849L82.2925 15.941L84.1587 15.5945L85.9074 11.5358C87.2954 11.3413 90.1627 10.7476 90.1627 10.7476L88.9915 20.1456L90.5213 19.8619L92.578 14.3848L92.6105 14.245L93.6601 14.0504C93.8972 14.0059 94.0775 13.8093 94.1018 13.5682L94.1464 13.1123C94.1687 12.8853 93.9681 12.7029 93.7452 12.7435L92.9367 12.8934L93.9174 9.64118C95.9437 9.29671 98.2598 8.29774 98.9042 7.67161Z" fill="white"/>
<path d="M60.9878 7.98772C61.4478 7.9938 61.4559 7.98771 61.4762 7.97353C61.4093 7.95124 60.9534 7.90666 60.155 7.96745C60.1125 7.9715 60.0557 7.97556 60.0132 7.97961L59.9119 7.98974C60.3131 7.98163 60.5704 7.98366 60.9878 7.98772Z" fill="white"/>
<path d="M62.7669 8.00596C62.0334 7.93301 61.5795 7.9553 61.5572 7.97759C61.5714 7.98164 64.1347 8.37272 64.2948 8.36056C64.2988 8.35651 64.3029 8.35043 64.3069 8.34638C64.2097 8.27343 63.5998 8.10727 62.9007 8.02217C62.8602 8.01811 62.8075 8.01204 62.7669 8.00596Z" fill="white"/>
<path d="M65.3728 8.54293C64.6251 8.31801 64.4366 8.33422 64.4184 8.33827C64.4164 8.34232 64.4164 8.3484 64.4143 8.35246C64.5339 8.43756 66.933 9.1954 66.9493 9.19743C66.9513 9.1954 66.9553 9.19135 66.9594 9.18729C66.856 9.10219 66.1448 8.79014 65.4964 8.58143C65.4579 8.56927 65.4093 8.55509 65.3728 8.54293Z" fill="white"/>
<path d="M69.3666 10.4416L68.4062 9.87219C68.1042 9.69995 67.6868 9.49732 67.3768 9.33926C67.1904 9.24808 67.0891 9.20553 67.0465 9.19743C67.0566 9.21364 67.0566 9.21364 68.1123 9.76479C68.5338 9.98161 68.9472 10.2167 69.3666 10.4416Z" fill="white"/>
<path d="M70.2866 11.0596C70.161 10.9704 70.0272 10.8752 69.8793 10.7759L70.2744 11.0616C70.2805 11.0616 70.2825 11.0596 70.2866 11.0596Z" fill="white"/>
<path d="M61.6221 8.10321C61.5674 8.07485 61.0567 7.99988 60.1854 7.99177C60.1368 7.99177 60.0719 7.99177 60.0253 7.99177H59.9098C60.3435 8.01406 60.615 8.03635 61.0567 8.07485C61.5653 8.11538 61.5816 8.11132 61.6221 8.10321Z" fill="white"/>
<path d="M63.154 8.25317C62.3657 8.12551 61.7538 8.08903 61.7234 8.1174C61.7457 8.12348 64.4731 8.72327 64.6859 8.70503C64.6899 8.69895 64.696 8.69287 64.7 8.68679C64.6068 8.59561 64.0233 8.41122 63.3039 8.27748C63.2593 8.2714 63.1985 8.26127 63.154 8.25317Z" fill="white"/>
<path d="M66.238 9.05964C66.1975 9.04545 66.1428 9.02519 66.1022 9.01101C65.1418 8.6868 64.8703 8.71314 64.8662 8.71314C64.8622 8.71922 64.8581 8.7253 64.854 8.73137C64.8743 8.75164 67.4619 9.87016 67.5693 9.73642C67.5348 9.62295 66.9006 9.29874 66.238 9.05964Z" fill="white"/>
<path d="M70.1143 11.0981C69.9603 10.9198 69.4112 10.5429 68.9269 10.2714C68.8905 10.2511 68.8418 10.2248 68.8074 10.2045C68.0313 9.79113 67.7659 9.75061 67.7638 9.79519C67.7598 9.89042 68.6898 10.4375 69.089 10.6685C69.5612 10.9401 69.8185 11.0697 69.9644 11.1305C70.0151 11.1204 70.0637 11.1082 70.1143 11.0981Z" fill="white"/>
<path d="M61.62 8.22682C61.6221 8.2248 61.6241 8.22074 61.6241 8.21872C61.5005 8.17008 60.9736 8.07485 60.1955 8.01203C60.1449 8.00798 60.078 8.00393 60.0294 7.99988L59.9098 7.99177C60.3252 8.04243 60.5805 8.08295 61.0365 8.15387C61.4255 8.21264 61.5451 8.22682 61.62 8.22682Z" fill="white"/>
<path d="M64.7223 9.02721C64.7142 8.9421 64.1894 8.72326 63.4214 8.53279C63.3748 8.52063 63.314 8.50645 63.2674 8.49632C62.4954 8.32003 61.8004 8.22479 61.7254 8.24911C61.7518 8.25721 64.5744 9.13055 64.7223 9.02721Z" fill="white"/>
<path d="M67.5794 10.2714C67.7051 10.2045 67.2289 9.85597 66.4508 9.52366C66.4082 9.50542 66.3535 9.48313 66.311 9.46489C65.4903 9.14068 64.9412 9.03126 64.8763 9.0799C64.8865 9.27442 67.3869 10.3767 67.5794 10.2714Z" fill="white"/>
<path d="M69.626 11.2075C69.5065 11.1163 69.3747 11.0252 69.2228 10.9299C69.1863 10.9076 69.1377 10.8772 69.0992 10.8549C68.2582 10.3666 67.8408 10.2957 67.8044 10.3666C67.7436 10.4841 68.3778 10.9684 69.006 11.3595C69.2126 11.3068 69.4173 11.2562 69.626 11.2075Z" fill="white"/>
<path d="M61.5086 8.32814C61.4215 8.27545 60.9534 8.1478 60.1834 8.03027C60.1348 8.02216 60.0719 8.01406 60.0233 8.00596L59.9098 7.98974C60.2199 8.05256 60.4002 8.09511 60.8197 8.1944C61.387 8.32814 61.4802 8.34435 61.5086 8.32814Z" fill="white"/>
<path d="M64.3819 9.33116C64.469 9.27847 64.078 9.03127 63.2715 8.76379C63.2269 8.74961 63.1681 8.73137 63.1236 8.71719C62.3313 8.47403 61.6363 8.33826 61.5917 8.36258C61.7254 8.45376 64.2097 9.43653 64.3819 9.33116Z" fill="white"/>
<path d="M67.0161 10.7516C67.2431 10.703 66.9209 10.3443 66.1651 9.95121C66.1245 9.93095 66.0719 9.90461 66.0313 9.88435C65.1418 9.45882 64.542 9.33319 64.5136 9.40816C64.4589 9.54392 66.5703 10.8468 67.0161 10.7516Z" fill="white"/>
<path d="M67.8023 11.6594C68.0901 11.5844 68.3798 11.5115 68.6716 11.4405C67.8732 10.9097 67.3079 10.7719 67.2208 10.8813C67.1377 10.9867 67.4133 11.321 67.8023 11.6594Z" fill="white"/>
<path d="M61.2735 8.41932C61.231 8.36866 60.846 8.21466 60.153 8.04648C60.1105 8.03635 60.0537 8.02216 60.0132 8.01406L59.9119 7.99177C60.2766 8.10727 60.6353 8.24709 61 8.36056C61.2533 8.43959 61.2675 8.4254 61.2735 8.41932Z" fill="white"/>
<path d="M63.7071 9.58445C63.849 9.54392 63.5998 9.28861 62.8703 8.96238C62.8318 8.94414 62.7791 8.92388 62.7406 8.90564C62.0496 8.61993 61.4093 8.43554 61.3323 8.4558C61.4012 8.56927 63.4032 9.66955 63.7071 9.58445Z" fill="white"/>
<path d="M65.4133 10.32C65.3789 10.2977 65.3322 10.2673 65.2978 10.245C64.5541 9.79519 63.847 9.56014 63.7882 9.68374C63.6707 9.93298 65.316 11.1994 65.9219 11.1508C66.2319 11.1265 66.082 10.7678 65.4133 10.32Z" fill="white"/>
<path d="M67.3788 11.7769C66.7709 11.3453 66.2076 11.1751 66.0597 11.319C65.9341 11.4426 66.0739 11.7465 66.3373 12.0647C66.6797 11.9654 67.0283 11.8701 67.3788 11.7769Z" fill="white"/>
<path d="M60.925 8.48416C60.9291 8.43553 60.6738 8.27342 60.1003 8.05863C60.0679 8.04648 60.0233 8.03027 59.9889 8.01811L59.9098 7.98974C60.1672 8.12753 60.4164 8.28153 60.6798 8.40919C60.7264 8.43148 60.8804 8.50442 60.925 8.48416Z" fill="white"/>
<path d="M62.236 9.11435C62.2057 9.09408 62.1651 9.06977 62.1347 9.05153C61.5876 8.72935 61.0203 8.49834 60.9554 8.52266C60.923 8.63613 62.2543 9.82761 62.7203 9.76479C62.929 9.73845 62.7811 9.4649 62.236 9.11435Z" fill="white"/>
<path d="M64.232 10.6057C64.2056 10.5814 64.1692 10.549 64.1428 10.5247C63.5369 10.0221 62.8926 9.76074 62.7426 9.87016C62.5744 9.99376 62.9027 10.5267 63.2067 10.8266C63.7983 11.4102 64.2502 11.4426 64.3353 11.4426C64.7102 11.4446 64.7608 11.1022 64.232 10.6057Z" fill="white"/>
<path d="M65.8165 12.2187C65.2451 11.6736 64.5987 11.4588 64.3596 11.6432C64.1367 11.8154 64.232 12.2308 64.5055 12.6219C64.9371 12.4841 65.3748 12.3504 65.8165 12.2187Z" fill="white"/>
<path d="M75.9683 19.2378C75.9663 19.2013 75.9602 19.1527 75.9562 19.1162C75.8002 18.2388 75.1335 17.714 74.6046 17.7343C73.7698 17.7667 73.4881 19.0169 74.3696 19.8112C75.1153 20.484 76.0109 20.1638 75.9683 19.2378Z" fill="white"/>
<path d="M72.398 18.6562C71.6462 18.5955 71.2612 19.6856 71.9644 20.4921C72.5601 21.1749 73.397 20.9824 73.4578 20.1496C73.4598 20.1172 73.4598 20.0726 73.4598 20.0382C73.4152 19.2358 72.8722 18.6947 72.398 18.6562Z" fill="white"/>
<path d="M68.6291 20.6157C68.6797 20.8345 68.7871 21.0594 68.9654 21.2641C69.5612 21.947 70.398 21.7545 70.4588 20.9217C70.4608 20.8892 70.4608 20.8447 70.4608 20.8102C70.4325 20.3219 70.2197 19.9328 69.9522 19.6917C69.5227 19.9875 69.0809 20.2955 68.6291 20.6157Z" fill="white"/>
<path d="M72.9512 23.2296C73.4456 23.9368 74.2582 23.8395 74.4 23.0574C74.4061 23.027 74.4101 22.9844 74.4142 22.952C74.4527 22.1861 73.9947 21.6187 73.549 21.5336C72.8418 21.3999 72.3676 22.3948 72.9512 23.2296Z" fill="white"/>
<path d="M76.015 20.7839C75.3686 20.6724 74.9512 21.5843 75.4962 22.338C75.9582 22.9743 76.6978 22.875 76.8133 22.1597C76.8174 22.1314 76.8214 22.0929 76.8255 22.0645C76.8478 21.3654 76.4223 20.8548 76.015 20.7839Z" fill="white"/>
<path d="M60.465 8.52266C60.5319 8.51861 60.5015 8.37474 60.0314 8.06674C60.0112 8.05256 59.9828 8.03432 59.9605 8.02216L59.9098 7.98974C60.1692 8.31395 60.3394 8.52874 60.465 8.52266Z" fill="white"/>
<path d="M61.4174 9.86003C61.6727 9.8884 61.7903 9.64929 61.3891 9.20958C61.3708 9.18932 61.3445 9.16298 61.3262 9.14271C60.9595 8.78405 60.5441 8.52874 60.4792 8.55913C60.3333 8.62397 60.8176 9.79316 61.4174 9.86003Z" fill="white"/>
<path d="M62.1692 11.5642C62.6839 11.7161 63.0121 11.3635 62.6555 10.782C62.6393 10.7557 62.617 10.7232 62.5988 10.6969C62.1996 10.166 61.6525 9.87016 61.4296 9.95932C61.0162 10.1295 61.3343 11.3169 62.1692 11.5642Z" fill="white"/>
<path d="M63.8409 12.8347C63.8287 12.7962 63.8247 12.7617 63.8085 12.7232C63.7963 12.6928 63.776 12.6543 63.7619 12.6259C63.3789 11.9714 62.7163 11.6533 62.3374 11.7668C61.8024 11.9289 61.8429 12.8103 62.4144 13.323C62.8845 13.1548 63.3586 12.9947 63.8409 12.8347Z" fill="white"/>
<path d="M59.9666 8.51455C60.0213 8.53279 60.1591 8.4639 59.9524 8.06674C59.9443 8.05256 59.9342 8.03432 59.9281 8.02013L59.9098 7.98772C59.8106 8.39703 59.9038 8.49429 59.9666 8.51455Z" fill="white"/>
<path d="M60.4306 9.22984C60.4245 9.20958 60.4164 9.18324 60.4083 9.16298C60.2969 8.86511 60.076 8.52671 59.9706 8.55305C59.7964 8.59561 59.4985 9.48516 59.9402 9.78708C60.2219 9.9816 60.5846 9.76884 60.4306 9.22984Z" fill="white"/>
<path d="M59.92 11.4669C60.386 11.787 60.9899 11.4932 60.8764 10.8246C60.8723 10.7982 60.8642 10.7638 60.8582 10.7394C60.7042 10.2106 60.3394 9.91069 60.0922 9.93703C59.618 9.98769 59.2999 11.0393 59.92 11.4669Z" fill="white"/>
<path d="M61.2857 12.7921C61.2837 12.7617 61.2756 12.7232 61.2715 12.6928C61.1074 12.014 60.6028 11.7506 60.3029 11.7384C59.5917 11.7121 59.1378 12.8043 59.8065 13.4101C60.3881 13.937 61.3708 13.6533 61.2857 12.7921Z" fill="white"/>
<path d="M59.5836 14.3848C59.9585 14.2348 60.3394 14.0869 60.7244 13.941C60.6312 13.9147 60.542 13.8964 60.465 13.8924C60.0638 13.8802 59.7538 14.0889 59.5836 14.3848Z" fill="white"/>
<path d="M59.4782 8.45174C59.4904 8.50037 59.5674 8.49227 59.6586 8.40311C59.7518 8.31193 59.8166 8.18021 59.8734 8.06471C59.8795 8.05256 59.8876 8.03432 59.8957 8.02216L59.9119 7.99177C59.4904 8.28153 59.4681 8.41121 59.4782 8.45174Z" fill="white"/>
<path d="M59.462 9.17918C59.4681 9.15892 59.4762 9.13258 59.4823 9.11434C59.5593 8.82661 59.5715 8.54698 59.5086 8.51658C59.3749 8.44971 58.4144 9.24605 58.6353 9.64118C58.765 9.87421 59.2553 9.77694 59.462 9.17918Z" fill="white"/>
<path d="M59.0811 10.7354C59.0872 10.7111 59.0953 10.6766 59.1013 10.6523C59.1804 10.168 59.0162 9.89245 58.8298 9.83977C58.3435 9.704 57.4681 10.7172 57.8369 11.2379C58.0983 11.6108 58.8784 11.4689 59.0811 10.7354Z" fill="white"/>
<path d="M58.7569 12.5753C58.8217 11.9127 58.4347 11.6432 58.2199 11.5925C57.5208 11.4284 56.611 12.4983 57.1034 13.1751C57.4985 13.7181 58.5421 13.5074 58.7386 12.6725C58.7467 12.6442 58.7528 12.6057 58.7569 12.5753Z" fill="white"/>
<path d="M56.684 15.6188C57.2594 15.3594 57.8491 15.1021 58.457 14.8468C58.459 14.8387 58.459 14.8285 58.461 14.8204C58.4995 14.0788 57.999 13.7728 57.6971 13.708C56.7691 13.5094 55.9403 14.6462 56.4651 15.3939C56.5259 15.4851 56.6009 15.558 56.684 15.6188Z" fill="white"/>
<path d="M59.0588 8.40716C59.1358 8.44363 59.304 8.34435 59.7984 8.05458C59.8187 8.04243 59.845 8.02824 59.8632 8.01608L59.9098 7.98974C59.0385 8.2714 59.0588 8.40716 59.0588 8.40716Z" fill="white"/>
<path d="M58.5988 9.00493C58.6029 9.00087 59.0932 8.4943 59.0385 8.44566C58.917 8.33624 57.4722 9.06571 57.4702 9.44666C57.4702 9.64119 57.918 9.66145 58.536 9.06571C58.5563 9.04748 58.5806 9.02316 58.5988 9.00493Z" fill="white"/>
<path d="M55.9747 10.9299C56.074 11.3088 56.8461 11.2278 57.3688 10.5267C57.3871 10.5024 57.4073 10.472 57.4256 10.4477C57.7336 9.96134 57.6728 9.72832 57.5877 9.66753C57.2533 9.43247 55.8228 10.3524 55.9747 10.9299Z" fill="white"/>
<path d="M56.3111 12.3828C56.3273 12.3544 56.3456 12.3159 56.3618 12.2875C56.6799 11.5682 56.303 11.3433 56.2605 11.321C55.7032 11.0272 54.3577 12.0302 54.6212 12.7637C54.8197 13.323 55.8471 13.1913 56.3111 12.3828Z" fill="white"/>
<path d="M55.3891 14.5753C55.4033 14.5449 55.4195 14.5023 55.4317 14.4699C55.683 13.6553 55.1541 13.3858 55.0913 13.3574C54.2889 12.9887 53.1156 14.0869 53.4378 14.9015C53.7215 15.6168 54.9535 15.5377 55.3891 14.5753Z" fill="white"/>
<path d="M52.6557 17.5681C53.302 17.2317 53.9788 16.8913 54.682 16.5509C54.6435 15.9775 54.2119 15.7546 54.1085 15.712C53.1663 15.3149 52.0315 16.5023 52.5098 17.3837C52.5503 17.4567 52.605 17.5114 52.6557 17.5681Z" fill="white"/>
<path d="M59.7315 8.0404C59.7619 8.03229 59.8045 8.02014 59.8369 8.01001L59.9119 7.98974C58.7974 8.16805 58.6819 8.3099 58.6819 8.31192C58.7103 8.33624 58.7103 8.33624 59.7315 8.0404Z" fill="white"/>
<path d="M56.4651 9.21567C56.4307 9.32914 56.6637 9.46085 57.7133 8.89348C57.7417 8.87727 57.7822 8.85701 57.8106 8.8408C58.5705 8.42135 58.613 8.37474 58.6312 8.35651C58.6292 8.35245 58.6272 8.34435 58.6252 8.3403C58.3232 8.3018 56.5725 8.85498 56.4651 9.21567Z" fill="white"/>
<path d="M54.3882 10.5571C54.3942 10.8671 55.0609 10.8347 55.841 10.2106C55.8674 10.1883 55.9018 10.1599 55.9281 10.1376C56.4124 9.71413 56.5198 9.47705 56.4631 9.40208C56.3091 9.19134 54.374 9.96134 54.3882 10.5571Z" fill="white"/>
<path d="M52.5138 12.2653C52.5888 12.7577 53.4763 12.6665 54.145 11.939C54.1693 11.9127 54.1997 11.8762 54.222 11.8499C54.763 11.167 54.5158 10.9279 54.4854 10.9036C54.0862 10.5713 52.4024 11.5378 52.5138 12.2653Z" fill="white"/>
<path d="M52.6678 14.0241C52.6881 13.9937 52.7144 13.9532 52.7327 13.9228C53.1724 13.1366 52.7874 12.8407 52.7408 12.8083C52.1146 12.3767 50.7124 13.5033 50.8867 14.2976C51.0305 14.942 52.064 14.8893 52.6678 14.0241Z" fill="white"/>
<path d="M51.4358 16.407C51.452 16.3746 51.4723 16.33 51.4885 16.2976C51.7843 15.5276 51.4358 15.1305 51.1846 15.017C50.3598 14.6441 49.2332 15.8194 49.5777 16.6927C49.8735 17.4425 50.9839 17.2682 51.4358 16.407Z" fill="white"/>
<path d="M48.9131 19.6572C49.4298 19.3492 49.9809 19.0311 50.5625 18.7049C50.6415 18.0261 50.2626 17.6593 49.9992 17.5458C49.0914 17.1547 48.1208 18.403 48.6132 19.327C48.6922 19.4728 48.7976 19.5742 48.9131 19.6572Z" fill="white"/>
<path d="M58.3921 8.20048C58.4144 8.20453 58.4144 8.20453 59.6748 8.02216C59.7153 8.01608 59.77 8.00798 59.8106 8.0019L59.9078 7.98974C59.4053 8.03027 58.9109 8.09309 58.4225 8.17616C58.4144 8.18224 58.4002 8.19237 58.3921 8.20048Z" fill="white"/>
<path d="M58.23 8.21263C57.3506 8.37677 56.4975 8.61385 55.6789 8.91779C55.6526 8.99277 55.7316 9.12042 57.0467 8.6726C57.0852 8.66045 57.1358 8.64221 57.1723 8.63005C58.305 8.241 58.305 8.241 58.3151 8.21668C58.2949 8.21263 58.2888 8.21061 58.23 8.21263Z" fill="white"/>
<path d="M55.4317 9.011C54.6394 9.32103 53.8795 9.69184 53.1561 10.1194C53.2088 10.3605 53.8289 10.2248 54.5989 9.80126C54.6333 9.78303 54.6779 9.75669 54.7124 9.73845C55.227 9.43855 55.4297 9.26834 55.5067 9.19337C55.685 9.01708 55.5208 9.01303 55.4317 9.011Z" fill="white"/>
<path d="M52.8765 10.2896C52.1835 10.7212 51.527 11.2035 50.911 11.7344C50.9718 12.0039 51.6182 11.9654 52.3902 11.3595C52.4206 11.3352 52.4591 11.3028 52.4895 11.2784C52.5179 11.2541 52.5564 11.2217 52.5847 11.1954C52.5928 11.1873 53.5493 10.322 52.8765 10.2896Z" fill="white"/>
<path d="M50.6152 11.9958C50.0316 12.5267 49.4865 13.1021 48.986 13.7141C49.1238 14.0383 49.8026 14.0038 50.4591 13.2966C50.4855 13.2683 50.5179 13.2298 50.5422 13.2014C50.9921 12.6422 51.1704 12.0302 50.6152 11.9958Z" fill="white"/>
<path d="M48.8523 15.558C48.8725 15.5276 48.8989 15.4851 48.9191 15.4526C49.4034 14.5793 49.1177 14.0626 48.6962 14.0788C48.2282 14.6887 47.8047 15.3331 47.4257 16.0079C47.6547 16.407 48.37 16.2733 48.8523 15.558Z" fill="white"/>
<path d="M47.6142 18.0909C47.6304 18.0585 47.6486 18.0119 47.6628 17.9774C47.9951 17.0413 47.5939 16.4678 47.1704 16.482C46.826 17.1507 46.5261 17.8437 46.2748 18.561C46.5666 18.9906 47.2555 18.8548 47.6142 18.0909Z" fill="white"/>
<path d="M46.0803 19.1486C45.8635 19.8538 45.6912 20.5792 45.5676 21.3188C45.6649 21.4444 45.7784 21.5235 45.8939 21.5579C46.1471 21.3897 46.4166 21.2114 46.7084 21.023C46.7348 20.9622 46.7611 20.9034 46.7814 20.8345C46.7915 20.8001 46.8016 20.7535 46.8118 20.717C46.9881 19.7342 46.4977 19.1324 46.0803 19.1486Z" fill="white"/>
<path d="M68.1711 37.1058H61.537C61.543 37.6124 61.5491 38.8545 61.5552 39.7197C61.6606 39.7177 61.7639 39.7137 61.8673 39.7096C63.8368 39.6306 65.7152 39.203 67.4376 38.4817C67.6037 38.4128 67.7679 38.3418 67.93 38.2669C68.1873 37.9001 68.4244 37.6144 68.6372 37.1078H68.1711V37.1058Z" fill="white"/>
<path d="M55.069 37.12C54.9535 37.9143 55.4398 38.6863 56.2017 38.9356C57.5451 39.3753 58.9676 39.6468 60.4407 39.7157C60.5441 39.7197 60.6494 39.7258 60.7528 39.7278C60.7467 38.8667 60.7406 37.6124 60.7346 37.1058H55.069C55.069 37.1099 55.069 37.1139 55.069 37.12Z" fill="white"/>
<path d="M69.0181 35.9913C69.0607 35.9285 69.1012 35.8596 69.1417 35.7887C69.7415 34.7249 70.1184 32.8485 70.3575 31.3288H61.5086C61.5147 32.9498 61.5228 34.5729 61.5329 35.9913H69.0181Z" fill="white"/>
<path d="M55.2959 35.9913H60.7285C60.7183 34.5729 60.7102 32.9498 60.7042 31.3288H57.4661C56.4631 32.8445 55.7012 34.4088 55.2959 35.9913Z" fill="white"/>
<path d="M71.1397 35.9913C71.2511 35.9265 71.3605 35.8576 71.4699 35.7887C73.0484 34.7796 74.3655 33.3207 75.3382 31.3288H71.166C71.1072 31.8354 71.0404 31.9894 70.9613 32.4068C70.7162 33.7219 70.3879 34.8242 69.9766 35.7887C69.9482 35.8576 69.9178 35.9245 69.8874 35.9913H71.1397Z" fill="white"/>
<path d="M60.7001 30.2123C60.696 29.1566 60.694 28.2488 60.692 27.343C59.8085 28.2691 58.9818 29.2275 58.2483 30.2123H60.7001Z" fill="white"/>
<path d="M76.8194 17.6796C77.6279 19.6268 78.0757 21.7626 78.0757 24.0017C78.0757 31.6753 72.8438 38.1271 65.7517 39.9832C73.863 38.7268 80.0737 31.7138 80.0737 23.2499C80.0737 20.178 79.251 17.2986 77.8204 14.8164C77.4192 15.3473 76.9146 16.2774 76.8194 17.6796Z" fill="white"/>
<path d="M61.5532 7.47911C65.2836 7.47911 68.7243 8.71719 71.4902 10.8023C71.8428 10.7313 72.1933 10.6584 72.5479 10.5936C72.4203 10.3686 72.2359 10.1093 71.9705 9.86408L70.086 8.12348L71.2835 8.40108C68.8661 7.07182 66.0901 6.31399 63.1357 6.31399C58.7974 6.31399 54.84 7.94719 51.8431 10.6321C54.5725 8.65235 57.9261 7.47911 61.5532 7.47911Z" fill="white"/>
<path d="M77.1193 25.4342H71.5591C71.5368 27.0756 71.4679 28.4332 71.2673 30.2143H75.7353C76.4749 28.8466 76.9531 27.1931 77.1193 25.4342Z" fill="white"/>
<path d="M61.4944 26.5285C61.4944 26.8182 61.4944 27.0614 61.4944 27.1323C61.4964 28.109 61.4985 29.0735 61.5025 30.2143H70.4649C70.6858 28.5163 70.7445 26.8243 70.7607 25.4342H62.6413C62.2523 25.7909 61.8693 26.1576 61.4944 26.5285Z" fill="white"/>
<path d="M69.4558 23.7686C69.8185 24.5994 70.6756 24.6663 70.9836 23.8902C70.9958 23.8598 71.0079 23.8173 71.0201 23.7848C71.2167 23.0047 70.8621 22.3259 70.4223 22.1476C69.7212 21.8619 69.0282 22.7879 69.4558 23.7686Z" fill="white"/>
<path d="M73.4821 24.4333H74.3554C74.2663 24.3259 74.1609 24.2489 74.0515 24.2144C73.8245 24.1435 73.6158 24.2448 73.4821 24.4333Z" fill="white"/>
<path d="M76.712 23.4606C76.2399 23.2215 75.7151 23.7484 75.8184 24.4333H77.1315C77.174 23.9794 76.9775 23.5964 76.712 23.4606Z" fill="white"/>
<path d="M67.0344 23.2154C66.7405 22.7676 66.2785 22.6075 65.8672 22.6866C65.6119 22.8872 65.3566 23.0939 65.1033 23.3005C65.0587 23.4019 65.0263 23.5113 65.008 23.6329C64.9695 23.9206 65.0243 24.1942 65.1377 24.4312H67.1843C67.3403 23.9692 67.2127 23.489 67.0344 23.2154Z" fill="white"/>
<path d="M62.8318 41.0915C59.7417 41.0915 56.8359 40.3033 54.3051 38.9193C53.758 27.0209 75.6502 15.3777 75.6502 15.3777L76.1426 17.6613C76.3169 14.9258 77.9298 13.7242 77.9298 13.7242C59.6586 19.9389 53.3243 28.2812 51.1319 33.1363V33.1342C51.1319 33.1342 51.1278 33.1423 51.1278 33.1444C51.1075 33.195 50.7003 34.1859 50.2606 35.8981C50.1653 36.2689 50.0701 36.6722 49.9748 37.1078C49.8614 37.6306 49.754 38.198 49.6547 38.8059C49.7438 38.8768 49.831 38.9457 49.9222 39.0146C53.0852 41.4583 57.0487 42.9173 61.3546 42.9173C68.9492 42.9173 75.4841 38.3905 78.4182 31.8901C75.3848 37.3753 69.5429 41.0915 62.8318 41.0915Z" fill="white"/>
<path d="M49.7884 23.2641C60.0922 15.8194 77.9298 10.6442 77.9298 10.6442L72.4324 9.36764C73.32 10.1863 73.478 11.1184 73.478 11.1184C59.1621 13.5661 48.3943 20.5691 45.0327 22.9703C45.1988 13.5297 52.7063 5.88238 62.0922 5.49941C61.847 5.48928 61.6018 5.48117 61.3546 5.48117C51.0164 5.48117 42.6376 13.862 42.6376 24.1982C42.6376 25.9246 42.8767 27.5943 43.3123 29.1809C43.3468 29.3086 43.3833 29.4362 43.4218 29.5639L49.7884 23.2641Z" fill="white"/>
<path d="M6.58146 62.2848H0V50.283H6.16809C7.63919 50.283 8.6645 50.4674 9.24403 50.8342C10.1478 51.4137 10.5976 52.2708 10.5976 53.4076C10.5976 54.7105 10.0019 55.6689 8.8104 56.2829C10.0039 56.7956 10.5976 57.7034 10.5976 59.0063C10.5976 60.1329 10.2714 60.9596 9.61484 61.4885C8.95629 62.0194 7.94719 62.2848 6.58146 62.2848ZM2.52275 55.213H6.21672C7.31903 55.213 7.87222 54.751 7.87222 53.825C7.87222 52.901 7.32106 52.437 6.21672 52.437H2.52275V55.213ZM6.22686 60.1613C7.32309 60.1613 7.87222 59.6932 7.87222 58.757C7.87222 57.8107 7.32309 57.3366 6.22686 57.3366H2.52275V60.1613H6.22686Z" fill="white"/>
<path d="M18.0504 62.2847C17.0595 62.2847 16.3179 62.2179 15.8275 62.0841C15.1588 61.9058 14.5793 61.5553 14.0889 61.0305C13.631 60.5522 13.325 59.9889 13.169 59.3425C13.0575 58.8745 13.0028 58.2341 13.0028 57.4196V50.2829H15.5276V57.3365C15.5276 58.4631 15.6674 59.1865 15.945 59.5087C16.3908 60.0335 17.1649 60.2949 18.2692 60.2949H21.2438V62.2847H18.0504Z" fill="white"/>
<path d="M25.4039 50.2829V57.4702C25.4039 58.5624 25.5984 59.3365 25.9895 59.7944C26.3785 60.2503 27.0857 60.4793 28.113 60.4793C29.1384 60.4793 29.8435 60.2503 30.2265 59.7944C30.6115 59.3385 30.804 58.5624 30.804 57.4702V50.2829H33.3288V57.5371C33.3288 59.1298 33.0957 60.2057 32.6277 60.763C31.7016 61.8653 30.1981 62.4185 28.1151 62.4185C26.032 62.4185 24.5204 61.8673 23.5863 60.763C23.1283 60.2179 22.9014 59.1419 22.9014 57.5371V50.2829H25.4039Z" fill="white"/>
<path d="M41.4016 52.372C39.6083 52.372 38.66 53.3021 38.5607 55.1643H45.5474V57.2534H38.5607C38.5708 58.3233 38.7998 59.0812 39.2436 59.5269C39.6873 59.9727 40.4107 60.1956 41.4117 60.1956H45.5474V62.2847H41.2841C40.4594 62.2847 39.8069 62.23 39.3287 62.1186C38.6823 61.9626 38.0865 61.6667 37.5394 61.2331C36.3135 60.2524 35.7016 58.6759 35.7016 56.5037C35.7016 54.376 36.1615 52.8077 37.0815 51.7986C38.0014 50.7895 39.4239 50.2849 41.3529 50.2849H45.5494V52.3741H41.4016V52.372Z" fill="white"/>
<path d="M51.061 62.2847H48.4207V50.2829H51.061V62.2847Z" fill="white"/>
<path d="M59.1845 52.3396C58.1369 52.3396 57.3851 52.6739 56.9272 53.3426C56.4712 54.0113 56.2423 55.0974 56.2423 56.603C56.2423 57.9403 56.4652 58.8745 56.911 59.4033C57.3568 59.9322 58.1146 60.1976 59.1845 60.1976H63.3303V62.2868H59.067C58.2422 62.2868 57.5898 62.2321 57.1116 62.1206C56.4652 61.9646 55.8694 61.6687 55.3223 61.2351C54.0964 60.2544 53.4845 58.6779 53.4845 56.5057C53.4845 54.3781 53.9444 52.8097 54.8644 51.8006C55.7843 50.7915 57.2068 50.287 59.1359 50.287H63.3323V52.3437H59.1845V52.3396Z" fill="white"/>
<path d="M69.2816 50.2829H71.9563L77.0545 62.2847H74.2501L73.1478 59.4256H67.9402L66.8723 62.2847H64.2016L69.2816 50.2829ZM70.5197 52.6699L68.7629 57.2879H72.3413L70.5197 52.6699Z" fill="white"/>
<path d="M78.5742 50.2829H84.793C86.2297 50.2829 87.2894 50.5727 87.9682 51.1522C88.6491 51.7317 88.9875 52.6456 88.9875 53.8938C88.9875 55.7985 88.179 56.9252 86.564 57.2696L89.5569 62.2847H86.7139L84.0737 57.5715H81.099V62.2847H78.5742V50.2829ZM84.1912 52.4227H81.099V55.448H84.1912C84.9835 55.448 85.5529 55.3426 85.9054 55.1298C86.258 54.9171 86.4323 54.5179 86.4323 53.9262C86.4323 53.3366 86.2479 52.9293 85.8811 52.7064C85.5549 52.5179 84.9936 52.4227 84.1912 52.4227Z" fill="white"/>
<path d="M96.7422 52.372C94.9489 52.372 94.0006 53.3021 93.9013 55.1643H100.888V57.2534H93.9013C93.9114 58.3233 94.1404 59.0812 94.5841 59.5269C95.0279 59.9727 95.7513 60.1956 96.7523 60.1956H100.888V62.2847H96.6246C95.7999 62.2847 95.1474 62.23 94.6692 62.1186C94.0228 61.9626 93.4271 61.6667 92.88 61.2331C91.6541 60.2524 91.0421 58.6759 91.0421 56.5037C91.0421 54.376 91.5021 52.8077 92.4221 51.7986C93.342 50.7895 94.7645 50.2849 96.6935 50.2849H100.89V52.3741H96.7422V52.372Z" fill="white"/>
<path d="M106.221 50.2829V57.4702C106.221 58.5624 106.416 59.3365 106.807 59.7944C107.196 60.2503 107.903 60.4793 108.93 60.4793C109.956 60.4793 110.661 60.2503 111.044 59.7944C111.429 59.3385 111.621 58.5624 111.621 57.4702V50.2829H114.146V57.5371C114.146 59.1298 113.913 60.2057 113.445 60.763C112.519 61.8653 111.015 62.4185 108.932 62.4185C106.849 62.4185 105.338 61.8673 104.404 60.763C103.946 60.2179 103.719 59.1419 103.719 57.5371V50.2829H106.221Z" fill="white"/>
<path d="M121.179 52.4227C119.887 52.4227 119.24 52.9455 119.24 53.9931C119.24 54.8624 119.769 55.296 120.829 55.296H124.172C125.532 55.296 126.509 55.5533 127.106 56.064C127.702 56.5766 128 57.452 128 58.688C128 59.9363 127.66 60.8481 126.981 61.4215C126.3 61.995 125.242 62.2827 123.806 62.2827H117.086V60.1429H123.404C124.095 60.1429 124.594 60.0436 124.9 59.843C125.206 59.6424 125.36 59.2919 125.36 58.7894C125.36 58.2666 125.22 57.9039 124.942 57.7033C124.663 57.5027 124.207 57.4013 123.573 57.4013H120.598C119.216 57.4013 118.205 57.1258 117.565 56.5746C116.924 56.0234 116.604 55.1521 116.604 53.9586C116.604 52.6658 116.944 51.7297 117.623 51.1502C118.304 50.5706 119.368 50.2809 120.817 50.2809H127.418V52.4227H121.179Z" fill="white"/>
<path d="M42.899 66.3678H44.3194L47.0266 72.7446H45.5373L44.9517 71.2269H42.1857L41.6184 72.7446H40.2L42.899 66.3678ZM43.5575 67.6342L42.6255 70.0881H44.5261L43.5575 67.6342Z" fill="white"/>
<path d="M50.5443 72.7425C50.0174 72.7425 49.6243 72.7081 49.3629 72.6371C49.0083 72.5419 48.7003 72.3555 48.4389 72.0779C48.1958 71.8226 48.0337 71.5247 47.9506 71.1802C47.8918 70.931 47.8614 70.5906 47.8614 70.159V66.3678H49.2028V70.1144C49.2028 70.7122 49.2758 71.0972 49.4257 71.2694C49.6628 71.547 50.0742 71.6868 50.6598 71.6868H52.2403V72.7445H50.5443V72.7425Z" fill="white"/>
<path d="M56.0153 72.7425C55.4885 72.7425 55.0954 72.7081 54.834 72.6371C54.4794 72.5419 54.1714 72.3555 53.91 72.0779C53.6668 71.8226 53.5047 71.5247 53.4216 71.1802C53.3629 70.931 53.3325 70.5906 53.3325 70.159V66.3678H54.6739V70.1144C54.6739 70.7122 54.7468 71.0972 54.8968 71.2694C55.1339 71.547 55.5452 71.6868 56.1308 71.6868H57.7113V72.7445H56.0153V72.7425Z" fill="white"/>
<path d="M60.3658 72.7425H58.9636V66.3657H60.3658V72.7425Z" fill="white"/>
<path d="M64.0517 66.3678H65.4721L68.1792 72.7445H66.6899L66.1063 71.2248H63.3404L62.7731 72.7425H61.3546L64.0517 66.3678ZM64.7102 67.6342L63.7781 70.0881H65.6788L64.7102 67.6342Z" fill="white"/>
<path d="M69.1661 66.3678H70.8621L73.474 70.9492L73.4112 66.3678H74.7789V72.7445H73.2187L70.4811 67.9219L70.544 72.7445H69.1681V66.3678H69.1661Z" fill="white"/>
<path d="M79.247 67.4599C78.6897 67.4599 78.2905 67.6382 78.0474 67.9928C77.8042 68.3475 77.6827 68.9249 77.6827 69.7253C77.6827 70.4366 77.8002 70.931 78.0373 71.2127C78.2743 71.4943 78.6776 71.6341 79.2449 71.6341H81.4475V72.7445H79.1821C78.7444 72.7445 78.3979 72.7162 78.1426 72.6554C77.8002 72.5723 77.482 72.4163 77.1923 72.1853C76.5398 71.6645 76.2156 70.8277 76.2156 69.6727C76.2156 68.542 76.4608 67.7092 76.9491 67.1722C77.4375 66.6372 78.1933 66.3678 79.2186 66.3678H81.4475V67.4599H79.247Z" fill="white"/>
<path d="M85.5954 67.4761C84.643 67.4761 84.1385 67.9706 84.0858 68.9594H87.798V70.0698H84.0858C84.0919 70.6372 84.2114 71.0404 84.4485 71.2775C84.6856 71.5146 85.0685 71.6321 85.5994 71.6321H87.796V72.7425H85.5305C85.0929 72.7425 84.7464 72.7141 84.4911 72.6534C84.1486 72.5703 83.8305 72.4143 83.5407 72.1833C82.8882 71.6625 82.564 70.8256 82.564 69.6706C82.564 68.54 82.8092 67.7071 83.2976 67.1702C83.7859 66.6352 84.5417 66.3657 85.567 66.3657H87.796V67.4761H85.5954Z" fill="white"/>
<path d="M38.7532 69.1174C36.583 69.1276 34.4149 69.1397 32.2447 69.158L16.3686 69.3018C11.0759 69.3869 5.78313 69.4376 0.492432 69.5551C5.78516 69.6726 11.0779 69.7233 16.3686 69.8084L32.2447 69.9523C34.4149 69.9705 36.583 69.9806 38.7532 69.9928V69.1174Z" fill="white"/>
<path d="M111.63 69.3018L95.7534 69.158C93.5832 69.1417 91.415 69.1296 89.2449 69.1195V69.9948C91.415 69.9847 93.5832 69.9725 95.7534 69.9563L111.63 69.8125C116.922 69.7253 122.215 69.6767 127.506 69.5592C122.215 69.4376 116.922 69.3869 111.63 69.3018Z" fill="white"/>
</svg>
