<svg width="327" height="21" viewBox="0 0 327 21" fill="none" xmlns="http://www.w3.org/2000/svg">
<path d="M106.5 10.5H-5.96046e-06" stroke="url(#paint0_linear_492_25405)"/>
<path d="M129.906 4.72656H133.93C134.987 4.72656 135.852 5.0651 136.523 5.74219C137.201 6.41406 137.539 7.28125 137.539 8.34375C137.539 9.41146 137.201 10.2839 136.523 10.9609C135.846 11.638 134.977 11.9766 133.914 11.9766H131.312V16H129.906V4.72656ZM131.312 5.97656V10.7266H133.562C134.365 10.7266 134.987 10.5182 135.43 10.1016C135.872 9.67969 136.094 9.09375 136.094 8.34375C136.094 7.59375 135.872 7.01302 135.43 6.60156C134.992 6.1849 134.37 5.97656 133.562 5.97656H131.312ZM142.031 8.91406C141.401 8.91406 140.878 9.13281 140.461 9.57031C140.049 10.0026 139.823 10.5599 139.781 11.2422H144.195C144.18 10.5547 143.974 9.99479 143.578 9.5625C143.182 9.13021 142.667 8.91406 142.031 8.91406ZM144.164 13.6719H145.5C145.38 14.3906 145.005 14.9818 144.375 15.4453C143.75 15.9089 142.997 16.1406 142.117 16.1406C140.956 16.1406 140.042 15.7656 139.375 15.0156C138.708 14.2656 138.375 13.25 138.375 11.9688C138.375 10.6979 138.708 9.67448 139.375 8.89844C140.047 8.1224 140.94 7.73438 142.055 7.73438C143.148 7.73438 144.013 8.10156 144.648 8.83594C145.284 9.57031 145.602 10.5547 145.602 11.7891V12.3047H139.773V12.3828C139.773 13.1641 139.987 13.7891 140.414 14.2578C140.841 14.7266 141.419 14.9609 142.148 14.9609C142.659 14.9609 143.094 14.8438 143.453 14.6094C143.812 14.375 144.049 14.0625 144.164 13.6719ZM149.82 16.1406C148.924 16.1406 148.182 15.9375 147.594 15.5312C147.005 15.1198 146.677 14.5729 146.609 13.8906H147.984C148.062 14.2448 148.26 14.5208 148.578 14.7188C148.901 14.9167 149.315 15.0156 149.82 15.0156C150.398 15.0156 150.849 14.8932 151.172 14.6484C151.495 14.3984 151.656 14.0703 151.656 13.6641C151.656 13.2109 151.505 12.8776 151.203 12.6641C150.901 12.4453 150.44 12.3359 149.82 12.3359H148.602V11.2266H149.82C150.862 11.2266 151.383 10.8307 151.383 10.0391C151.383 9.6849 151.253 9.40104 150.992 9.1875C150.737 8.97396 150.357 8.86719 149.852 8.86719C149.372 8.86719 148.977 8.96354 148.664 9.15625C148.352 9.34896 148.167 9.60677 148.109 9.92969H146.789C146.878 9.25781 147.195 8.72396 147.742 8.32812C148.289 7.93229 148.992 7.73438 149.852 7.73438C150.758 7.73438 151.461 7.9349 151.961 8.33594C152.461 8.73177 152.711 9.26302 152.711 9.92969C152.711 10.3464 152.586 10.7188 152.336 11.0469C152.091 11.375 151.768 11.5859 151.367 11.6797V11.7422C151.893 11.8568 152.294 12.0781 152.57 12.4062C152.852 12.7292 152.992 13.1276 152.992 13.6016C152.992 14.362 152.701 14.9766 152.117 15.4453C151.539 15.9089 150.773 16.1406 149.82 16.1406ZM155.148 19.0391C154.904 19.0391 154.708 19.0234 154.562 18.9922V17.8516C154.688 17.8776 154.865 17.8906 155.094 17.8906C155.474 17.8906 155.779 17.7891 156.008 17.5859C156.237 17.388 156.43 17.0521 156.586 16.5781L156.773 16.0078L153.773 7.875H155.227L157.477 14.6406H157.5L159.75 7.875H161.18L157.984 16.5703C157.635 17.5182 157.258 18.1667 156.852 18.5156C156.451 18.8646 155.883 19.0391 155.148 19.0391ZM164.094 12.4141C164.057 12.8828 164.005 13.2969 163.938 13.6562C163.875 14.0156 163.784 14.3516 163.664 14.6641C163.544 14.9766 163.396 15.2344 163.219 15.4375C163.047 15.6354 162.831 15.7917 162.57 15.9062C162.315 16.0156 162.018 16.0703 161.68 16.0703C161.492 16.0703 161.331 16.0417 161.195 15.9844V14.7578C161.32 14.7995 161.458 14.8203 161.609 14.8203C161.99 14.8203 162.273 14.6146 162.461 14.2031C162.648 13.7865 162.768 13.1797 162.82 12.3828L163.133 7.875H168.453V16H167.109V8.99219H164.344L164.094 12.4141ZM173.234 11.5859H171.719V14.8828H173.234C173.76 14.8828 174.18 14.7318 174.492 14.4297C174.81 14.1276 174.969 13.7292 174.969 13.2344C174.969 12.7344 174.81 12.3359 174.492 12.0391C174.18 11.737 173.76 11.5859 173.234 11.5859ZM170.375 16V7.875H171.719V10.4688H173.258C174.19 10.4688 174.932 10.7188 175.484 11.2188C176.036 11.7188 176.312 12.3906 176.312 13.2344C176.312 14.0781 176.036 14.75 175.484 15.25C174.932 15.75 174.19 16 173.258 16H170.375ZM183.039 7.875V8.99219H180.414V16H179.07V8.99219H176.445V7.875H183.039ZM186.672 14.9844C187.312 14.9844 187.849 14.7865 188.281 14.3906C188.719 13.9896 188.938 13.4974 188.938 12.9141V12.25L186.766 12.3828C186.219 12.4193 185.794 12.5521 185.492 12.7812C185.195 13.0104 185.047 13.3177 185.047 13.7031C185.047 14.0885 185.195 14.3984 185.492 14.6328C185.789 14.8672 186.182 14.9844 186.672 14.9844ZM186.367 16.1406C185.56 16.1406 184.906 15.9167 184.406 15.4688C183.911 15.0208 183.664 14.4323 183.664 13.7031C183.664 13.0052 183.919 12.4479 184.43 12.0312C184.945 11.6146 185.672 11.3802 186.609 11.3281L188.938 11.1953V10.5156C188.938 10.0208 188.781 9.63281 188.469 9.35156C188.156 9.07031 187.719 8.92969 187.156 8.92969C186.641 8.92969 186.221 9.04427 185.898 9.27344C185.576 9.4974 185.37 9.8125 185.281 10.2188H183.969C184.016 9.49479 184.328 8.90104 184.906 8.4375C185.49 7.96875 186.25 7.73438 187.188 7.73438C188.141 7.73438 188.896 7.97396 189.453 8.45312C190.016 8.93229 190.297 9.57552 190.297 10.3828V16H189.008V14.6016H188.977C188.732 15.0651 188.372 15.4375 187.898 15.7188C187.424 16 186.914 16.1406 186.367 16.1406ZM197.961 7.875V8.99219H195.336V16H193.992V8.99219H191.367V7.875H197.961Z" fill="white"/>
<path d="M220.5 10.5H327" stroke="url(#paint1_linear_492_25405)"/>
<defs>
<linearGradient id="paint0_linear_492_25405" x1="106.5" y1="10.9999" x2="-1.05776e-07" y2="11" gradientUnits="userSpaceOnUse">
<stop stop-color="white"/>
<stop offset="1" stop-color="white" stop-opacity="0"/>
</linearGradient>
<linearGradient id="paint1_linear_492_25405" x1="220.5" y1="10.9999" x2="327" y2="11" gradientUnits="userSpaceOnUse">
<stop stop-color="white"/>
<stop offset="1" stop-color="white" stop-opacity="0"/>
</linearGradient>
</defs>
</svg>
