<svg width="48" height="48" viewBox="0 0 48 48" fill="none" xmlns="http://www.w3.org/2000/svg">
<rect width="48" height="48" rx="8" fill="#00B812"/>
<path d="M17 22C17 20.8954 17.8954 20 19 20H29C30.1046 20 31 20.8954 31 22V30C31 31.1046 30.1046 32 29 32H19C17.8954 32 17 31.1046 17 30V22Z" stroke="white" stroke-width="2"/>
<path d="M21.5 23.5H26.5" stroke="white" stroke-width="2" stroke-linecap="round"/>
<path d="M21 20V14C21 13.4477 21.4477 13 22 13H26C26.5523 13 27 13.4477 27 14V20" stroke="white" stroke-width="2" stroke-linecap="round"/>
<path d="M20 34.5V32.5" stroke="white" stroke-width="2" stroke-linecap="round"/>
<path d="M28 34.5V32.5" stroke="white" stroke-width="2" stroke-linecap="round"/>
</svg>
