<svg width="49" height="48" viewBox="0 0 49 48" fill="none" xmlns="http://www.w3.org/2000/svg">
<path fill-rule="evenodd" clip-rule="evenodd" d="M23.5026 13.6418C20.0755 14.3343 17.4961 17.3647 17.4961 20.9982V26.9914C17.4961 26.9914 17.4961 29.2411 15.9963 29.2411H33.9939C32.4941 29.2411 32.4941 26.9914 32.4941 26.9914V20.9982C32.4941 17.3638 29.9141 14.3342 26.4876 13.6418C26.4924 13.5929 26.4949 13.5434 26.4949 13.4932C26.4949 12.6649 25.8234 11.9934 24.9951 11.9934C24.1668 11.9934 23.4953 12.6649 23.4953 13.4932C23.4953 13.5434 23.4978 13.5929 23.5026 13.6418ZM24.9951 35.9902C23.3385 35.9902 21.9955 34.6472 21.9955 32.9906H27.9947C27.9947 34.6472 26.6517 35.9902 24.9951 35.9902ZM14.4965 30.7409C14.4965 29.9126 15.1714 29.2411 15.9898 29.2411H34.0005C34.8251 29.2411 35.4937 29.9068 35.4937 30.7409C35.4937 31.5692 34.8188 32.2407 34.0005 32.2407H15.9898C15.1651 32.2407 14.4965 31.575 14.4965 30.7409Z" fill="white"/>
<circle cx="31.9967" cy="15" r="4" fill="#00B812" stroke="#3651FE" stroke-width="2"/>
</svg>
