<svg width="53" height="72" viewBox="0 0 53 72" fill="none" xmlns="http://www.w3.org/2000/svg">
<path fill-rule="evenodd" clip-rule="evenodd" d="M6.95121e-08 2.36842C3.11216e-08 1.06038 1.06038 0 2.36842 0H47.3684C50.2461 0 52.5789 2.33283 52.5789 5.21053L52.579 66.7895C52.579 69.6672 50.2461 72 47.3684 72H2.36842C1.06038 72 2.08205e-06 70.9396 2.04366e-06 69.6316L6.95121e-08 2.36842ZM2.36842 0.947368C1.58359 0.947368 0.947368 1.58359 0.947369 2.36842L0.94737 69.6316C0.947371 70.4164 1.5836 71.0526 2.36842 71.0526H47.3684C49.7229 71.0526 51.6316 69.144 51.6316 66.7895L51.6316 5.21053C51.6316 2.85605 49.7229 0.947368 47.3684 0.947368H2.36842Z" fill="#3651FE"/>
<path d="M14.1926 51.5784C14.1265 51.5784 14.0614 51.5774 13.9972 51.5754C13.9331 51.5734 13.8729 51.5694 13.8168 51.5634L13.8168 53.1359H13.0801L13.0801 49.1129H14.2408C14.4352 49.1129 14.6046 49.1219 14.7489 49.1399C14.8952 49.156 15.0255 49.181 15.1398 49.2151C15.4144 49.2993 15.6259 49.4336 15.7742 49.618C15.9225 49.8024 15.9967 50.0369 15.9967 50.3216C15.9967 50.516 15.9566 50.6914 15.8764 50.8478C15.7963 51.0021 15.679 51.1334 15.5247 51.2417C15.3703 51.3499 15.1819 51.4331 14.9594 51.4912C14.7369 51.5494 14.4813 51.5784 14.1926 51.5784ZM13.8168 50.944C13.8589 50.95 13.912 50.955 13.9762 50.959C14.0423 50.961 14.1105 50.962 14.1806 50.962C14.3791 50.962 14.5454 50.946 14.6797 50.9139C14.814 50.8819 14.9223 50.8378 15.0045 50.7816C15.0867 50.7235 15.1458 50.6543 15.1819 50.5742C15.218 50.492 15.236 50.4028 15.236 50.3066C15.236 50.1883 15.2089 50.0861 15.1548 49.9999C15.1007 49.9137 15.0065 49.8465 14.8722 49.7984C14.802 49.7744 14.7148 49.7573 14.6106 49.7473C14.5084 49.7353 14.3821 49.7293 14.2317 49.7293H13.8168L13.8168 50.944Z" fill="#3651FE"/>
<path d="M18.6006 52.1106H17.0852L16.6913 53.1359H15.9065L17.5031 49.1129H18.1766L19.7732 53.1359H18.9945L18.6006 52.1106ZM17.8369 50.081C17.6966 50.502 17.5713 50.8538 17.461 51.1364L17.3227 51.4942H18.3631L18.2247 51.1364C18.1145 50.8518 17.9892 50.5 17.8489 50.081L17.8369 50.081Z" fill="#3651FE"/>
<path d="M22.323 51.9813C22.323 51.8791 22.2979 51.7969 22.2478 51.7348C22.1977 51.6706 22.1296 51.6185 22.0434 51.5784C21.9572 51.5383 21.8599 51.5063 21.7517 51.4822C21.6455 51.4562 21.5332 51.4311 21.4149 51.407C21.2586 51.373 21.1093 51.3329 20.9669 51.2868C20.8246 51.2387 20.6993 51.1735 20.5911 51.0913C20.4828 51.0071 20.3966 50.9009 20.3325 50.7726C20.2684 50.6443 20.2363 50.484 20.2363 50.2915C20.2363 50.079 20.2734 49.8946 20.3475 49.7383C20.4217 49.5799 20.5219 49.4496 20.6482 49.3474C20.7765 49.2432 20.9258 49.166 21.0962 49.1159C21.2686 49.0637 21.462 49.0377 21.6765 49.0377C21.891 49.0377 22.1065 49.0587 22.323 49.1008C22.5395 49.1429 22.7259 49.197 22.8823 49.2632L22.8823 49.8946C22.6738 49.8124 22.4733 49.7533 22.2809 49.7172C22.0905 49.6791 21.9111 49.6601 21.7427 49.6601C21.5001 49.6601 21.3127 49.7042 21.1804 49.7924C21.0501 49.8806 20.985 50.0129 20.985 50.1893C20.985 50.2915 21.006 50.3757 21.0481 50.4419C21.0922 50.508 21.1513 50.5631 21.2255 50.6072C21.2997 50.6493 21.3849 50.6834 21.4811 50.7095C21.5773 50.7355 21.6795 50.7596 21.7878 50.7816C21.9582 50.8177 22.1205 50.8598 22.2749 50.9079C22.4312 50.954 22.5695 51.0192 22.6898 51.1034C22.8101 51.1875 22.9053 51.2978 22.9755 51.4341C23.0456 51.5684 23.0807 51.7408 23.0807 51.9513C23.0807 52.1678 23.0406 52.3552 22.9604 52.5135C22.8802 52.6719 22.766 52.8032 22.6177 52.9074C22.4713 53.0097 22.2929 53.0858 22.0824 53.1359C21.872 53.1861 21.6415 53.2111 21.3909 53.2111C21.1724 53.2111 20.9569 53.1891 20.7444 53.145C20.534 53.1029 20.3586 53.0427 20.2182 52.9646L20.2182 52.3422C20.4167 52.4283 20.6101 52.4915 20.7986 52.5316C20.987 52.5697 21.1814 52.5887 21.3819 52.5887C21.4981 52.5887 21.6124 52.5797 21.7246 52.5616C21.8369 52.5416 21.9371 52.5085 22.0253 52.4624C22.1155 52.4163 22.1877 52.3542 22.2418 52.276C22.2959 52.1958 22.323 52.0976 22.323 51.9813Z" fill="#3651FE"/>
<path d="M25.0111 51.5784C24.9449 51.5784 24.8798 51.5774 24.8156 51.5754C24.7515 51.5734 24.6913 51.5694 24.6352 51.5634L24.6352 53.1359L23.8985 53.1359L23.8985 49.1129H25.0592C25.2536 49.1129 25.423 49.1219 25.5673 49.1399C25.7136 49.156 25.8439 49.181 25.9582 49.2151C26.2328 49.2993 26.4443 49.4336 26.5926 49.618C26.741 49.8024 26.8151 50.0369 26.8151 50.3216C26.8151 50.516 26.775 50.6914 26.6949 50.8478C26.6147 51.0021 26.4974 51.1334 26.3431 51.2417C26.1887 51.3499 26.0003 51.4331 25.7778 51.4912C25.5553 51.5494 25.2997 51.5784 25.0111 51.5784ZM24.6352 50.944C24.6773 50.95 24.7304 50.955 24.7946 50.959C24.8607 50.961 24.9289 50.962 24.999 50.962C25.1975 50.962 25.3639 50.946 25.4982 50.9139C25.6325 50.8819 25.7407 50.8378 25.8229 50.7816C25.9051 50.7235 25.9642 50.6543 26.0003 50.5742C26.0364 50.492 26.0544 50.4028 26.0544 50.3066C26.0544 50.1883 26.0274 50.0861 25.9732 49.9999C25.9191 49.9137 25.8249 49.8465 25.6906 49.7984C25.6204 49.7744 25.5332 49.7573 25.429 49.7473C25.3268 49.7353 25.2005 49.7293 25.0501 49.7293H24.6352L24.6352 50.944Z" fill="#3651FE"/>
<path d="M30.5766 51.1244C30.5766 50.8798 30.5465 50.6664 30.4864 50.484C30.4263 50.2995 30.3431 50.1462 30.2368 50.0239C30.1306 49.9016 30.0043 49.8104 29.858 49.7503C29.7117 49.6902 29.5513 49.6601 29.3769 49.6601C29.2025 49.6601 29.0422 49.6902 28.8958 49.7503C28.7495 49.8104 28.6232 49.9016 28.517 50.0239C28.4107 50.1462 28.3275 50.2995 28.2674 50.484C28.2073 50.6664 28.1772 50.8798 28.1772 51.1244C28.1772 51.3689 28.2073 51.5834 28.2674 51.7678C28.3275 51.9503 28.4107 52.1026 28.517 52.2249C28.6232 52.3452 28.7495 52.4364 28.8958 52.4985C29.0422 52.5586 29.2025 52.5887 29.3769 52.5887C29.5513 52.5887 29.7117 52.5586 29.858 52.4985C30.0043 52.4364 30.1306 52.3452 30.2368 52.2249C30.3431 52.1026 30.4263 51.9503 30.4864 51.7678C30.5465 51.5834 30.5766 51.3689 30.5766 51.1244ZM31.3373 51.1244C31.3373 51.4311 31.2932 51.7127 31.205 51.9693C31.1188 52.2239 30.9916 52.4434 30.8232 52.6278C30.6568 52.8122 30.4513 52.9555 30.2068 53.0578C29.9642 53.16 29.6876 53.2111 29.3769 53.2111C29.0662 53.2111 28.7886 53.16 28.544 53.0578C28.3015 52.9555 28.096 52.8122 27.9276 52.6278C27.7613 52.4434 27.634 52.2239 27.5458 51.9693C27.4596 51.7127 27.4165 51.4311 27.4165 51.1244C27.4165 50.8177 27.4596 50.5371 27.5458 50.2825C27.634 50.0259 27.7613 49.8054 27.9276 49.621C28.096 49.4366 28.3015 49.2933 28.544 49.191C28.7886 49.0888 29.0662 49.0377 29.3769 49.0377C29.6876 49.0377 29.9642 49.0888 30.2068 49.191C30.4513 49.2933 30.6568 49.4366 30.8232 49.621C30.9916 49.8054 31.1188 50.0259 31.205 50.2825C31.2932 50.5371 31.3373 50.8177 31.3373 51.1244Z" fill="#3651FE"/>
<path d="M35.0958 50.3216C35.0958 50.6022 35.0176 50.8408 34.8613 51.0372C34.7069 51.2316 34.4674 51.376 34.1427 51.4702L34.1427 51.4822L35.3394 53.1359L34.4554 53.1359L33.3609 51.5784L32.8558 51.5784L32.8558 53.1359L32.1191 53.1359L32.1191 49.1129L33.3429 49.1129C33.5453 49.1129 33.7337 49.1249 33.9081 49.1489C34.0825 49.171 34.2319 49.2051 34.3561 49.2512C34.5927 49.3414 34.7751 49.4757 34.9034 49.6541C35.0317 49.8305 35.0958 50.053 35.0958 50.3216ZM33.2196 50.962C33.388 50.962 33.5303 50.955 33.6465 50.941C33.7648 50.925 33.864 50.9019 33.9442 50.8718C34.0925 50.8157 34.1948 50.7395 34.2509 50.6433C34.309 50.5451 34.3381 50.4328 34.3381 50.3066C34.3381 50.1983 34.315 50.1031 34.2689 50.0209C34.2248 49.9367 34.1487 49.8706 34.0404 49.8225C33.9703 49.7904 33.8821 49.7673 33.7758 49.7533C33.6696 49.7373 33.5383 49.7293 33.3819 49.7293H32.8558L32.8558 50.962H33.2196Z" fill="#3651FE"/>
<path d="M37.6305 53.1359H36.8939L36.8939 49.7293H35.5949L35.5949 49.1129H38.9265L38.9265 49.7293H37.6305L37.6305 53.1359Z" fill="#3651FE"/>
<path fill-rule="evenodd" clip-rule="evenodd" d="M14.3506 18.7627C13.6753 20.3125 13.3008 22.0235 13.3008 23.822C13.3008 25.6204 13.6753 27.3314 14.3506 28.8812C14.4004 28.8587 14.4546 28.8351 14.5133 28.8104C14.9293 28.6352 15.5701 28.4084 16.4966 28.1838C17.4734 27.947 18.7689 27.7124 20.4547 27.5436C20.3174 26.3597 20.2443 25.1109 20.2443 23.822C20.2443 22.5331 20.3174 21.2843 20.4547 20.1004C18.7689 19.9316 17.4734 19.697 16.4966 19.4602C15.5701 19.2356 14.9293 19.0088 14.5133 18.8336C14.4546 18.8089 14.4004 18.7852 14.3506 18.7627ZM14.7615 17.9087C14.7982 17.9251 14.838 17.9424 14.8809 17.9605C15.2458 18.1141 15.8379 18.3257 16.7198 18.5395C17.6559 18.7664 18.9176 18.9956 20.579 19.1608C20.8498 17.3437 21.2751 15.7062 21.819 14.3466C22.3082 13.1236 22.9025 12.1021 23.5867 11.3786C23.5902 11.3749 23.5937 11.3713 23.5972 11.3676C19.7574 12.0973 16.5311 14.5588 14.7615 17.9087ZM25.9785 10.1969C18.4536 10.1969 12.3535 16.2971 12.3535 23.822C12.3535 31.3469 18.4536 37.4471 25.9785 37.4471C33.5035 37.4471 39.6036 31.3469 39.6036 23.822C39.6036 16.2971 33.5035 10.1969 25.9785 10.1969ZM25.5049 11.212C25.0997 11.3277 24.6868 11.5942 24.275 12.0296C23.7005 12.6371 23.1613 13.5415 22.6986 14.6985C22.1906 15.9683 21.786 17.514 21.5244 19.244C22.6771 19.3331 23.9975 19.3912 25.5049 19.4013L25.5049 11.212ZM25.5049 20.3487C23.9517 20.3384 22.5896 20.2778 21.3986 20.1845C21.2642 21.3358 21.1917 22.5564 21.1917 23.822C21.1917 25.0876 21.2642 26.3082 21.3986 27.4595C22.5896 27.3662 23.9517 27.3056 25.5049 27.2953L25.5049 20.3487ZM26.4522 27.2953L26.4522 20.3487C28.0053 20.3384 29.3675 20.2778 30.5584 20.1845C30.6929 21.3358 30.7654 22.5564 30.7654 23.822C30.7654 25.0876 30.6929 26.3082 30.5584 27.4595C29.3675 27.3662 28.0053 27.3056 26.4522 27.2953ZM25.5049 28.2427C23.9975 28.2528 22.6771 28.3109 21.5244 28.3999C21.786 30.13 22.1906 31.6757 22.6986 32.9455C23.1613 34.1025 23.7005 35.0069 24.275 35.6144C24.6868 36.0498 25.0997 36.3163 25.5049 36.432L25.5049 28.2427ZM23.5972 36.2764C23.5937 36.2727 23.5902 36.269 23.5867 36.2654C22.9025 35.5419 22.3082 34.5204 21.819 33.2974C21.2751 31.9378 20.8498 30.3002 20.579 28.4832C18.9176 28.6484 17.6559 28.8776 16.7198 29.1045C15.8379 29.3183 15.2458 29.5299 14.8809 29.6835C14.838 29.7016 14.7982 29.7189 14.7615 29.7352C16.5311 33.0852 19.7574 35.5467 23.5972 36.2764ZM14.402 29.9171C14.402 29.9171 14.4019 29.9171 14.4029 29.9165L14.402 29.9171ZM28.3599 36.2764C32.1996 35.5467 35.426 33.0852 37.1956 29.7352C37.1589 29.7189 37.1191 29.7016 37.0762 29.6835C36.7113 29.5299 36.1192 29.3183 35.2373 29.1045C34.3012 28.8776 33.0395 28.6484 31.3781 28.4832C31.1073 30.3002 30.682 31.9378 30.1381 33.2974C29.6489 34.5204 29.0546 35.5419 28.3703 36.2654C28.3669 36.269 28.3634 36.2727 28.3599 36.2764ZM30.4326 28.3999C29.28 28.3109 27.9596 28.2528 26.4522 28.2427L26.4522 36.432C26.8574 36.3163 27.2703 36.0498 27.682 35.6144C28.2565 35.0069 28.7957 34.1025 29.2585 32.9455C29.7664 31.6757 30.1711 30.13 30.4326 28.3999ZM31.5024 27.5436C33.1882 27.7124 34.4836 27.947 35.4605 28.1838C36.387 28.4084 37.0278 28.6352 37.4438 28.8104C37.5024 28.8351 37.5566 28.8587 37.6065 28.8812C38.2818 27.3314 38.6563 25.6204 38.6563 23.822C38.6563 22.0235 38.2818 20.3125 37.6065 18.7627C37.5566 18.7852 37.5024 18.8089 37.4438 18.8336C37.0278 19.0088 36.387 19.2356 35.4605 19.4602C34.4836 19.697 33.1882 19.9316 31.5024 20.1004C31.6396 21.2843 31.7128 22.5331 31.7128 23.822C31.7128 25.1109 31.6396 26.3597 31.5024 27.5436ZM31.3781 19.1608C31.1073 17.3437 30.682 15.7062 30.1381 14.3466C29.6489 13.1236 29.0546 12.1021 28.3703 11.3786C28.3669 11.3749 28.3634 11.3713 28.3599 11.3676C32.1996 12.0973 35.426 14.5588 37.1956 17.9087C37.1589 17.9251 37.1191 17.9424 37.0762 17.9605C36.7113 18.1141 36.1192 18.3257 35.2373 18.5395C34.3012 18.7664 33.0395 18.9956 31.3781 19.1608ZM30.4326 19.244C29.28 19.3331 27.9596 19.3912 26.4522 19.4013L26.4522 11.212C26.8574 11.3277 27.2703 11.5942 27.682 12.0296C28.2565 12.6371 28.7957 13.5415 29.2585 14.6985C29.7664 15.9683 30.1711 17.514 30.4326 19.244ZM37.5551 17.7269C37.5551 17.7269 37.5551 17.7269 37.5542 17.7275L37.5551 17.7269ZM37.5551 29.9171L37.5542 29.9165C37.5551 29.9171 37.5551 29.9171 37.5551 29.9171Z" fill="#3651FE"/>
<path fill-rule="evenodd" clip-rule="evenodd" d="M20.5837 59.5876C20.5837 59.2116 20.8886 58.9067 21.2646 58.9067H31.0344C31.4104 58.9067 31.7153 59.2115 31.7153 59.5876L31.7153 64.9165C31.7153 65.2926 31.4104 65.5975 31.0344 65.5975H21.2646C20.8886 65.5975 20.5837 65.2926 20.5837 64.9165L20.5837 59.5876ZM21.2646 59.3804C21.1502 59.3804 21.0574 59.4732 21.0574 59.5876L21.0574 62.0152H24.1501C24.2674 61.015 25.1178 60.2389 26.1495 60.2389C27.1812 60.2389 28.0317 61.015 28.1489 62.0152H31.2416L31.2416 59.5876C31.2416 59.4732 31.1488 59.3804 31.0344 59.3804H21.2646ZM31.2416 62.4889H28.1489C28.0317 63.4891 27.1812 64.2652 26.1495 64.2652C25.1178 64.2652 24.2674 63.4891 24.1501 62.4889H21.0574L21.0574 64.9165C21.0574 65.031 21.1502 65.1238 21.2646 65.1238H31.0344C31.1488 65.1238 31.2416 65.031 31.2416 64.9165L31.2416 62.4889ZM26.1495 60.7126C25.2993 60.7126 24.61 61.4019 24.61 62.2521C24.61 63.1023 25.2993 63.7916 26.1495 63.7916C26.9997 63.7916 27.689 63.1023 27.689 62.2521C27.689 61.4019 26.9997 60.7126 26.1495 60.7126Z" fill="#3651FE"/>
<path opacity="0.2" fill-rule="evenodd" clip-rule="evenodd" d="M2.74531 2.55786C3.00691 2.55786 3.21899 2.76994 3.21899 3.03155L3.21899 69.6434C3.21899 69.905 3.00692 70.1171 2.74531 70.1171C2.4837 70.1171 2.27162 69.905 2.27162 69.6434L2.27162 3.03155C2.27162 2.76994 2.4837 2.55786 2.74531 2.55786Z" fill="#3651FE"/>
</svg>
