<svg width="16" height="16" viewBox="0 0 16 16" fill="none" xmlns="http://www.w3.org/2000/svg">
<path d="M2.68387 0C1.20981 0 0 1.19053 0 2.6604V13.3268C0 14.795 1.20981 16 2.68387 16H13.3326C14.8108 16 16 14.795 16 13.3268V2.6604C16 1.19053 14.8108 0 13.3326 0H2.68387ZM5.66503 2.87983L6.76336 2.95751L9.96336 7.43821C10.1079 7.43821 13.0065 7.43862 13.0065 7.43821L13.7579 7.50309C14.1832 7.56797 14.8274 8.02624 14.8521 8.04525L15.009 8.16137L14.8521 8.2779C14.8274 8.30022 14.1832 8.768 13.7579 8.83329L13.0065 8.89775H9.96336C9.88078 9.01552 6.76336 13.3789 6.76336 13.3789L5.66503 13.4561C5.66503 13.4561 7.07303 9.31181 7.18865 8.97503C6.63949 8.95354 5.632 8.88577 5.62787 8.88453C5.62787 8.88453 3.51381 8.67708 3.38168 8.6651C3.29497 8.75849 2.13058 9.96927 2.13058 9.96968L1.26762 9.87918C1.26762 9.87918 1.88697 8.2436 1.92413 8.14856C1.88697 8.0531 1.26762 6.45719 1.26762 6.45719L2.13058 6.36669C2.13058 6.36669 3.30736 7.58863 3.39406 7.68367C3.73677 7.64483 5.62787 7.43945 5.64026 7.43821C5.64026 7.43821 6.86245 7.37416 7.18865 7.36093C7.07303 7.02415 5.7311 3.08644 5.7311 3.08644L5.66503 2.87983Z" fill="#EE2722"/>
</svg>
