<svg width="128" height="128" viewBox="0 0 128 128" fill="none" xmlns="http://www.w3.org/2000/svg">
<g clip-path="url(#clip0_802_2119)">
<path d="M128 0H0V128H128V0Z" fill="white"/>
<path d="M10.7317 8H8V10.7317H10.7317V8Z" fill="black"/>
<path d="M13.4634 8H10.7317V10.7317H13.4634V8Z" fill="black"/>
<path d="M16.1951 8H13.4634V10.7317H16.1951V8Z" fill="black"/>
<path d="M18.9268 8H16.1951V10.7317H18.9268V8Z" fill="black"/>
<path d="M21.6585 8H18.9268V10.7317H21.6585V8Z" fill="black"/>
<path d="M24.3902 8H21.6585V10.7317H24.3902V8Z" fill="black"/>
<path d="M27.122 8H24.3902V10.7317H27.122V8Z" fill="black"/>
<path d="M32.5854 8H29.8537V10.7317H32.5854V8Z" fill="black"/>
<path d="M35.3171 8H32.5854V10.7317H35.3171V8Z" fill="black"/>
<path d="M40.7805 8H38.0488V10.7317H40.7805V8Z" fill="black"/>
<path d="M43.5122 8H40.7805V10.7317H43.5122V8Z" fill="black"/>
<path d="M46.2439 8H43.5122V10.7317H46.2439V8Z" fill="black"/>
<path d="M57.1707 8H54.439V10.7317H57.1707V8Z" fill="black"/>
<path d="M59.9024 8H57.1707V10.7317H59.9024V8Z" fill="black"/>
<path d="M68.0976 8H65.3659V10.7317H68.0976V8Z" fill="black"/>
<path d="M70.8293 8H68.0976V10.7317H70.8293V8Z" fill="black"/>
<path d="M73.561 8H70.8293V10.7317H73.561V8Z" fill="black"/>
<path d="M84.4878 8H81.7561V10.7317H84.4878V8Z" fill="black"/>
<path d="M89.9512 8H87.2195V10.7317H89.9512V8Z" fill="black"/>
<path d="M92.6829 8H89.9512V10.7317H92.6829V8Z" fill="black"/>
<path d="M95.4146 8H92.6829V10.7317H95.4146V8Z" fill="black"/>
<path d="M98.1463 8H95.4146V10.7317H98.1463V8Z" fill="black"/>
<path d="M103.61 8H100.878V10.7317H103.61V8Z" fill="black"/>
<path d="M106.341 8H103.61V10.7317H106.341V8Z" fill="black"/>
<path d="M109.073 8H106.341V10.7317H109.073V8Z" fill="black"/>
<path d="M111.805 8H109.073V10.7317H111.805V8Z" fill="black"/>
<path d="M114.537 8H111.805V10.7317H114.537V8Z" fill="black"/>
<path d="M117.268 8H114.537V10.7317H117.268V8Z" fill="black"/>
<path d="M120 8H117.268V10.7317H120V8Z" fill="black"/>
<path d="M10.7317 10.7317H8V13.4634H10.7317V10.7317Z" fill="black"/>
<path d="M27.122 10.7317H24.3902V13.4634H27.122V10.7317Z" fill="black"/>
<path d="M35.3171 10.7317H32.5854V13.4634H35.3171V10.7317Z" fill="black"/>
<path d="M38.0488 10.7317H35.3171V13.4634H38.0488V10.7317Z" fill="black"/>
<path d="M43.5122 10.7317H40.7805V13.4634H43.5122V10.7317Z" fill="black"/>
<path d="M48.9756 10.7317H46.2439V13.4634H48.9756V10.7317Z" fill="black"/>
<path d="M62.6341 10.7317H59.9024V13.4634H62.6341V10.7317Z" fill="black"/>
<path d="M68.0976 10.7317H65.3659V13.4634H68.0976V10.7317Z" fill="black"/>
<path d="M73.561 10.7317H70.8293V13.4634H73.561V10.7317Z" fill="black"/>
<path d="M87.2195 10.7317H84.4878V13.4634H87.2195V10.7317Z" fill="black"/>
<path d="M89.9512 10.7317H87.2195V13.4634H89.9512V10.7317Z" fill="black"/>
<path d="M103.61 10.7317H100.878V13.4634H103.61V10.7317Z" fill="black"/>
<path d="M120 10.7317H117.268V13.4634H120V10.7317Z" fill="black"/>
<path d="M10.7317 13.4634H8V16.1951H10.7317V13.4634Z" fill="black"/>
<path d="M16.1951 13.4634H13.4634V16.1951H16.1951V13.4634Z" fill="black"/>
<path d="M18.9268 13.4634H16.1951V16.1951H18.9268V13.4634Z" fill="black"/>
<path d="M21.6585 13.4634H18.9268V16.1951H21.6585V13.4634Z" fill="black"/>
<path d="M27.122 13.4634H24.3902V16.1951H27.122V13.4634Z" fill="black"/>
<path d="M32.5854 13.4634H29.8537V16.1951H32.5854V13.4634Z" fill="black"/>
<path d="M38.0488 13.4634H35.3171V16.1951H38.0488V13.4634Z" fill="black"/>
<path d="M40.7805 13.4634H38.0488V16.1951H40.7805V13.4634Z" fill="black"/>
<path d="M48.9756 13.4634H46.2439V16.1951H48.9756V13.4634Z" fill="black"/>
<path d="M51.7073 13.4634H48.9756V16.1951H51.7073V13.4634Z" fill="black"/>
<path d="M59.9024 13.4634H57.1707V16.1951H59.9024V13.4634Z" fill="black"/>
<path d="M70.8293 13.4634H68.0976V16.1951H70.8293V13.4634Z" fill="black"/>
<path d="M84.4878 13.4634H81.7561V16.1951H84.4878V13.4634Z" fill="black"/>
<path d="M89.9512 13.4634H87.2195V16.1951H89.9512V13.4634Z" fill="black"/>
<path d="M103.61 13.4634H100.878V16.1951H103.61V13.4634Z" fill="black"/>
<path d="M109.073 13.4634H106.341V16.1951H109.073V13.4634Z" fill="black"/>
<path d="M111.805 13.4634H109.073V16.1951H111.805V13.4634Z" fill="black"/>
<path d="M114.537 13.4634H111.805V16.1951H114.537V13.4634Z" fill="black"/>
<path d="M120 13.4634H117.268V16.1951H120V13.4634Z" fill="black"/>
<path d="M10.7317 16.1951H8V18.9268H10.7317V16.1951Z" fill="black"/>
<path d="M16.1951 16.1951H13.4634V18.9268H16.1951V16.1951Z" fill="black"/>
<path d="M18.9268 16.1951H16.1951V18.9268H18.9268V16.1951Z" fill="black"/>
<path d="M21.6585 16.1951H18.9268V18.9268H21.6585V16.1951Z" fill="black"/>
<path d="M27.122 16.1951H24.3902V18.9268H27.122V16.1951Z" fill="black"/>
<path d="M32.5854 16.1951H29.8537V18.9268H32.5854V16.1951Z" fill="black"/>
<path d="M40.7805 16.1951H38.0488V18.9268H40.7805V16.1951Z" fill="black"/>
<path d="M46.2439 16.1951H43.5122V18.9268H46.2439V16.1951Z" fill="black"/>
<path d="M48.9756 16.1951H46.2439V18.9268H48.9756V16.1951Z" fill="black"/>
<path d="M54.439 16.1951H51.7073V18.9268H54.439V16.1951Z" fill="black"/>
<path d="M57.1707 16.1951H54.439V18.9268H57.1707V16.1951Z" fill="black"/>
<path d="M68.0976 16.1951H65.3659V18.9268H68.0976V16.1951Z" fill="black"/>
<path d="M70.8293 16.1951H68.0976V18.9268H70.8293V16.1951Z" fill="black"/>
<path d="M73.561 16.1951H70.8293V18.9268H73.561V16.1951Z" fill="black"/>
<path d="M81.7561 16.1951H79.0244V18.9268H81.7561V16.1951Z" fill="black"/>
<path d="M95.4146 16.1951H92.6829V18.9268H95.4146V16.1951Z" fill="black"/>
<path d="M103.61 16.1951H100.878V18.9268H103.61V16.1951Z" fill="black"/>
<path d="M109.073 16.1951H106.341V18.9268H109.073V16.1951Z" fill="black"/>
<path d="M111.805 16.1951H109.073V18.9268H111.805V16.1951Z" fill="black"/>
<path d="M114.537 16.1951H111.805V18.9268H114.537V16.1951Z" fill="black"/>
<path d="M120 16.1951H117.268V18.9268H120V16.1951Z" fill="black"/>
<path d="M10.7317 18.9268H8V21.6585H10.7317V18.9268Z" fill="black"/>
<path d="M16.1951 18.9268H13.4634V21.6585H16.1951V18.9268Z" fill="black"/>
<path d="M18.9268 18.9268H16.1951V21.6585H18.9268V18.9268Z" fill="black"/>
<path d="M21.6585 18.9268H18.9268V21.6585H21.6585V18.9268Z" fill="black"/>
<path d="M27.122 18.9268H24.3902V21.6585H27.122V18.9268Z" fill="black"/>
<path d="M32.5854 18.9268H29.8537V21.6585H32.5854V18.9268Z" fill="black"/>
<path d="M40.7805 18.9268H38.0488V21.6585H40.7805V18.9268Z" fill="black"/>
<path d="M43.5122 18.9268H40.7805V21.6585H43.5122V18.9268Z" fill="black"/>
<path d="M46.2439 18.9268H43.5122V21.6585H46.2439V18.9268Z" fill="black"/>
<path d="M59.9024 18.9268L57.1707 18.9268V21.6585H59.9024V18.9268Z" fill="black"/>
<path d="M62.6341 18.9268H59.9024V21.6585H62.6341V18.9268Z" fill="black"/>
<path d="M65.3659 18.9268L62.6341 18.9268V21.6585H65.3659V18.9268Z" fill="black"/>
<path d="M68.0976 18.9268H65.3659V21.6585H68.0976V18.9268Z" fill="black"/>
<path d="M76.2927 18.9268L73.561 18.9268V21.6585H76.2927V18.9268Z" fill="black"/>
<path d="M79.0244 18.9268L76.2927 18.9268V21.6585H79.0244V18.9268Z" fill="black"/>
<path d="M98.1463 18.9268L95.4146 18.9268V21.6585H98.1463V18.9268Z" fill="black"/>
<path d="M103.61 18.9268H100.878V21.6585H103.61V18.9268Z" fill="black"/>
<path d="M109.073 18.9268H106.341V21.6585H109.073V18.9268Z" fill="black"/>
<path d="M111.805 18.9268H109.073V21.6585H111.805V18.9268Z" fill="black"/>
<path d="M114.537 18.9268H111.805V21.6585H114.537V18.9268Z" fill="black"/>
<path d="M120 18.9268H117.268V21.6585H120V18.9268Z" fill="black"/>
<path d="M10.7317 21.6585H8V24.3902H10.7317V21.6585Z" fill="black"/>
<path d="M27.122 21.6585H24.3902V24.3902H27.122V21.6585Z" fill="black"/>
<path d="M32.5854 21.6585H29.8537V24.3902H32.5854V21.6585Z" fill="black"/>
<path d="M38.0488 21.6585H35.3171V24.3902H38.0488V21.6585Z" fill="black"/>
<path d="M43.5122 21.6585H40.7805V24.3902H43.5122V21.6585Z" fill="black"/>
<path d="M46.2439 21.6585H43.5122V24.3902H46.2439V21.6585Z" fill="black"/>
<path d="M51.7073 21.6585H48.9756V24.3902H51.7073V21.6585Z" fill="black"/>
<path d="M54.439 21.6585H51.7073V24.3902H54.439V21.6585Z" fill="black"/>
<path d="M59.9024 21.6585H57.1707V24.3902H59.9024V21.6585Z" fill="black"/>
<path d="M62.6341 21.6585H59.9024V24.3902H62.6341V21.6585Z" fill="black"/>
<path d="M70.8293 21.6585H68.0976V24.3902H70.8293V21.6585Z" fill="black"/>
<path d="M73.561 21.6585H70.8293V24.3902H73.561V21.6585Z" fill="black"/>
<path d="M79.0244 21.6585H76.2927V24.3902H79.0244V21.6585Z" fill="black"/>
<path d="M81.7561 21.6585H79.0244V24.3902H81.7561V21.6585Z" fill="black"/>
<path d="M84.4878 21.6585H81.7561V24.3902H84.4878V21.6585Z" fill="black"/>
<path d="M87.2195 21.6585H84.4878V24.3902H87.2195V21.6585Z" fill="black"/>
<path d="M92.6829 21.6585H89.9512V24.3902H92.6829V21.6585Z" fill="black"/>
<path d="M95.4146 21.6585H92.6829V24.3902H95.4146V21.6585Z" fill="black"/>
<path d="M98.1463 21.6585H95.4146V24.3902H98.1463V21.6585Z" fill="black"/>
<path d="M103.61 21.6585H100.878V24.3902H103.61V21.6585Z" fill="black"/>
<path d="M120 21.6585H117.268V24.3902H120V21.6585Z" fill="black"/>
<path d="M10.7317 24.3902H8V27.122H10.7317V24.3902Z" fill="black"/>
<path d="M13.4634 24.3902H10.7317V27.122H13.4634V24.3902Z" fill="black"/>
<path d="M16.1951 24.3902H13.4634V27.122H16.1951V24.3902Z" fill="black"/>
<path d="M18.9268 24.3902H16.1951V27.122H18.9268V24.3902Z" fill="black"/>
<path d="M21.6585 24.3902H18.9268V27.122H21.6585V24.3902Z" fill="black"/>
<path d="M24.3902 24.3902H21.6585V27.122H24.3902V24.3902Z" fill="black"/>
<path d="M27.122 24.3902H24.3902V27.122H27.122V24.3902Z" fill="black"/>
<path d="M32.5854 24.3902H29.8537V27.122H32.5854V24.3902Z" fill="black"/>
<path d="M38.0488 24.3902H35.3171V27.122H38.0488V24.3902Z" fill="black"/>
<path d="M43.5122 24.3902H40.7805V27.122H43.5122V24.3902Z" fill="black"/>
<path d="M48.9756 24.3902H46.2439V27.122H48.9756V24.3902Z" fill="black"/>
<path d="M54.439 24.3902H51.7073V27.122H54.439V24.3902Z" fill="black"/>
<path d="M59.9024 24.3902H57.1707V27.122H59.9024V24.3902Z" fill="black"/>
<path d="M65.3659 24.3902H62.6341V27.122H65.3659V24.3902Z" fill="black"/>
<path d="M70.8293 24.3902H68.0976V27.122H70.8293V24.3902Z" fill="black"/>
<path d="M76.2927 24.3902H73.561V27.122H76.2927V24.3902Z" fill="black"/>
<path d="M81.7561 24.3902H79.0244V27.122H81.7561V24.3902Z" fill="black"/>
<path d="M87.2195 24.3902H84.4878V27.122H87.2195V24.3902Z" fill="black"/>
<path d="M92.6829 24.3902H89.9512V27.122H92.6829V24.3902Z" fill="black"/>
<path d="M98.1463 24.3902H95.4146V27.122H98.1463V24.3902Z" fill="black"/>
<path d="M103.61 24.3902H100.878V27.122H103.61V24.3902Z" fill="black"/>
<path d="M106.341 24.3902H103.61V27.122H106.341V24.3902Z" fill="black"/>
<path d="M109.073 24.3902H106.341V27.122H109.073V24.3902Z" fill="black"/>
<path d="M111.805 24.3902H109.073V27.122H111.805V24.3902Z" fill="black"/>
<path d="M114.537 24.3902H111.805V27.122H114.537V24.3902Z" fill="black"/>
<path d="M117.268 24.3902H114.537V27.122H117.268V24.3902Z" fill="black"/>
<path d="M120 24.3902H117.268V27.122H120V24.3902Z" fill="black"/>
<path d="M35.3171 27.122H32.5854V29.8537H35.3171V27.122Z" fill="black"/>
<path d="M48.9756 27.122H46.2439V29.8537H48.9756V27.122Z" fill="black"/>
<path d="M54.439 27.122H51.7073V29.8537H54.439V27.122Z" fill="black"/>
<path d="M59.9024 27.122H57.1707V29.8537H59.9024V27.122Z" fill="black"/>
<path d="M65.3659 27.122H62.6341V29.8537H65.3659V27.122Z" fill="black"/>
<path d="M70.8293 27.122H68.0976V29.8537H70.8293V27.122Z" fill="black"/>
<path d="M81.7561 27.122H79.0244V29.8537H81.7561V27.122Z" fill="black"/>
<path d="M84.4878 27.122H81.7561V29.8537H84.4878V27.122Z" fill="black"/>
<path d="M16.1951 29.8537H13.4634V32.5854H16.1951V29.8537Z" fill="black"/>
<path d="M18.9268 29.8537H16.1951V32.5854H18.9268V29.8537Z" fill="black"/>
<path d="M21.6585 29.8537H18.9268V32.5854H21.6585V29.8537Z" fill="black"/>
<path d="M24.3902 29.8537H21.6585V32.5854H24.3902V29.8537Z" fill="black"/>
<path d="M27.122 29.8537H24.3902V32.5854H27.122V29.8537Z" fill="black"/>
<path d="M29.8537 29.8537H27.122V32.5854H29.8537V29.8537Z" fill="black"/>
<path d="M35.3171 29.8537H32.5854V32.5854H35.3171V29.8537Z" fill="black"/>
<path d="M43.5122 29.8537H40.7805V32.5854H43.5122V29.8537Z" fill="black"/>
<path d="M46.2439 29.8537H43.5122V32.5854H46.2439V29.8537Z" fill="black"/>
<path d="M48.9756 29.8537H46.2439V32.5854H48.9756V29.8537Z" fill="black"/>
<path d="M54.439 29.8537H51.7073V32.5854H54.439V29.8537Z" fill="black"/>
<path d="M59.9024 29.8537H57.1707V32.5854H59.9024V29.8537Z" fill="black"/>
<path d="M62.6341 29.8537H59.9024V32.5854H62.6341V29.8537Z" fill="black"/>
<path d="M68.0976 29.8537H65.3659V32.5854H68.0976V29.8537Z" fill="black"/>
<path d="M84.4878 29.8537H81.7561V32.5854H84.4878V29.8537Z" fill="black"/>
<path d="M89.9512 29.8537H87.2195V32.5854H89.9512V29.8537Z" fill="black"/>
<path d="M92.6829 29.8537H89.9512V32.5854H92.6829V29.8537Z" fill="black"/>
<path d="M95.4146 29.8537H92.6829V32.5854H95.4146V29.8537Z" fill="black"/>
<path d="M98.1463 29.8537H95.4146V32.5854H98.1463V29.8537Z" fill="black"/>
<path d="M100.878 29.8537H98.1463V32.5854H100.878V29.8537Z" fill="black"/>
<path d="M106.341 29.8537H103.61V32.5854H106.341V29.8537Z" fill="black"/>
<path d="M109.073 29.8537H106.341V32.5854H109.073V29.8537Z" fill="black"/>
<path d="M111.805 29.8537H109.073V32.5854H111.805V29.8537Z" fill="black"/>
<path d="M114.537 29.8537H111.805V32.5854H114.537V29.8537Z" fill="black"/>
<path d="M120 29.8537H117.268V32.5854H120V29.8537Z" fill="black"/>
<path d="M10.7317 32.5854H8V35.3171H10.7317V32.5854Z" fill="black"/>
<path d="M21.6585 32.5854H18.9268L18.9268 35.3171H21.6585V32.5854Z" fill="black"/>
<path d="M32.5854 32.5854H29.8537V35.3171H32.5854V32.5854Z" fill="black"/>
<path d="M40.7805 32.5854H38.0488V35.3171H40.7805V32.5854Z" fill="black"/>
<path d="M43.5122 32.5854H40.7805V35.3171H43.5122V32.5854Z" fill="black"/>
<path d="M46.2439 32.5854H43.5122V35.3171H46.2439V32.5854Z" fill="black"/>
<path d="M54.439 32.5854H51.7073V35.3171H54.439V32.5854Z" fill="black"/>
<path d="M57.1707 32.5854H54.439V35.3171H57.1707V32.5854Z" fill="black"/>
<path d="M68.0976 32.5854H65.3659V35.3171H68.0976V32.5854Z" fill="black"/>
<path d="M70.8293 32.5854H68.0976V35.3171H70.8293V32.5854Z" fill="black"/>
<path d="M73.561 32.5854H70.8293V35.3171H73.561V32.5854Z" fill="black"/>
<path d="M76.2927 32.5854H73.561V35.3171H76.2927V32.5854Z" fill="black"/>
<path d="M81.7561 32.5854H79.0244V35.3171H81.7561V32.5854Z" fill="black"/>
<path d="M87.2195 32.5854H84.4878V35.3171H87.2195V32.5854Z" fill="black"/>
<path d="M89.9512 32.5854H87.2195V35.3171H89.9512V32.5854Z" fill="black"/>
<path d="M95.4146 32.5854H92.6829V35.3171H95.4146V32.5854Z" fill="black"/>
<path d="M111.805 32.5854H109.073V35.3171H111.805V32.5854Z" fill="black"/>
<path d="M117.268 32.5854H114.537V35.3171H117.268V32.5854Z" fill="black"/>
<path d="M10.7317 35.3171H8V38.0488H10.7317V35.3171Z" fill="black"/>
<path d="M13.4634 35.3171H10.7317V38.0488H13.4634V35.3171Z" fill="black"/>
<path d="M16.1951 35.3171H13.4634V38.0488H16.1951V35.3171Z" fill="black"/>
<path d="M24.3902 35.3171H21.6585V38.0488H24.3902V35.3171Z" fill="black"/>
<path d="M27.122 35.3171H24.3902V38.0488H27.122V35.3171Z" fill="black"/>
<path d="M32.5854 35.3171H29.8537V38.0488H32.5854V35.3171Z" fill="black"/>
<path d="M35.3171 35.3171H32.5854V38.0488H35.3171V35.3171Z" fill="black"/>
<path d="M46.2439 35.3171H43.5122V38.0488H46.2439V35.3171Z" fill="black"/>
<path d="M48.9756 35.3171H46.2439V38.0488H48.9756V35.3171Z" fill="black"/>
<path d="M57.1707 35.3171H54.439V38.0488H57.1707V35.3171Z" fill="black"/>
<path d="M59.9024 35.3171H57.1707V38.0488H59.9024V35.3171Z" fill="black"/>
<path d="M62.6341 35.3171H59.9024V38.0488H62.6341V35.3171Z" fill="black"/>
<path d="M65.3659 35.3171H62.6341V38.0488H65.3659V35.3171Z" fill="black"/>
<path d="M73.561 35.3171H70.8293V38.0488H73.561V35.3171Z" fill="black"/>
<path d="M76.2927 35.3171H73.561V38.0488H76.2927V35.3171Z" fill="black"/>
<path d="M79.0244 35.3171H76.2927V38.0488H79.0244V35.3171Z" fill="black"/>
<path d="M84.4878 35.3171H81.7561V38.0488H84.4878V35.3171Z" fill="black"/>
<path d="M89.9512 35.3171H87.2195V38.0488H89.9512V35.3171Z" fill="black"/>
<path d="M92.6829 35.3171H89.9512V38.0488H92.6829V35.3171Z" fill="black"/>
<path d="M95.4146 35.3171H92.6829V38.0488H95.4146V35.3171Z" fill="black"/>
<path d="M103.61 35.3171H100.878V38.0488H103.61V35.3171Z" fill="black"/>
<path d="M114.537 35.3171H111.805V38.0488H114.537V35.3171Z" fill="black"/>
<path d="M117.268 35.3171H114.537V38.0488H117.268V35.3171Z" fill="black"/>
<path d="M10.7317 38.0488H8V40.7805H10.7317V38.0488Z" fill="black"/>
<path d="M16.1951 38.0488H13.4634V40.7805H16.1951V38.0488Z" fill="black"/>
<path d="M18.9268 38.0488H16.1951V40.7805H18.9268V38.0488Z" fill="black"/>
<path d="M21.6585 38.0488H18.9268V40.7805H21.6585V38.0488Z" fill="black"/>
<path d="M35.3171 38.0488H32.5854V40.7805H35.3171V38.0488Z" fill="black"/>
<path d="M40.7805 38.0488H38.0488V40.7805H40.7805V38.0488Z" fill="black"/>
<path d="M43.5122 38.0488H40.7805V40.7805H43.5122V38.0488Z" fill="black"/>
<path d="M48.9756 38.0488H46.2439V40.7805H48.9756V38.0488Z" fill="black"/>
<path d="M51.7073 38.0488H48.9756V40.7805H51.7073V38.0488Z" fill="black"/>
<path d="M54.439 38.0488H51.7073V40.7805H54.439V38.0488Z" fill="black"/>
<path d="M57.1707 38.0488H54.439V40.7805H57.1707V38.0488Z" fill="black"/>
<path d="M62.6341 38.0488H59.9024V40.7805H62.6341V38.0488Z" fill="black"/>
<path d="M65.3659 38.0488H62.6341V40.7805H65.3659V38.0488Z" fill="black"/>
<path d="M68.0976 38.0488H65.3659V40.7805H68.0976V38.0488Z" fill="black"/>
<path d="M70.8293 38.0488H68.0976V40.7805H70.8293V38.0488Z" fill="black"/>
<path d="M84.4878 38.0488H81.7561V40.7805H84.4878V38.0488Z" fill="black"/>
<path d="M89.9512 38.0488H87.2195V40.7805H89.9512V38.0488Z" fill="black"/>
<path d="M92.6829 38.0488H89.9512V40.7805H92.6829V38.0488Z" fill="black"/>
<path d="M103.61 38.0488H100.878V40.7805H103.61V38.0488Z" fill="black"/>
<path d="M106.341 38.0488H103.61V40.7805H106.341V38.0488Z" fill="black"/>
<path d="M120 38.0488H117.268V40.7805H120V38.0488Z" fill="black"/>
<path d="M16.1951 40.7805H13.4634V43.5122H16.1951V40.7805Z" fill="black"/>
<path d="M18.9268 40.7805H16.1951V43.5122H18.9268V40.7805Z" fill="black"/>
<path d="M21.6585 40.7805H18.9268V43.5122H21.6585V40.7805Z" fill="black"/>
<path d="M24.3902 40.7805H21.6585V43.5122H24.3902V40.7805Z" fill="black"/>
<path d="M27.122 40.7805H24.3902V43.5122H27.122V40.7805Z" fill="black"/>
<path d="M35.3171 40.7805H32.5854V43.5122H35.3171V40.7805Z" fill="black"/>
<path d="M38.0488 40.7805H35.3171V43.5122H38.0488V40.7805Z" fill="black"/>
<path d="M43.5122 40.7805H40.7805V43.5122H43.5122V40.7805Z" fill="black"/>
<path d="M48.9756 40.7805H46.2439V43.5122H48.9756V40.7805Z" fill="black"/>
<path d="M59.9024 40.7805H57.1707V43.5122H59.9024V40.7805Z" fill="black"/>
<path d="M62.6341 40.7805H59.9024V43.5122H62.6341V40.7805Z" fill="black"/>
<path d="M73.561 40.7805H70.8293V43.5122H73.561V40.7805Z" fill="black"/>
<path d="M89.9512 40.7805H87.2195V43.5122H89.9512V40.7805Z" fill="black"/>
<path d="M92.6829 40.7805H89.9512V43.5122H92.6829V40.7805Z" fill="black"/>
<path d="M103.61 40.7805H100.878V43.5122H103.61V40.7805Z" fill="black"/>
<path d="M106.341 40.7805H103.61V43.5122H106.341V40.7805Z" fill="black"/>
<path d="M109.073 40.7805H106.341V43.5122H109.073V40.7805Z" fill="black"/>
<path d="M117.268 40.7805H114.537V43.5122H117.268V40.7805Z" fill="black"/>
<path d="M10.7317 43.5122H8V46.2439H10.7317V43.5122Z" fill="black"/>
<path d="M18.9268 43.5122H16.1951V46.2439H18.9268V43.5122Z" fill="black"/>
<path d="M24.3902 43.5122H21.6585V46.2439H24.3902V43.5122Z" fill="black"/>
<path d="M29.8537 43.5122H27.122V46.2439H29.8537V43.5122Z" fill="black"/>
<path d="M35.3171 43.5122H32.5854V46.2439H35.3171V43.5122Z" fill="black"/>
<path d="M38.0488 43.5122H35.3171V46.2439H38.0488V43.5122Z" fill="black"/>
<path d="M51.7073 43.5122H48.9756V46.2439H51.7073V43.5122Z" fill="black"/>
<path d="M57.1707 43.5122H54.439V46.2439H57.1707V43.5122Z" fill="black"/>
<path d="M62.6341 43.5122H59.9024V46.2439H62.6341V43.5122Z" fill="black"/>
<path d="M65.3659 43.5122H62.6341V46.2439H65.3659V43.5122Z" fill="black"/>
<path d="M68.0976 43.5122H65.3659V46.2439H68.0976V43.5122Z" fill="black"/>
<path d="M73.561 43.5122H70.8293V46.2439H73.561V43.5122Z" fill="black"/>
<path d="M79.0244 43.5122H76.2927V46.2439H79.0244V43.5122Z" fill="black"/>
<path d="M81.7561 43.5122H79.0244V46.2439H81.7561V43.5122Z" fill="black"/>
<path d="M95.4146 43.5122H92.6829V46.2439H95.4146V43.5122Z" fill="black"/>
<path d="M98.1463 43.5122H95.4146V46.2439H98.1463V43.5122Z" fill="black"/>
<path d="M100.878 43.5122H98.1463V46.2439H100.878V43.5122Z" fill="black"/>
<path d="M103.61 43.5122H100.878V46.2439H103.61V43.5122Z" fill="black"/>
<path d="M111.805 43.5122H109.073V46.2439H111.805V43.5122Z" fill="black"/>
<path d="M117.268 43.5122H114.537V46.2439H117.268V43.5122Z" fill="black"/>
<path d="M10.7317 46.2439H8V48.9756H10.7317V46.2439Z" fill="black"/>
<path d="M16.1951 46.2439H13.4634V48.9756H16.1951V46.2439Z" fill="black"/>
<path d="M21.6585 46.2439H18.9268L18.9268 48.9756H21.6585V46.2439Z" fill="black"/>
<path d="M27.122 46.2439H24.3902V48.9756H27.122V46.2439Z" fill="black"/>
<path d="M40.7805 46.2439H38.0488V48.9756H40.7805V46.2439Z" fill="black"/>
<path d="M43.5122 46.2439H40.7805V48.9756H43.5122V46.2439Z" fill="black"/>
<path d="M48.9756 46.2439H46.2439V48.9756H48.9756V46.2439Z" fill="black"/>
<path d="M54.439 46.2439H51.7073V48.9756H54.439V46.2439Z" fill="black"/>
<path d="M57.1707 46.2439H54.439V48.9756H57.1707V46.2439Z" fill="black"/>
<path d="M59.9024 46.2439H57.1707V48.9756H59.9024V46.2439Z" fill="black"/>
<path d="M62.6341 46.2439H59.9024V48.9756H62.6341V46.2439Z" fill="black"/>
<path d="M68.0976 46.2439H65.3659V48.9756H68.0976V46.2439Z" fill="black"/>
<path d="M70.8293 46.2439H68.0976V48.9756H70.8293V46.2439Z" fill="black"/>
<path d="M76.2927 46.2439H73.561V48.9756H76.2927V46.2439Z" fill="black"/>
<path d="M84.4878 46.2439H81.7561V48.9756H84.4878V46.2439Z" fill="black"/>
<path d="M89.9512 46.2439H87.2195V48.9756H89.9512V46.2439Z" fill="black"/>
<path d="M95.4146 46.2439H92.6829V48.9756H95.4146V46.2439Z" fill="black"/>
<path d="M98.1463 46.2439H95.4146V48.9756H98.1463V46.2439Z" fill="black"/>
<path d="M106.341 46.2439H103.61V48.9756H106.341V46.2439Z" fill="black"/>
<path d="M109.073 46.2439H106.341V48.9756H109.073V46.2439Z" fill="black"/>
<path d="M117.268 46.2439H114.537V48.9756H117.268V46.2439Z" fill="black"/>
<path d="M120 46.2439H117.268V48.9756H120V46.2439Z" fill="black"/>
<path d="M13.4634 48.9756H10.7317V51.7073H13.4634V48.9756Z" fill="black"/>
<path d="M16.1951 48.9756H13.4634V51.7073H16.1951V48.9756Z" fill="black"/>
<path d="M21.6585 48.9756H18.9268V51.7073H21.6585V48.9756Z" fill="black"/>
<path d="M32.5854 48.9756H29.8537V51.7073H32.5854V48.9756Z" fill="black"/>
<path d="M43.5122 48.9756H40.7805V51.7073H43.5122V48.9756Z" fill="black"/>
<path d="M48.9756 48.9756H46.2439V51.7073H48.9756V48.9756Z" fill="black"/>
<path d="M51.7073 48.9756H48.9756V51.7073H51.7073V48.9756Z" fill="black"/>
<path d="M57.1707 48.9756H54.439V51.7073H57.1707V48.9756Z" fill="black"/>
<path d="M59.9024 48.9756H57.1707V51.7073H59.9024V48.9756Z" fill="black"/>
<path d="M68.0976 48.9756H65.3659V51.7073H68.0976V48.9756Z" fill="black"/>
<path d="M79.0244 48.9756H76.2927V51.7073H79.0244V48.9756Z" fill="black"/>
<path d="M81.7561 48.9756H79.0244V51.7073H81.7561V48.9756Z" fill="black"/>
<path d="M87.2195 48.9756H84.4878V51.7073H87.2195V48.9756Z" fill="black"/>
<path d="M103.61 48.9756H100.878V51.7073H103.61V48.9756Z" fill="black"/>
<path d="M109.073 48.9756H106.341V51.7073H109.073V48.9756Z" fill="black"/>
<path d="M111.805 48.9756H109.073V51.7073H111.805V48.9756Z" fill="black"/>
<path d="M114.537 48.9756H111.805V51.7073H114.537V48.9756Z" fill="black"/>
<path d="M10.7317 51.7073H8V54.439H10.7317V51.7073Z" fill="black"/>
<path d="M16.1951 51.7073H13.4634V54.439H16.1951V51.7073Z" fill="black"/>
<path d="M24.3902 51.7073H21.6585V54.439H24.3902V51.7073Z" fill="black"/>
<path d="M27.122 51.7073H24.3902V54.439H27.122V51.7073Z" fill="black"/>
<path d="M29.8537 51.7073H27.122V54.439H29.8537V51.7073Z" fill="black"/>
<path d="M32.5854 51.7073H29.8537V54.439H32.5854V51.7073Z" fill="black"/>
<path d="M35.3171 51.7073H32.5854V54.439H35.3171V51.7073Z" fill="black"/>
<path d="M40.7805 51.7073H38.0488V54.439H40.7805V51.7073Z" fill="black"/>
<path d="M43.5122 51.7073H40.7805V54.439H43.5122V51.7073Z" fill="black"/>
<path d="M46.2439 51.7073H43.5122V54.439H46.2439V51.7073Z" fill="black"/>
<path d="M48.9756 51.7073H46.2439V54.439H48.9756V51.7073Z" fill="black"/>
<path d="M51.7073 51.7073H48.9756V54.439H51.7073V51.7073Z" fill="black"/>
<path d="M54.439 51.7073H51.7073V54.439H54.439V51.7073Z" fill="black"/>
<path d="M68.0976 51.7073H65.3659V54.439H68.0976V51.7073Z" fill="black"/>
<path d="M76.2927 51.7073H73.561V54.439H76.2927V51.7073Z" fill="black"/>
<path d="M79.0244 51.7073H76.2927V54.439H79.0244V51.7073Z" fill="black"/>
<path d="M87.2195 51.7073H84.4878V54.439H87.2195V51.7073Z" fill="black"/>
<path d="M89.9512 51.7073H87.2195V54.439H89.9512V51.7073Z" fill="black"/>
<path d="M95.4146 51.7073H92.6829V54.439H95.4146V51.7073Z" fill="black"/>
<path d="M98.1463 51.7073H95.4146V54.439H98.1463V51.7073Z" fill="black"/>
<path d="M100.878 51.7073H98.1463V54.439H100.878V51.7073Z" fill="black"/>
<path d="M106.341 51.7073H103.61V54.439H106.341V51.7073Z" fill="black"/>
<path d="M109.073 51.7073H106.341V54.439H109.073V51.7073Z" fill="black"/>
<path d="M111.805 51.7073H109.073V54.439H111.805V51.7073Z" fill="black"/>
<path d="M21.6585 54.439H18.9268V57.1707H21.6585V54.439Z" fill="black"/>
<path d="M32.5854 54.439H29.8537V57.1707H32.5854V54.439Z" fill="black"/>
<path d="M43.5122 54.439H40.7805V57.1707H43.5122V54.439Z" fill="black"/>
<path d="M54.439 54.439H51.7073V57.1707H54.439V54.439Z" fill="black"/>
<path d="M57.1707 54.439H54.439V57.1707H57.1707V54.439Z" fill="black"/>
<path d="M59.9024 54.439H57.1707V57.1707H59.9024V54.439Z" fill="black"/>
<path d="M62.6341 54.439H59.9024V57.1707H62.6341V54.439Z" fill="black"/>
<path d="M76.2927 54.439H73.561V57.1707H76.2927V54.439Z" fill="black"/>
<path d="M81.7561 54.439H79.0244V57.1707H81.7561V54.439Z" fill="black"/>
<path d="M87.2195 54.439H84.4878V57.1707H87.2195V54.439Z" fill="black"/>
<path d="M98.1463 54.439H95.4146V57.1707H98.1463V54.439Z" fill="black"/>
<path d="M10.7317 57.1707H8V59.9024H10.7317V57.1707Z" fill="black"/>
<path d="M13.4634 57.1707H10.7317V59.9024H13.4634V57.1707Z" fill="black"/>
<path d="M18.9268 57.1707H16.1951V59.9024H18.9268L18.9268 57.1707Z" fill="black"/>
<path d="M27.122 57.1707H24.3902V59.9024H27.122V57.1707Z" fill="black"/>
<path d="M29.8537 57.1707H27.122V59.9024H29.8537V57.1707Z" fill="black"/>
<path d="M32.5854 57.1707H29.8537V59.9024H32.5854V57.1707Z" fill="black"/>
<path d="M35.3171 57.1707H32.5854V59.9024H35.3171V57.1707Z" fill="black"/>
<path d="M38.0488 57.1707H35.3171V59.9024H38.0488V57.1707Z" fill="black"/>
<path d="M40.7805 57.1707H38.0488V59.9024H40.7805V57.1707Z" fill="black"/>
<path d="M43.5122 57.1707H40.7805V59.9024H43.5122V57.1707Z" fill="black"/>
<path d="M48.9756 57.1707H46.2439V59.9024H48.9756V57.1707Z" fill="black"/>
<path d="M51.7073 57.1707H48.9756V59.9024H51.7073V57.1707Z" fill="black"/>
<path d="M54.439 57.1707H51.7073V59.9024H54.439V57.1707Z" fill="black"/>
<path d="M62.6341 57.1707H59.9024V59.9024H62.6341V57.1707Z" fill="black"/>
<path d="M68.0976 57.1707H65.3659V59.9024H68.0976V57.1707Z" fill="black"/>
<path d="M70.8293 57.1707H68.0976V59.9024H70.8293V57.1707Z" fill="black"/>
<path d="M73.561 57.1707H70.8293V59.9024H73.561V57.1707Z" fill="black"/>
<path d="M76.2927 57.1707H73.561V59.9024H76.2927V57.1707Z" fill="black"/>
<path d="M81.7561 57.1707H79.0244V59.9024H81.7561V57.1707Z" fill="black"/>
<path d="M87.2195 57.1707H84.4878V59.9024H87.2195V57.1707Z" fill="black"/>
<path d="M95.4146 57.1707H92.6829V59.9024H95.4146V57.1707Z" fill="black"/>
<path d="M98.1463 57.1707H95.4146V59.9024H98.1463V57.1707Z" fill="black"/>
<path d="M103.61 57.1707H100.878V59.9024H103.61V57.1707Z" fill="black"/>
<path d="M109.073 57.1707H106.341V59.9024H109.073V57.1707Z" fill="black"/>
<path d="M117.268 57.1707H114.537V59.9024H117.268V57.1707Z" fill="black"/>
<path d="M120 57.1707H117.268V59.9024H120V57.1707Z" fill="black"/>
<path d="M10.7317 59.9024H8V62.6341H10.7317V59.9024Z" fill="black"/>
<path d="M18.9268 59.9024H16.1951V62.6341H18.9268V59.9024Z" fill="black"/>
<path d="M21.6585 59.9024H18.9268V62.6341H21.6585V59.9024Z" fill="black"/>
<path d="M32.5854 59.9024H29.8537V62.6341H32.5854V59.9024Z" fill="black"/>
<path d="M35.3171 59.9024H32.5854V62.6341H35.3171V59.9024Z" fill="black"/>
<path d="M40.7805 59.9024H38.0488V62.6341H40.7805V59.9024Z" fill="black"/>
<path d="M48.9756 59.9024H46.2439V62.6341H48.9756V59.9024Z" fill="black"/>
<path d="M51.7073 59.9024H48.9756V62.6341H51.7073V59.9024Z" fill="black"/>
<path d="M54.439 59.9024H51.7073V62.6341H54.439V59.9024Z" fill="black"/>
<path d="M57.1707 59.9024H54.439V62.6341H57.1707V59.9024Z" fill="black"/>
<path d="M68.0976 59.9024H65.3659V62.6341H68.0976V59.9024Z" fill="black"/>
<path d="M73.561 59.9024H70.8293V62.6341H73.561V59.9024Z" fill="black"/>
<path d="M79.0244 59.9024H76.2927V62.6341H79.0244V59.9024Z" fill="black"/>
<path d="M100.878 59.9024H98.1463V62.6341H100.878V59.9024Z" fill="black"/>
<path d="M109.073 59.9024H106.341V62.6341H109.073V59.9024Z" fill="black"/>
<path d="M111.805 59.9024H109.073V62.6341H111.805V59.9024Z" fill="black"/>
<path d="M117.268 59.9024H114.537V62.6341H117.268V59.9024Z" fill="black"/>
<path d="M16.1951 62.6341H13.4634V65.3659H16.1951V62.6341Z" fill="black"/>
<path d="M27.122 62.6341H24.3902V65.3659H27.122V62.6341Z" fill="black"/>
<path d="M29.8537 62.6341H27.122V65.3659H29.8537V62.6341Z" fill="black"/>
<path d="M38.0488 62.6341H35.3171V65.3659H38.0488V62.6341Z" fill="black"/>
<path d="M46.2439 62.6341H43.5122V65.3659H46.2439V62.6341Z" fill="black"/>
<path d="M51.7073 62.6341H48.9756V65.3659H51.7073V62.6341Z" fill="black"/>
<path d="M62.6341 62.6341H59.9024V65.3659H62.6341V62.6341Z" fill="black"/>
<path d="M70.8293 62.6341H68.0976V65.3659H70.8293V62.6341Z" fill="black"/>
<path d="M76.2927 62.6341H73.561V65.3659H76.2927V62.6341Z" fill="black"/>
<path d="M81.7561 62.6341H79.0244V65.3659H81.7561V62.6341Z" fill="black"/>
<path d="M92.6829 62.6341H89.9512V65.3659H92.6829V62.6341Z" fill="black"/>
<path d="M98.1463 62.6341H95.4146V65.3659H98.1463V62.6341Z" fill="black"/>
<path d="M109.073 62.6341H106.341V65.3659H109.073V62.6341Z" fill="black"/>
<path d="M114.537 62.6341H111.805V65.3659H114.537V62.6341Z" fill="black"/>
<path d="M120 62.6341H117.268V65.3659H120V62.6341Z" fill="black"/>
<path d="M10.7317 65.3659H8V68.0976H10.7317V65.3659Z" fill="black"/>
<path d="M16.1951 65.3659H13.4634V68.0976H16.1951V65.3659Z" fill="black"/>
<path d="M24.3902 65.3659H21.6585V68.0976H24.3902V65.3659Z" fill="black"/>
<path d="M29.8537 65.3659H27.122V68.0976H29.8537V65.3659Z" fill="black"/>
<path d="M35.3171 65.3659H32.5854V68.0976H35.3171V65.3659Z" fill="black"/>
<path d="M38.0488 65.3659H35.3171V68.0976H38.0488V65.3659Z" fill="black"/>
<path d="M40.7805 65.3659H38.0488V68.0976H40.7805V65.3659Z" fill="black"/>
<path d="M46.2439 65.3659H43.5122V68.0976H46.2439V65.3659Z" fill="black"/>
<path d="M51.7073 65.3659H48.9756V68.0976H51.7073V65.3659Z" fill="black"/>
<path d="M57.1707 65.3659H54.439V68.0976H57.1707V65.3659Z" fill="black"/>
<path d="M62.6341 65.3659H59.9024V68.0976H62.6341V65.3659Z" fill="black"/>
<path d="M70.8293 65.3659H68.0976V68.0976H70.8293V65.3659Z" fill="black"/>
<path d="M73.561 65.3659H70.8293V68.0976H73.561V65.3659Z" fill="black"/>
<path d="M79.0244 65.3659H76.2927V68.0976H79.0244V65.3659Z" fill="black"/>
<path d="M84.4878 65.3659H81.7561V68.0976H84.4878V65.3659Z" fill="black"/>
<path d="M89.9512 65.3659H87.2195V68.0976H89.9512V65.3659Z" fill="black"/>
<path d="M92.6829 65.3659H89.9512V68.0976H92.6829V65.3659Z" fill="black"/>
<path d="M95.4146 65.3659H92.6829V68.0976H95.4146V65.3659Z" fill="black"/>
<path d="M100.878 65.3659H98.1463V68.0976H100.878V65.3659Z" fill="black"/>
<path d="M103.61 65.3659H100.878V68.0976H103.61V65.3659Z" fill="black"/>
<path d="M106.341 65.3659H103.61V68.0976H106.341V65.3659Z" fill="black"/>
<path d="M111.805 65.3659H109.073V68.0976H111.805V65.3659Z" fill="black"/>
<path d="M114.537 65.3659H111.805V68.0976H114.537V65.3659Z" fill="black"/>
<path d="M117.268 65.3659H114.537V68.0976H117.268V65.3659Z" fill="black"/>
<path d="M10.7317 68.0976H8V70.8293H10.7317V68.0976Z" fill="black"/>
<path d="M13.4634 68.0976H10.7317V70.8293H13.4634V68.0976Z" fill="black"/>
<path d="M16.1951 68.0976H13.4634V70.8293H16.1951V68.0976Z" fill="black"/>
<path d="M21.6585 68.0976H18.9268V70.8293H21.6585V68.0976Z" fill="black"/>
<path d="M27.122 68.0976H24.3902V70.8293H27.122V68.0976Z" fill="black"/>
<path d="M46.2439 68.0976H43.5122V70.8293H46.2439V68.0976Z" fill="black"/>
<path d="M57.1707 68.0976H54.439V70.8293H57.1707V68.0976Z" fill="black"/>
<path d="M59.9024 68.0976H57.1707V70.8293H59.9024V68.0976Z" fill="black"/>
<path d="M62.6341 68.0976H59.9024V70.8293H62.6341V68.0976Z" fill="black"/>
<path d="M68.0976 68.0976H65.3659V70.8293H68.0976V68.0976Z" fill="black"/>
<path d="M70.8293 68.0976H68.0976V70.8293H70.8293V68.0976Z" fill="black"/>
<path d="M89.9512 68.0976H87.2195V70.8293H89.9512V68.0976Z" fill="black"/>
<path d="M92.6829 68.0976H89.9512V70.8293H92.6829V68.0976Z" fill="black"/>
<path d="M95.4146 68.0976H92.6829V70.8293H95.4146V68.0976Z" fill="black"/>
<path d="M100.878 68.0976H98.1463V70.8293H100.878V68.0976Z" fill="black"/>
<path d="M106.341 68.0976H103.61V70.8293H106.341V68.0976Z" fill="black"/>
<path d="M111.805 68.0976H109.073V70.8293H111.805V68.0976Z" fill="black"/>
<path d="M10.7317 70.8293H8V73.561H10.7317V70.8293Z" fill="black"/>
<path d="M21.6585 70.8293H18.9268V73.561H21.6585V70.8293Z" fill="black"/>
<path d="M32.5854 70.8293H29.8537V73.561H32.5854V70.8293Z" fill="black"/>
<path d="M35.3171 70.8293H32.5854V73.561H35.3171V70.8293Z" fill="black"/>
<path d="M46.2439 70.8293H43.5122V73.561H46.2439V70.8293Z" fill="black"/>
<path d="M57.1707 70.8293H54.439V73.561H57.1707V70.8293Z" fill="black"/>
<path d="M65.3659 70.8293H62.6341V73.561H65.3659V70.8293Z" fill="black"/>
<path d="M68.0976 70.8293H65.3659V73.561H68.0976V70.8293Z" fill="black"/>
<path d="M79.0244 70.8293H76.2927V73.561H79.0244V70.8293Z" fill="black"/>
<path d="M87.2195 70.8293H84.4878V73.561H87.2195V70.8293Z" fill="black"/>
<path d="M89.9512 70.8293H87.2195V73.561H89.9512V70.8293Z" fill="black"/>
<path d="M100.878 70.8293H98.1463V73.561H100.878V70.8293Z" fill="black"/>
<path d="M106.341 70.8293H103.61V73.561H106.341V70.8293Z" fill="black"/>
<path d="M111.805 70.8293H109.073V73.561H111.805V70.8293Z" fill="black"/>
<path d="M10.7317 73.561H8V76.2927H10.7317V73.561Z" fill="black"/>
<path d="M13.4634 73.561H10.7317V76.2927H13.4634V73.561Z" fill="black"/>
<path d="M16.1951 73.561H13.4634V76.2927H16.1951V73.561Z" fill="black"/>
<path d="M18.9268 73.561H16.1951V76.2927H18.9268L18.9268 73.561Z" fill="black"/>
<path d="M21.6585 73.561H18.9268L18.9268 76.2927H21.6585V73.561Z" fill="black"/>
<path d="M24.3902 73.561H21.6585V76.2927H24.3902V73.561Z" fill="black"/>
<path d="M27.122 73.561H24.3902V76.2927H27.122V73.561Z" fill="black"/>
<path d="M35.3171 73.561H32.5854V76.2927H35.3171V73.561Z" fill="black"/>
<path d="M38.0488 73.561H35.3171V76.2927H38.0488V73.561Z" fill="black"/>
<path d="M40.7805 73.561H38.0488V76.2927H40.7805V73.561Z" fill="black"/>
<path d="M46.2439 73.561H43.5122V76.2927H46.2439V73.561Z" fill="black"/>
<path d="M51.7073 73.561H48.9756V76.2927H51.7073V73.561Z" fill="black"/>
<path d="M54.439 73.561H51.7073V76.2927H54.439V73.561Z" fill="black"/>
<path d="M57.1707 73.561H54.439V76.2927H57.1707V73.561Z" fill="black"/>
<path d="M59.9024 73.561H57.1707V76.2927H59.9024V73.561Z" fill="black"/>
<path d="M65.3659 73.561H62.6341V76.2927H65.3659V73.561Z" fill="black"/>
<path d="M68.0976 73.561H65.3659V76.2927H68.0976V73.561Z" fill="black"/>
<path d="M70.8293 73.561H68.0976V76.2927H70.8293V73.561Z" fill="black"/>
<path d="M76.2927 73.561H73.561V76.2927H76.2927V73.561Z" fill="black"/>
<path d="M79.0244 73.561H76.2927V76.2927H79.0244V73.561Z" fill="black"/>
<path d="M81.7561 73.561H79.0244V76.2927H81.7561V73.561Z" fill="black"/>
<path d="M89.9512 73.561H87.2195V76.2927H89.9512V73.561Z" fill="black"/>
<path d="M92.6829 73.561H89.9512V76.2927H92.6829V73.561Z" fill="black"/>
<path d="M95.4146 73.561H92.6829V76.2927H95.4146V73.561Z" fill="black"/>
<path d="M98.1463 73.561H95.4146V76.2927H98.1463V73.561Z" fill="black"/>
<path d="M100.878 73.561H98.1463V76.2927H100.878V73.561Z" fill="black"/>
<path d="M111.805 73.561H109.073V76.2927H111.805V73.561Z" fill="black"/>
<path d="M114.537 73.561H111.805V76.2927H114.537V73.561Z" fill="black"/>
<path d="M120 73.561H117.268V76.2927H120V73.561Z" fill="black"/>
<path d="M18.9268 76.2927H16.1951V79.0244H18.9268V76.2927Z" fill="black"/>
<path d="M21.6585 76.2927H18.9268V79.0244H21.6585V76.2927Z" fill="black"/>
<path d="M32.5854 76.2927H29.8537V79.0244H32.5854V76.2927Z" fill="black"/>
<path d="M43.5122 76.2927H40.7805V79.0244H43.5122V76.2927Z" fill="black"/>
<path d="M54.439 76.2927H51.7073V79.0244H54.439V76.2927Z" fill="black"/>
<path d="M59.9024 76.2927H57.1707V79.0244H59.9024V76.2927Z" fill="black"/>
<path d="M65.3659 76.2927H62.6341V79.0244H65.3659V76.2927Z" fill="black"/>
<path d="M76.2927 76.2927H73.561V79.0244H76.2927V76.2927Z" fill="black"/>
<path d="M87.2195 76.2927H84.4878V79.0244H87.2195V76.2927Z" fill="black"/>
<path d="M89.9512 76.2927H87.2195V79.0244H89.9512V76.2927Z" fill="black"/>
<path d="M98.1463 76.2927H95.4146V79.0244H98.1463V76.2927Z" fill="black"/>
<path d="M100.878 76.2927H98.1463V79.0244H100.878V76.2927Z" fill="black"/>
<path d="M109.073 76.2927H106.341V79.0244H109.073V76.2927Z" fill="black"/>
<path d="M120 76.2927H117.268V79.0244H120V76.2927Z" fill="black"/>
<path d="M10.7317 79.0244H8V81.7561H10.7317V79.0244Z" fill="black"/>
<path d="M13.4634 79.0244H10.7317V81.7561H13.4634V79.0244Z" fill="black"/>
<path d="M21.6585 79.0244H18.9268L18.9268 81.7561H21.6585V79.0244Z" fill="black"/>
<path d="M24.3902 79.0244H21.6585V81.7561H24.3902V79.0244Z" fill="black"/>
<path d="M27.122 79.0244H24.3902V81.7561H27.122V79.0244Z" fill="black"/>
<path d="M46.2439 79.0244H43.5122V81.7561H46.2439V79.0244Z" fill="black"/>
<path d="M48.9756 79.0244H46.2439V81.7561H48.9756V79.0244Z" fill="black"/>
<path d="M51.7073 79.0244H48.9756V81.7561H51.7073V79.0244Z" fill="black"/>
<path d="M57.1707 79.0244H54.439V81.7561H57.1707V79.0244Z" fill="black"/>
<path d="M59.9024 79.0244H57.1707V81.7561H59.9024V79.0244Z" fill="black"/>
<path d="M79.0244 79.0244H76.2927V81.7561H79.0244V79.0244Z" fill="black"/>
<path d="M84.4878 79.0244H81.7561V81.7561H84.4878V79.0244Z" fill="black"/>
<path d="M89.9512 79.0244H87.2195V81.7561H89.9512V79.0244Z" fill="black"/>
<path d="M95.4146 79.0244H92.6829V81.7561H95.4146V79.0244Z" fill="black"/>
<path d="M100.878 79.0244H98.1463V81.7561H100.878V79.0244Z" fill="black"/>
<path d="M103.61 79.0244H100.878V81.7561H103.61V79.0244Z" fill="black"/>
<path d="M114.537 79.0244H111.805V81.7561H114.537V79.0244Z" fill="black"/>
<path d="M117.268 79.0244H114.537V81.7561H117.268V79.0244Z" fill="black"/>
<path d="M13.4634 81.7561H10.7317V84.4878H13.4634V81.7561Z" fill="black"/>
<path d="M16.1951 81.7561H13.4634V84.4878H16.1951V81.7561Z" fill="black"/>
<path d="M18.9268 81.7561H16.1951V84.4878H18.9268L18.9268 81.7561Z" fill="black"/>
<path d="M24.3902 81.7561H21.6585V84.4878H24.3902V81.7561Z" fill="black"/>
<path d="M29.8537 81.7561H27.122V84.4878H29.8537V81.7561Z" fill="black"/>
<path d="M38.0488 81.7561H35.3171V84.4878H38.0488V81.7561Z" fill="black"/>
<path d="M43.5122 81.7561H40.7805V84.4878H43.5122V81.7561Z" fill="black"/>
<path d="M48.9756 81.7561H46.2439V84.4878H48.9756V81.7561Z" fill="black"/>
<path d="M51.7073 81.7561H48.9756V84.4878H51.7073V81.7561Z" fill="black"/>
<path d="M59.9024 81.7561H57.1707V84.4878H59.9024V81.7561Z" fill="black"/>
<path d="M62.6341 81.7561H59.9024V84.4878H62.6341V81.7561Z" fill="black"/>
<path d="M65.3659 81.7561H62.6341V84.4878H65.3659V81.7561Z" fill="black"/>
<path d="M70.8293 81.7561H68.0976V84.4878H70.8293V81.7561Z" fill="black"/>
<path d="M73.561 81.7561H70.8293V84.4878H73.561V81.7561Z" fill="black"/>
<path d="M81.7561 81.7561H79.0244V84.4878H81.7561V81.7561Z" fill="black"/>
<path d="M84.4878 81.7561H81.7561V84.4878H84.4878V81.7561Z" fill="black"/>
<path d="M87.2195 81.7561H84.4878V84.4878H87.2195V81.7561Z" fill="black"/>
<path d="M92.6829 81.7561H89.9512V84.4878H92.6829V81.7561Z" fill="black"/>
<path d="M95.4146 81.7561H92.6829V84.4878H95.4146V81.7561Z" fill="black"/>
<path d="M98.1463 81.7561H95.4146V84.4878H98.1463V81.7561Z" fill="black"/>
<path d="M103.61 81.7561H100.878V84.4878H103.61V81.7561Z" fill="black"/>
<path d="M106.341 81.7561H103.61V84.4878H106.341V81.7561Z" fill="black"/>
<path d="M114.537 81.7561H111.805V84.4878H114.537V81.7561Z" fill="black"/>
<path d="M117.268 81.7561H114.537V84.4878H117.268V81.7561Z" fill="black"/>
<path d="M13.4634 84.4878H10.7317V87.2195H13.4634V84.4878Z" fill="black"/>
<path d="M27.122 84.4878H24.3902V87.2195H27.122V84.4878Z" fill="black"/>
<path d="M29.8537 84.4878H27.122V87.2195H29.8537V84.4878Z" fill="black"/>
<path d="M38.0488 84.4878H35.3171V87.2195H38.0488V84.4878Z" fill="black"/>
<path d="M43.5122 84.4878H40.7805V87.2195H43.5122V84.4878Z" fill="black"/>
<path d="M48.9756 84.4878H46.2439V87.2195H48.9756V84.4878Z" fill="black"/>
<path d="M54.439 84.4878H51.7073V87.2195H54.439V84.4878Z" fill="black"/>
<path d="M70.8293 84.4878H68.0976V87.2195H70.8293V84.4878Z" fill="black"/>
<path d="M76.2927 84.4878H73.561V87.2195H76.2927V84.4878Z" fill="black"/>
<path d="M87.2195 84.4878H84.4878V87.2195H87.2195V84.4878Z" fill="black"/>
<path d="M106.341 84.4878H103.61V87.2195H106.341V84.4878Z" fill="black"/>
<path d="M109.073 84.4878H106.341V87.2195H109.073V84.4878Z" fill="black"/>
<path d="M10.7317 87.2195H8V89.9512H10.7317V87.2195Z" fill="black"/>
<path d="M18.9268 87.2195H16.1951V89.9512H18.9268V87.2195Z" fill="black"/>
<path d="M32.5854 87.2195H29.8537V89.9512H32.5854V87.2195Z" fill="black"/>
<path d="M35.3171 87.2195H32.5854V89.9512H35.3171V87.2195Z" fill="black"/>
<path d="M43.5122 87.2195H40.7805V89.9512H43.5122V87.2195Z" fill="black"/>
<path d="M46.2439 87.2195H43.5122V89.9512H46.2439V87.2195Z" fill="black"/>
<path d="M54.439 87.2195H51.7073V89.9512H54.439V87.2195Z" fill="black"/>
<path d="M65.3659 87.2195H62.6341V89.9512H65.3659V87.2195Z" fill="black"/>
<path d="M70.8293 87.2195H68.0976V89.9512H70.8293V87.2195Z" fill="black"/>
<path d="M76.2927 87.2195H73.561V89.9512H76.2927V87.2195Z" fill="black"/>
<path d="M87.2195 87.2195H84.4878V89.9512H87.2195V87.2195Z" fill="black"/>
<path d="M92.6829 87.2195H89.9512V89.9512H92.6829V87.2195Z" fill="black"/>
<path d="M98.1463 87.2195H95.4146V89.9512H98.1463V87.2195Z" fill="black"/>
<path d="M109.073 87.2195H106.341V89.9512H109.073V87.2195Z" fill="black"/>
<path d="M111.805 87.2195H109.073V89.9512H111.805V87.2195Z" fill="black"/>
<path d="M120 87.2195H117.268V89.9512H120V87.2195Z" fill="black"/>
<path d="M16.1951 89.9512H13.4634V92.6829H16.1951V89.9512Z" fill="black"/>
<path d="M18.9268 89.9512H16.1951V92.6829H18.9268V89.9512Z" fill="black"/>
<path d="M21.6585 89.9512H18.9268V92.6829H21.6585V89.9512Z" fill="black"/>
<path d="M24.3902 89.9512H21.6585V92.6829H24.3902V89.9512Z" fill="black"/>
<path d="M27.122 89.9512H24.3902V92.6829H27.122V89.9512Z" fill="black"/>
<path d="M29.8537 89.9512H27.122V92.6829H29.8537V89.9512Z" fill="black"/>
<path d="M32.5854 89.9512H29.8537V92.6829H32.5854V89.9512Z" fill="black"/>
<path d="M40.7805 89.9512H38.0488V92.6829H40.7805V89.9512Z" fill="black"/>
<path d="M43.5122 89.9512H40.7805V92.6829H43.5122V89.9512Z" fill="black"/>
<path d="M46.2439 89.9512H43.5122V92.6829H46.2439V89.9512Z" fill="black"/>
<path d="M48.9756 89.9512H46.2439V92.6829H48.9756V89.9512Z" fill="black"/>
<path d="M51.7073 89.9512H48.9756V92.6829H51.7073V89.9512Z" fill="black"/>
<path d="M54.439 89.9512H51.7073V92.6829H54.439V89.9512Z" fill="black"/>
<path d="M59.9024 89.9512H57.1707V92.6829H59.9024V89.9512Z" fill="black"/>
<path d="M62.6341 89.9512H59.9024V92.6829H62.6341V89.9512Z" fill="black"/>
<path d="M65.3659 89.9512H62.6341V92.6829H65.3659V89.9512Z" fill="black"/>
<path d="M70.8293 89.9512H68.0976V92.6829H70.8293V89.9512Z" fill="black"/>
<path d="M73.561 89.9512H70.8293V92.6829H73.561V89.9512Z" fill="black"/>
<path d="M76.2927 89.9512H73.561V92.6829H76.2927V89.9512Z" fill="black"/>
<path d="M79.0244 89.9512H76.2927V92.6829H79.0244V89.9512Z" fill="black"/>
<path d="M81.7561 89.9512H79.0244V92.6829H81.7561V89.9512Z" fill="black"/>
<path d="M84.4878 89.9512H81.7561V92.6829H84.4878V89.9512Z" fill="black"/>
<path d="M87.2195 89.9512H84.4878V92.6829H87.2195V89.9512Z" fill="black"/>
<path d="M98.1463 89.9512H95.4146V92.6829H98.1463V89.9512Z" fill="black"/>
<path d="M100.878 89.9512H98.1463V92.6829H100.878V89.9512Z" fill="black"/>
<path d="M103.61 89.9512H100.878V92.6829H103.61V89.9512Z" fill="black"/>
<path d="M109.073 89.9512H106.341V92.6829H109.073V89.9512Z" fill="black"/>
<path d="M117.268 89.9512H114.537V92.6829H117.268V89.9512Z" fill="black"/>
<path d="M120 89.9512H117.268V92.6829H120V89.9512Z" fill="black"/>
<path d="M10.7317 92.6829H8V95.4146H10.7317V92.6829Z" fill="black"/>
<path d="M18.9268 92.6829H16.1951V95.4146H18.9268V92.6829Z" fill="black"/>
<path d="M21.6585 92.6829H18.9268V95.4146H21.6585V92.6829Z" fill="black"/>
<path d="M35.3171 92.6829H32.5854V95.4146H35.3171V92.6829Z" fill="black"/>
<path d="M43.5122 92.6829H40.7805V95.4146H43.5122V92.6829Z" fill="black"/>
<path d="M46.2439 92.6829H43.5122V95.4146H46.2439V92.6829Z" fill="black"/>
<path d="M57.1707 92.6829H54.439V95.4146H57.1707V92.6829Z" fill="black"/>
<path d="M68.0976 92.6829H65.3659V95.4146H68.0976V92.6829Z" fill="black"/>
<path d="M79.0244 92.6829H76.2927V95.4146H79.0244V92.6829Z" fill="black"/>
<path d="M89.9512 92.6829H87.2195V95.4146H89.9512V92.6829Z" fill="black"/>
<path d="M95.4146 92.6829H92.6829V95.4146H95.4146V92.6829Z" fill="black"/>
<path d="M103.61 92.6829H100.878V95.4146H103.61V92.6829Z" fill="black"/>
<path d="M114.537 92.6829H111.805V95.4146H114.537V92.6829Z" fill="black"/>
<path d="M117.268 92.6829H114.537V95.4146H117.268V92.6829Z" fill="black"/>
<path d="M13.4634 95.4146H10.7317V98.1463H13.4634V95.4146Z" fill="black"/>
<path d="M24.3902 95.4146H21.6585V98.1463H24.3902V95.4146Z" fill="black"/>
<path d="M27.122 95.4146H24.3902V98.1463H27.122V95.4146Z" fill="black"/>
<path d="M29.8537 95.4146H27.122V98.1463H29.8537V95.4146Z" fill="black"/>
<path d="M40.7805 95.4146H38.0488V98.1463H40.7805V95.4146Z" fill="black"/>
<path d="M48.9756 95.4146H46.2439V98.1463H48.9756V95.4146Z" fill="black"/>
<path d="M51.7073 95.4146H48.9756V98.1463H51.7073V95.4146Z" fill="black"/>
<path d="M54.439 95.4146H51.7073V98.1463H54.439V95.4146Z" fill="black"/>
<path d="M65.3659 95.4146H62.6341V98.1463H65.3659V95.4146Z" fill="black"/>
<path d="M70.8293 95.4146H68.0976V98.1463H70.8293V95.4146Z" fill="black"/>
<path d="M73.561 95.4146H70.8293V98.1463H73.561V95.4146Z" fill="black"/>
<path d="M81.7561 95.4146H79.0244V98.1463H81.7561V95.4146Z" fill="black"/>
<path d="M87.2195 95.4146H84.4878V98.1463H87.2195V95.4146Z" fill="black"/>
<path d="M95.4146 95.4146H92.6829V98.1463H95.4146V95.4146Z" fill="black"/>
<path d="M98.1463 95.4146H95.4146V98.1463H98.1463V95.4146Z" fill="black"/>
<path d="M100.878 95.4146H98.1463V98.1463H100.878V95.4146Z" fill="black"/>
<path d="M103.61 95.4146H100.878V98.1463H103.61V95.4146Z" fill="black"/>
<path d="M106.341 95.4146H103.61V98.1463H106.341V95.4146Z" fill="black"/>
<path d="M109.073 95.4146H106.341V98.1463H109.073V95.4146Z" fill="black"/>
<path d="M114.537 95.4146H111.805V98.1463H114.537V95.4146Z" fill="black"/>
<path d="M117.268 95.4146H114.537V98.1463H117.268V95.4146Z" fill="black"/>
<path d="M40.7805 98.1463H38.0488V100.878H40.7805V98.1463Z" fill="black"/>
<path d="M43.5122 98.1463H40.7805V100.878H43.5122V98.1463Z" fill="black"/>
<path d="M51.7073 98.1463H48.9756V100.878H51.7073V98.1463Z" fill="black"/>
<path d="M54.439 98.1463H51.7073V100.878H54.439V98.1463Z" fill="black"/>
<path d="M57.1707 98.1463H54.439V100.878H57.1707V98.1463Z" fill="black"/>
<path d="M62.6341 98.1463H59.9024V100.878H62.6341V98.1463Z" fill="black"/>
<path d="M65.3659 98.1463H62.6341V100.878H65.3659V98.1463Z" fill="black"/>
<path d="M68.0976 98.1463H65.3659V100.878H68.0976V98.1463Z" fill="black"/>
<path d="M70.8293 98.1463H68.0976V100.878H70.8293V98.1463Z" fill="black"/>
<path d="M73.561 98.1463H70.8293V100.878H73.561V98.1463Z" fill="black"/>
<path d="M76.2927 98.1463H73.561V100.878H76.2927V98.1463Z" fill="black"/>
<path d="M79.0244 98.1463H76.2927V100.878H79.0244V98.1463Z" fill="black"/>
<path d="M87.2195 98.1463H84.4878V100.878H87.2195V98.1463Z" fill="black"/>
<path d="M92.6829 98.1463H89.9512V100.878H92.6829V98.1463Z" fill="black"/>
<path d="M95.4146 98.1463H92.6829V100.878H95.4146V98.1463Z" fill="black"/>
<path d="M98.1463 98.1463H95.4146V100.878H98.1463V98.1463Z" fill="black"/>
<path d="M109.073 98.1463H106.341V100.878H109.073V98.1463Z" fill="black"/>
<path d="M111.805 98.1463H109.073V100.878H111.805V98.1463Z" fill="black"/>
<path d="M117.268 98.1463H114.537V100.878H117.268V98.1463Z" fill="black"/>
<path d="M120 98.1463H117.268V100.878H120V98.1463Z" fill="black"/>
<path d="M10.7317 100.878H8V103.61H10.7317V100.878Z" fill="black"/>
<path d="M13.4634 100.878H10.7317V103.61H13.4634V100.878Z" fill="black"/>
<path d="M16.1951 100.878H13.4634V103.61H16.1951V100.878Z" fill="black"/>
<path d="M18.9268 100.878H16.1951V103.61H18.9268V100.878Z" fill="black"/>
<path d="M21.6585 100.878H18.9268V103.61H21.6585V100.878Z" fill="black"/>
<path d="M24.3902 100.878H21.6585V103.61H24.3902V100.878Z" fill="black"/>
<path d="M27.122 100.878H24.3902V103.61H27.122V100.878Z" fill="black"/>
<path d="M32.5854 100.878H29.8537V103.61H32.5854V100.878Z" fill="black"/>
<path d="M35.3171 100.878H32.5854V103.61H35.3171V100.878Z" fill="black"/>
<path d="M40.7805 100.878H38.0488V103.61H40.7805V100.878Z" fill="black"/>
<path d="M46.2439 100.878H43.5122V103.61H46.2439V100.878Z" fill="black"/>
<path d="M48.9756 100.878H46.2439V103.61H48.9756V100.878Z" fill="black"/>
<path d="M57.1707 100.878H54.439V103.61H57.1707V100.878Z" fill="black"/>
<path d="M59.9024 100.878H57.1707V103.61H59.9024V100.878Z" fill="black"/>
<path d="M68.0976 100.878H65.3659V103.61H68.0976V100.878Z" fill="black"/>
<path d="M79.0244 100.878H76.2927V103.61H79.0244V100.878Z" fill="black"/>
<path d="M84.4878 100.878H81.7561V103.61H84.4878V100.878Z" fill="black"/>
<path d="M89.9512 100.878H87.2195V103.61H89.9512V100.878Z" fill="black"/>
<path d="M98.1463 100.878H95.4146V103.61H98.1463V100.878Z" fill="black"/>
<path d="M103.61 100.878H100.878V103.61H103.61V100.878Z" fill="black"/>
<path d="M109.073 100.878H106.341V103.61H109.073V100.878Z" fill="black"/>
<path d="M114.537 100.878H111.805V103.61H114.537V100.878Z" fill="black"/>
<path d="M10.7317 103.61H8V106.341H10.7317V103.61Z" fill="black"/>
<path d="M27.122 103.61H24.3902V106.341H27.122V103.61Z" fill="black"/>
<path d="M32.5854 103.61H29.8537V106.341H32.5854V103.61Z" fill="black"/>
<path d="M38.0488 103.61H35.3171V106.341H38.0488V103.61Z" fill="black"/>
<path d="M51.7073 103.61H48.9756V106.341H51.7073V103.61Z" fill="black"/>
<path d="M59.9024 103.61H57.1707V106.341H59.9024V103.61Z" fill="black"/>
<path d="M65.3659 103.61H62.6341V106.341H65.3659V103.61Z" fill="black"/>
<path d="M76.2927 103.61H73.561V106.341H76.2927V103.61Z" fill="black"/>
<path d="M84.4878 103.61H81.7561V106.341H84.4878V103.61Z" fill="black"/>
<path d="M87.2195 103.61H84.4878V106.341H87.2195V103.61Z" fill="black"/>
<path d="M92.6829 103.61H89.9512V106.341H92.6829V103.61Z" fill="black"/>
<path d="M98.1463 103.61H95.4146V106.341H98.1463V103.61Z" fill="black"/>
<path d="M109.073 103.61H106.341V106.341H109.073V103.61Z" fill="black"/>
<path d="M111.805 103.61H109.073V106.341H111.805V103.61Z" fill="black"/>
<path d="M10.7317 106.341H8V109.073H10.7317V106.341Z" fill="black"/>
<path d="M16.1951 106.341H13.4634V109.073H16.1951V106.341Z" fill="black"/>
<path d="M18.9268 106.341H16.1951V109.073H18.9268V106.341Z" fill="black"/>
<path d="M21.6585 106.341H18.9268V109.073H21.6585V106.341Z" fill="black"/>
<path d="M27.122 106.341H24.3902V109.073H27.122V106.341Z" fill="black"/>
<path d="M32.5854 106.341H29.8537V109.073H32.5854V106.341Z" fill="black"/>
<path d="M35.3171 106.341H32.5854V109.073H35.3171V106.341Z" fill="black"/>
<path d="M38.0488 106.341H35.3171V109.073H38.0488V106.341Z" fill="black"/>
<path d="M40.7805 106.341H38.0488V109.073H40.7805V106.341Z" fill="black"/>
<path d="M46.2439 106.341H43.5122V109.073H46.2439V106.341Z" fill="black"/>
<path d="M48.9756 106.341H46.2439V109.073H48.9756V106.341Z" fill="black"/>
<path d="M51.7073 106.341H48.9756V109.073H51.7073V106.341Z" fill="black"/>
<path d="M57.1707 106.341H54.439V109.073H57.1707V106.341Z" fill="black"/>
<path d="M59.9024 106.341H57.1707V109.073H59.9024V106.341Z" fill="black"/>
<path d="M62.6341 106.341H59.9024V109.073H62.6341V106.341Z" fill="black"/>
<path d="M68.0976 106.341H65.3659V109.073H68.0976V106.341Z" fill="black"/>
<path d="M70.8293 106.341H68.0976V109.073H70.8293V106.341Z" fill="black"/>
<path d="M73.561 106.341H70.8293V109.073H73.561V106.341Z" fill="black"/>
<path d="M79.0244 106.341H76.2927V109.073H79.0244V106.341Z" fill="black"/>
<path d="M84.4878 106.341H81.7561V109.073H84.4878V106.341Z" fill="black"/>
<path d="M89.9512 106.341H87.2195V109.073H89.9512V106.341Z" fill="black"/>
<path d="M95.4146 106.341H92.6829V109.073H95.4146V106.341Z" fill="black"/>
<path d="M98.1463 106.341H95.4146V109.073H98.1463V106.341Z" fill="black"/>
<path d="M100.878 106.341H98.1463V109.073H100.878V106.341Z" fill="black"/>
<path d="M103.61 106.341H100.878V109.073H103.61V106.341Z" fill="black"/>
<path d="M106.341 106.341H103.61V109.073H106.341V106.341Z" fill="black"/>
<path d="M109.073 106.341H106.341V109.073H109.073V106.341Z" fill="black"/>
<path d="M114.537 106.341H111.805V109.073H114.537V106.341Z" fill="black"/>
<path d="M117.268 106.341H114.537V109.073H117.268V106.341Z" fill="black"/>
<path d="M120 106.341H117.268V109.073H120V106.341Z" fill="black"/>
<path d="M10.7317 109.073H8V111.805H10.7317V109.073Z" fill="black"/>
<path d="M16.1951 109.073H13.4634V111.805H16.1951V109.073Z" fill="black"/>
<path d="M18.9268 109.073H16.1951V111.805H18.9268V109.073Z" fill="black"/>
<path d="M21.6585 109.073H18.9268V111.805H21.6585V109.073Z" fill="black"/>
<path d="M27.122 109.073H24.3902V111.805H27.122V109.073Z" fill="black"/>
<path d="M32.5854 109.073H29.8537V111.805H32.5854V109.073Z" fill="black"/>
<path d="M46.2439 109.073H43.5122V111.805H46.2439V109.073Z" fill="black"/>
<path d="M57.1707 109.073H54.439V111.805H57.1707V109.073Z" fill="black"/>
<path d="M70.8293 109.073H68.0976V111.805H70.8293V109.073Z" fill="black"/>
<path d="M79.0244 109.073H76.2927V111.805H79.0244V109.073Z" fill="black"/>
<path d="M98.1463 109.073H95.4146V111.805H98.1463V109.073Z" fill="black"/>
<path d="M109.073 109.073H106.341V111.805H109.073V109.073Z" fill="black"/>
<path d="M111.805 109.073H109.073V111.805H111.805V109.073Z" fill="black"/>
<path d="M10.7317 111.805H8V114.537H10.7317V111.805Z" fill="black"/>
<path d="M16.1951 111.805H13.4634V114.537H16.1951V111.805Z" fill="black"/>
<path d="M18.9268 111.805H16.1951V114.537H18.9268V111.805Z" fill="black"/>
<path d="M21.6585 111.805H18.9268V114.537H21.6585V111.805Z" fill="black"/>
<path d="M27.122 111.805H24.3902V114.537H27.122V111.805Z" fill="black"/>
<path d="M32.5854 111.805H29.8537V114.537H32.5854V111.805Z" fill="black"/>
<path d="M43.5122 111.805H40.7805V114.537H43.5122V111.805Z" fill="black"/>
<path d="M46.2439 111.805H43.5122V114.537H46.2439V111.805Z" fill="black"/>
<path d="M54.439 111.805H51.7073V114.537H54.439V111.805Z" fill="black"/>
<path d="M57.1707 111.805H54.439V114.537H57.1707V111.805Z" fill="black"/>
<path d="M65.3659 111.805H62.6341V114.537H65.3659V111.805Z" fill="black"/>
<path d="M76.2927 111.805H73.561V114.537H76.2927V111.805Z" fill="black"/>
<path d="M79.0244 111.805H76.2927V114.537H79.0244V111.805Z" fill="black"/>
<path d="M87.2195 111.805H84.4878V114.537H87.2195V111.805Z" fill="black"/>
<path d="M98.1463 111.805H95.4146V114.537H98.1463V111.805Z" fill="black"/>
<path d="M109.073 111.805H106.341V114.537H109.073V111.805Z" fill="black"/>
<path d="M111.805 111.805H109.073V114.537H111.805V111.805Z" fill="black"/>
<path d="M120 111.805H117.268V114.537H120V111.805Z" fill="black"/>
<path d="M10.7317 114.537H8V117.268H10.7317V114.537Z" fill="black"/>
<path d="M27.122 114.537H24.3902V117.268H27.122V114.537Z" fill="black"/>
<path d="M38.0488 114.537H35.3171V117.268H38.0488V114.537Z" fill="black"/>
<path d="M40.7805 114.537H38.0488V117.268H40.7805V114.537Z" fill="black"/>
<path d="M43.5122 114.537H40.7805V117.268H43.5122V114.537Z" fill="black"/>
<path d="M46.2439 114.537H43.5122V117.268H46.2439V114.537Z" fill="black"/>
<path d="M48.9756 114.537H46.2439V117.268H48.9756V114.537Z" fill="black"/>
<path d="M57.1707 114.537H54.439V117.268H57.1707V114.537Z" fill="black"/>
<path d="M59.9024 114.537H57.1707V117.268H59.9024V114.537Z" fill="black"/>
<path d="M65.3659 114.537H62.6341V117.268H65.3659V114.537Z" fill="black"/>
<path d="M70.8293 114.537H68.0976V117.268H70.8293V114.537Z" fill="black"/>
<path d="M73.561 114.537H70.8293V117.268H73.561V114.537Z" fill="black"/>
<path d="M81.7561 114.537H79.0244V117.268H81.7561V114.537Z" fill="black"/>
<path d="M87.2195 114.537H84.4878V117.268H87.2195V114.537Z" fill="black"/>
<path d="M92.6829 114.537H89.9512V117.268H92.6829V114.537Z" fill="black"/>
<path d="M103.61 114.537H100.878V117.268H103.61V114.537Z" fill="black"/>
<path d="M106.341 114.537H103.61V117.268H106.341V114.537Z" fill="black"/>
<path d="M109.073 114.537H106.341V117.268H109.073V114.537Z" fill="black"/>
<path d="M111.805 114.537H109.073V117.268H111.805V114.537Z" fill="black"/>
<path d="M117.268 114.537H114.537V117.268H117.268V114.537Z" fill="black"/>
<path d="M10.7317 117.268H8V120H10.7317V117.268Z" fill="black"/>
<path d="M13.4634 117.268H10.7317V120H13.4634V117.268Z" fill="black"/>
<path d="M16.1951 117.268H13.4634V120H16.1951V117.268Z" fill="black"/>
<path d="M18.9268 117.268H16.1951V120H18.9268V117.268Z" fill="black"/>
<path d="M21.6585 117.268H18.9268V120H21.6585V117.268Z" fill="black"/>
<path d="M24.3902 117.268H21.6585V120H24.3902V117.268Z" fill="black"/>
<path d="M27.122 117.268H24.3902V120H27.122V117.268Z" fill="black"/>
<path d="M35.3171 117.268H32.5854V120H35.3171V117.268Z" fill="black"/>
<path d="M43.5122 117.268H40.7805V120H43.5122V117.268Z" fill="black"/>
<path d="M46.2439 117.268H43.5122V120H46.2439V117.268Z" fill="black"/>
<path d="M51.7073 117.268H48.9756V120H51.7073V117.268Z" fill="black"/>
<path d="M57.1707 117.268H54.439V120H57.1707V117.268Z" fill="black"/>
<path d="M68.0976 117.268H65.3659V120H68.0976V117.268Z" fill="black"/>
<path d="M73.561 117.268H70.8293V120H73.561V117.268Z" fill="black"/>
<path d="M79.0244 117.268H76.2927V120H79.0244V117.268Z" fill="black"/>
<path d="M89.9512 117.268H87.2195V120H89.9512V117.268Z" fill="black"/>
<path d="M95.4146 117.268H92.6829V120H95.4146V117.268Z" fill="black"/>
<path d="M100.878 117.268H98.1463V120H100.878V117.268Z" fill="black"/>
<path d="M106.341 117.268H103.61V120H106.341V117.268Z" fill="black"/>
<path d="M111.805 117.268H109.073V120H111.805V117.268Z" fill="black"/>
</g>
<defs>
<clipPath id="clip0_802_2119">
<rect width="128" height="128" rx="8" fill="white"/>
</clipPath>
</defs>
</svg>
