<svg width="154" height="8" viewBox="0 0 154 8" fill="none" xmlns="http://www.w3.org/2000/svg">
<path opacity="0.24" d="M0.333333 4C0.333333 5.47276 1.52724 6.66667 3 6.66667C4.47276 6.66667 5.66667 5.47276 5.66667 4C5.66667 2.52724 4.47276 1.33333 3 1.33333C1.52724 1.33333 0.333333 2.52724 0.333333 4ZM153.354 4.35355C153.549 4.15829 153.549 3.84171 153.354 3.64645L150.172 0.464466C149.976 0.269204 149.66 0.269204 149.464 0.464466C149.269 0.659728 149.269 0.976311 149.464 1.17157L152.293 4L149.464 6.82843C149.269 7.02369 149.269 7.34027 149.464 7.53553C149.66 7.7308 149.976 7.7308 150.172 7.53553L153.354 4.35355ZM3 4.5H4.97368V3.5H3V4.5ZM8.92105 4.5H12.8684V3.5H8.92105V4.5ZM16.8158 4.5H20.7632V3.5H16.8158V4.5ZM24.7105 4.5H28.6579V3.5H24.7105V4.5ZM32.6053 4.5H36.5526V3.5H32.6053V4.5ZM40.5 4.5H44.4474V3.5H40.5V4.5ZM48.3947 4.5H52.3421V3.5H48.3947V4.5ZM56.2895 4.5H60.2368V3.5H56.2895V4.5ZM64.1842 4.5H68.1316V3.5H64.1842V4.5ZM72.0789 4.5H76.0263V3.5H72.0789V4.5ZM79.9737 4.5H83.921V3.5H79.9737V4.5ZM87.8684 4.5H91.8158V3.5H87.8684V4.5ZM95.7631 4.5H99.7105V3.5H95.7631V4.5ZM103.658 4.5H107.605V3.5H103.658V4.5ZM111.553 4.5H115.5V3.5H111.553V4.5ZM119.447 4.5H123.395V3.5H119.447V4.5ZM127.342 4.5H131.289V3.5H127.342V4.5ZM135.237 4.5H139.184V3.5H135.237V4.5ZM143.132 4.5H147.079V3.5H143.132V4.5ZM151.026 4.5H153V3.5H151.026V4.5Z" fill="black"/>
</svg>
