<svg width="80" height="160" viewBox="0 0 80 160" fill="none" xmlns="http://www.w3.org/2000/svg">
<ellipse cx="40" cy="148" rx="40" ry="12" fill="url(#paint0_linear_261_12132)"/>
<rect y="91" width="80" height="61" fill="url(#paint1_linear_261_12132)"/>
<ellipse cx="40" cy="90" rx="40" ry="12" fill="#FFD967"/>
<path d="M33.1819 119.816C33.2885 117.683 34.0352 116.04 35.4219 114.888C36.8299 113.715 38.6752 113.128 40.9579 113.128C42.5152 113.128 43.8485 113.405 44.9579 113.96C46.0672 114.493 46.8992 115.229 47.4539 116.168C48.0299 117.085 48.3179 118.131 48.3179 119.304C48.3179 120.648 47.9659 121.789 47.2619 122.728C46.5792 123.645 45.7579 124.264 44.7979 124.584V124.712C46.0352 125.096 46.9952 125.779 47.6779 126.76C48.3819 127.741 48.7339 129 48.7339 130.536C48.7339 131.816 48.4352 132.957 47.8379 133.96C47.2619 134.963 46.3979 135.752 45.2459 136.328C44.1152 136.883 42.7499 137.16 41.1499 137.16C38.7392 137.16 36.7765 136.552 35.2619 135.336C33.7472 134.12 32.9472 132.328 32.8619 129.96H37.2139C37.2565 131.005 37.6085 131.848 38.2699 132.488C38.9525 133.107 39.8805 133.416 41.0539 133.416C42.1419 133.416 42.9739 133.117 43.5499 132.52C44.1472 131.901 44.4459 131.112 44.4459 130.152C44.4459 128.872 44.0405 127.955 43.2299 127.4C42.4192 126.845 41.1605 126.568 39.4539 126.568H38.5259V122.888H39.4539C42.4832 122.888 43.9979 121.875 43.9979 119.848C43.9979 118.931 43.7205 118.216 43.1659 117.704C42.6325 117.192 41.8539 116.936 40.8299 116.936C39.8272 116.936 39.0485 117.213 38.4939 117.768C37.9605 118.301 37.6512 118.984 37.5659 119.816H33.1819Z" fill="white"/>
<circle cx="40" cy="31" r="15.5" fill="#C4C4C4" stroke="#FFD967"/>
<g filter="url(#filter0_d_261_12132)">
<circle cx="40" cy="31" r="15" fill="#CF5490"/>
</g>
<path d="M34.0098 36.1344L34.2947 35.8494C35.7561 34.3881 37.738 33.5671 39.8047 33.5671H40.1954C42.262 33.5671 44.244 34.3881 45.7053 35.8494L45.9903 36.1344" stroke="white" stroke-width="1.16883" stroke-linecap="round" stroke-linejoin="bevel"/>
<circle cx="40" cy="28.1474" r="2.8525" stroke="white" stroke-width="1.16883" stroke-linecap="round" stroke-linejoin="bevel"/>
<path d="M39.2392 11.3416C39.4786 10.6046 40.5214 10.6046 40.7608 11.3416L41.1675 12.5931C41.2746 12.9227 41.5817 13.1459 41.9283 13.1459H43.2442C44.0192 13.1459 44.3414 14.1376 43.7144 14.5931L42.6499 15.3666C42.3695 15.5703 42.2521 15.9314 42.3592 16.261L42.7659 17.5125C43.0053 18.2495 42.1618 18.8624 41.5348 18.4069L40.4702 17.6334C40.1898 17.4297 39.8102 17.4297 39.5298 17.6334L38.4652 18.4069C37.8382 18.8624 36.9947 18.2495 37.2341 17.5125L37.6408 16.261C37.7479 15.9314 37.6305 15.5703 37.3501 15.3666L36.2856 14.5931C35.6586 14.1376 35.9808 13.1459 36.7558 13.1459H38.0717C38.4183 13.1459 38.7254 12.9227 38.8325 12.5931L39.2392 11.3416Z" fill="#FFD967"/>
<path fill-rule="evenodd" clip-rule="evenodd" d="M14 55C9.58172 55 6 58.5817 6 63V76C6 80.4183 9.58172 84 14 84H35.9585L39.134 89.5C39.5189 90.1667 40.4811 90.1667 40.866 89.5L44.0415 84H66C70.4183 84 74 80.4183 74 76V63C74 58.5817 70.4183 55 66 55H14Z" fill="#FDFDFD"/>
<defs>
<filter id="filter0_d_261_12132" x="5.51948" y="0.415584" width="68.961" height="68.961" filterUnits="userSpaceOnUse" color-interpolation-filters="sRGB">
<feFlood flood-opacity="0" result="BackgroundImageFix"/>
<feColorMatrix in="SourceAlpha" type="matrix" values="0 0 0 0 0 0 0 0 0 0 0 0 0 0 0 0 0 0 127 0" result="hardAlpha"/>
<feOffset dy="3.8961"/>
<feGaussianBlur stdDeviation="9.74026"/>
<feComposite in2="hardAlpha" operator="out"/>
<feColorMatrix type="matrix" values="0 0 0 0 0.0676069 0 0 0 0 0.0659375 0 0 0 0 0.075 0 0 0 0.1 0"/>
<feBlend mode="normal" in2="BackgroundImageFix" result="effect1_dropShadow_261_12132"/>
<feBlend mode="normal" in="SourceGraphic" in2="effect1_dropShadow_261_12132" result="shape"/>
</filter>
<linearGradient id="paint0_linear_261_12132" x1="40" y1="192.5" x2="40" y2="136" gradientUnits="userSpaceOnUse">
<stop stop-color="#FFD967"/>
<stop offset="1" stop-color="#FFD967" stop-opacity="0"/>
</linearGradient>
<linearGradient id="paint1_linear_261_12132" x1="40" y1="91" x2="40" y2="152" gradientUnits="userSpaceOnUse">
<stop stop-color="#C4A342"/>
<stop offset="1" stop-opacity="0"/>
</linearGradient>
</defs>
</svg>
